<svg xmlns="http://www.w3.org/2000/svg"><symbol viewBox="0 0 781 300" id="amartiria_pa_politoniko"><path d="M 594.500 36.389 C 589.830 38.429, 585.114 42.857, 582.800 47.376 C 579.832 53.170, 579.808 63.943, 582.750 69.595 C 585.505 74.886, 590.915 79.595, 595.983 81.113 L 600 82.317 600 94.644 L 600 106.972 568.250 107.236 L 536.500 107.500 536.239 150.250 L 535.979 193 541.989 193 L 548 193 548 155.500 L 548 118 570 118 L 592 118 592 155.500 L 592 193 598 193 L 604 193 604 152 C 604 116.222, 604.191 111, 605.500 111 C 606.763 111, 607 108.743, 607 96.689 L 607 82.378 612.188 81.048 C 621.825 78.579, 629 68.875, 629 58.312 C 629 48.542, 621.797 38.427, 613.123 36.017 C 608.088 34.619, 598.095 34.818, 594.500 36.389 M 597.415 46.421 C 588.278 50.400, 586.460 63.002, 594.096 69.427 C 602.699 76.667, 616.504 71.579, 617.728 60.718 C 618.997 49.462, 608.079 41.778, 597.415 46.421 M 98.818 87.500 C 97.401 90.609, 94.442 90.737, 87.239 87.999 C 84.346 86.900, 80.415 86, 78.505 86 C 73.791 86, 69.131 90.238, 68.334 95.250 C 67.746 98.954, 67.779 99, 71.082 99 C 73.507 99, 75.010 98.266, 76.557 96.326 L 78.689 93.653 85.901 96.326 C 94.898 99.661, 98.028 99.689, 101.857 96.467 C 104.947 93.867, 107.634 87.836, 106.512 86.020 C 106.166 85.459, 104.549 85, 102.920 85 C 100.730 85, 99.660 85.652, 98.818 87.500 M 459.654 101.250 C 457.841 105.237, 451.490 119.200, 445.540 132.278 C 439.590 145.355, 434.941 156.275, 435.209 156.543 C 435.478 156.811, 449.081 156.911, 465.440 156.765 L 495.182 156.500 493.019 153.750 L 490.855 151 471.427 151 C 458.895 151, 452 150.638, 452 149.981 C 452 149.420, 457.400 136.884, 464 122.123 C 470.600 107.362, 476 94.996, 476 94.642 C 476 94.289, 473.064 94, 469.475 94 L 462.950 94 459.654 101.250 M 82 108.500 C 82 112.633, 82.204 113, 84.500 113 C 86.344 113, 87 113.532, 87 115.025 C 87 116.264, 86.031 117.418, 84.500 118 C 83.125 118.523, 82 119.637, 82 120.475 C 82 122.896, 86.784 122.306, 89.545 119.545 C 91.652 117.439, 92 116.162, 92 110.545 L 92 104 87 104 L 82 104 82 108.500 M 101 150 L 101 193 106.500 193 L 112 193 112 173 L 112 153 134.500 153 L 157 153 157 173 L 157 193 162.500 193 L 168 193 168 150 L 168 107 162.500 107 L 157 107 157 125 L 157 143 134.500 143 L 112 143 112 125 L 112 107 106.500 107 L 101 107 101 150 M 264.994 130.934 C 257.703 133.152, 251.773 138.396, 247.957 146 C 246.286 149.331, 245.576 152.853, 245.223 159.560 C 244.373 175.738, 249.213 185.856, 260.500 191.500 C 272.538 197.519, 288.417 194.575, 296.076 184.904 C 300.120 179.799, 303.003 170.519, 302.988 162.661 C 302.959 147.456, 296.485 136.196, 285.385 132.043 C 279.797 129.952, 269.977 129.418, 264.994 130.934 M 330.173 131.905 C 324.044 134.022, 317.891 139.529, 315.014 145.471 C 310.229 155.356, 310.739 170.802, 316.128 179.200 C 321.351 187.338, 329.160 191.239, 345.302 193.771 C 354.198 195.167, 357 197.007, 357 201.450 C 357 205.704, 353.231 209, 348.365 209 C 345.002 209, 345 209.003, 345 213.905 L 345 218.810 349.250 218.308 C 354.844 217.647, 361.923 214.152, 364.298 210.877 C 368.354 205.285, 368.152 195.964, 363.875 191.311 C 360.451 187.588, 354.372 185.167, 345.371 183.944 C 335.213 182.564, 329.597 179.859, 326.184 174.702 C 323.765 171.047, 323.501 169.749, 323.507 161.573 C 323.513 154.127, 323.912 151.753, 325.735 148.334 C 328.916 142.364, 333.156 139.689, 340.245 139.176 C 349.334 138.518, 354.130 141.216, 356.378 148.250 C 356.823 149.644, 358.086 150, 362.577 150 L 368.217 150 367.531 147.250 C 365.452 138.910, 360.668 133.908, 352.386 131.416 C 345.967 129.484, 336.585 129.691, 330.173 131.905 M 632.176 132.600 C 627.023 135.168, 623.160 139.603, 620.069 146.500 C 617.874 151.397, 617.464 168.646, 619.386 175.254 C 621.446 182.343, 626.315 188.783, 632.047 192 C 638.634 195.697, 648.678 195.571, 655.250 191.708 C 657.862 190.172, 660.010 188.597, 660.022 188.208 C 660.034 187.819, 660.876 186.419, 661.891 185.098 L 663.738 182.696 665.449 187.848 L 667.161 193 672.687 193 C 677.543 193, 678.131 192.788, 677.535 191.250 C 677.161 190.287, 675.491 183.904, 673.823 177.064 C 670.367 162.888, 670.418 161.471, 675.040 143.187 C 676.665 136.759, 677.996 131.387, 677.997 131.250 C 677.999 131.113, 675.583 131, 672.630 131 L 667.260 131 665.993 135.526 C 664.847 139.619, 663 142.500, 663 140.195 C 663 139.688, 661.763 138.022, 660.250 136.493 C 653.406 129.576, 641.545 127.931, 632.176 132.600 M 181 131.568 C 181 132.130, 197.227 162.263, 201.722 170.049 C 203.136 172.499, 202.784 173.343, 192.750 191.549 C 187.006 201.972, 181.551 211.963, 180.627 213.750 L 178.949 217 185.224 216.980 L 191.500 216.960 200 200.392 C 204.675 191.280, 208.749 183.667, 209.054 183.474 C 209.359 183.282, 213.399 190.746, 218.031 200.062 L 226.453 217 232.726 217 C 236.177 217, 239 216.758, 239 216.463 C 239 216.167, 233.761 206.380, 227.358 194.713 C 220.955 183.046, 215.705 173.049, 215.691 172.497 C 215.678 171.946, 220.467 162.774, 226.333 152.115 C 232.200 141.456, 237 132.345, 237 131.868 C 237 131.390, 234.303 131, 231.006 131 L 225.012 131 217.173 146.654 L 209.334 162.307 201.278 146.904 L 193.222 131.500 187.111 131.202 C 183.750 131.039, 181 131.203, 181 131.568 M 264.898 141.289 C 263.029 142.547, 260.375 145.585, 259 148.039 C 256.822 151.926, 256.500 153.723, 256.500 162 C 256.500 169.935, 256.885 172.281, 258.836 176.243 C 260.121 178.852, 262.479 181.917, 264.076 183.054 C 270.047 187.306, 278.872 186.808, 284.456 181.904 C 289.638 177.355, 291.270 171.962, 290.829 160.845 C 290.394 149.874, 288.494 145.087, 283.125 141.439 C 278.197 138.091, 269.749 138.021, 264.898 141.289 M 637.182 141.030 C 626.943 147.273, 626.278 172.513, 636.093 182.329 C 639.878 186.114, 640.199 186.231, 645.528 185.789 C 655.593 184.955, 661.205 176.725, 661.386 162.535 C 661.512 152.740, 659.346 146.389, 654.400 142.047 C 651.480 139.482, 650.105 139.001, 645.715 139.004 C 642.246 139.006, 639.389 139.685, 637.182 141.030 M 446.895 172.359 C 441.034 175.265, 445.638 183.853, 451.601 181.136 C 453.725 180.168, 454.071 179.419, 453.810 176.352 C 453.445 172.075, 450.684 170.480, 446.895 172.359 M 476.351 172.066 C 472.465 173.503, 472.853 180.184, 476.897 181.467 C 481.116 182.806, 484.560 178.746, 482.934 174.351 C 482.039 171.931, 479.293 170.978, 476.351 172.066 M 483.250 192.663 C 482.548 192.946, 482 194.887, 482 197.090 L 482 201.013 477.927 198.062 C 467.294 190.360, 452.100 192.966, 447.071 203.353 C 443.329 211.082, 445.082 223.272, 450.645 228.212 C 457.761 234.531, 471.663 234.423, 478.504 227.997 L 480.535 226.089 479.779 237.794 C 479.364 244.232, 478.569 252.237, 478.012 255.582 C 477.455 258.927, 477 264.204, 477 267.309 C 477 272.227, 477.322 273.165, 479.500 274.592 C 481.761 276.073, 482.225 276.083, 484.346 274.693 C 486.388 273.355, 486.776 272.077, 487.347 264.828 C 488.684 247.823, 489.369 193, 488.243 193 C 487.649 193, 486.564 192.811, 485.832 192.579 C 485.099 192.348, 483.938 192.385, 483.250 192.663 M 461.722 200.004 C 454.874 205.391, 451.565 220.635, 456.016 226.293 C 459.034 230.130, 463.976 231.455, 468.392 229.609 C 472.780 227.776, 475.370 223.682, 477 216.002 C 479.320 205.067, 475.858 198, 468.180 198 C 465.782 198, 463.285 198.775, 461.722 200.004" stroke="none" fill="" fill-rule="evenodd"/></symbol></svg>