<svg xmlns="http://www.w3.org/2000/svg"><symbol viewBox="0 0 710 298" id="amartiria_pa"><path d="M 555.324 41.391 C 548.591 43.575, 544.171 46.854, 541.241 51.837 C 537.595 58.040, 537.346 69.234, 540.714 75.595 C 543.404 80.676, 548.693 85.414, 553.414 86.972 L 557 88.155 557 100.578 L 557 113 525.500 113 L 494 113 494 156 L 494 199 500 199 L 506 199 506 161.500 L 506 124 528 124 L 550 124 550 161.500 L 550 199 556 199 L 562 199 562 158 C 562 122.222, 562.191 117, 563.500 117 C 564.764 117, 565 114.731, 565 102.579 L 565 88.159 568.250 87.481 C 585.646 83.855, 592.772 62.111, 580.962 48.695 C 574.788 41.681, 563.950 38.593, 555.324 41.391 M 554.500 52.861 C 548.851 56.350, 547.500 58.701, 547.500 65.039 C 547.500 70.133, 547.873 71.258, 550.452 73.950 C 558.194 82.031, 572.283 79.090, 575.050 68.815 C 576.894 61.967, 573.357 54.227, 567.339 51.939 C 563.410 50.445, 557.753 50.851, 554.500 52.861 M 420.323 101.250 C 419.886 101.938, 413.413 116, 405.939 132.500 L 392.349 162.500 407.737 162.776 C 416.200 162.927, 429.888 162.927, 438.155 162.776 L 453.185 162.500 451.036 159.771 L 448.887 157.041 428.980 156.771 L 409.074 156.500 421.537 128.596 C 428.392 113.248, 434 100.536, 434 100.346 C 434 99.299, 421.018 100.158, 420.323 101.250 M 39.502 123.250 C 40.394 137.052, 40.374 137, 44.966 137 L 48.797 137 49.432 129.750 C 49.782 125.763, 50.320 120.362, 50.628 117.750 L 51.188 113 45.014 113 L 38.840 113 39.502 123.250 M 59.667 113.667 C 59.300 114.033, 59 133.383, 59 156.667 L 59 199 65 199 L 71 199 71 179 L 71 159 93 159 L 115 159 115 179 L 115 199 121 199 L 127 199 127 155.950 L 127 112.900 121.250 113.200 L 115.500 113.500 115.226 130.750 L 114.953 148 92.976 148 L 71 148 71 130.500 L 71 113 65.667 113 C 62.733 113, 60.033 113.300, 59.667 113.667 M 221.558 137.434 C 215.979 139.504, 212.977 141.940, 209.264 147.415 C 205.142 153.490, 203.831 158.440, 203.789 168.093 C 203.703 187.932, 214.513 200.297, 232 200.361 C 241.842 200.397, 246.481 198.649, 252.489 192.641 C 259.141 185.989, 261.375 179.807, 261.393 168 C 261.414 154.016, 256.231 143.750, 246.643 138.786 C 241.281 136.010, 227.411 135.263, 221.558 137.434 M 290.358 137.091 C 283.714 139.016, 277.681 144.309, 274.033 151.416 C 270.833 157.649, 270.563 158.874, 270.533 167.334 C 270.504 175.389, 270.840 177.192, 273.303 182.208 C 278.049 191.873, 286.695 197.004, 301.767 199.100 C 310.836 200.362, 314.751 202.161, 315.576 205.446 C 316.878 210.634, 314.030 213.789, 307 214.947 C 303.706 215.490, 303.482 215.773, 303.193 219.762 L 302.885 224 307.328 224 C 313.448 224, 321.683 219.598, 324.135 215.016 C 326.598 210.415, 326.540 203.398, 324.005 199.241 C 321.420 195.001, 316.864 192.301, 310.018 190.952 C 290.383 187.084, 287.041 185.503, 283.905 178.599 C 281.806 173.976, 281.383 163.761, 283.044 157.781 C 285.245 149.857, 292.114 144.714, 300.500 144.714 C 308.188 144.714, 315 149.181, 315 154.223 C 315 155.729, 315.918 156, 321.019 156 L 327.038 156 326.390 153.250 C 324.607 145.683, 319.515 140.151, 311.837 137.442 C 307.343 135.857, 295.297 135.660, 290.358 137.091 M 590.252 138.104 C 579.328 143.512, 573.629 158.284, 576.005 175.036 C 577.841 187.981, 584.168 196.487, 594.167 199.457 C 600.606 201.369, 602.365 201.378, 608.596 199.527 C 613.316 198.126, 618.435 193.969, 620.676 189.718 C 621.443 188.263, 621.934 188.951, 623.359 193.468 L 625.102 199 630.658 199 C 635.552 199, 636.130 198.791, 635.508 197.250 C 633.598 192.519, 629.001 172.288, 629.008 168.643 C 629.014 165.176, 633.041 146.748, 635.452 139.152 C 636.094 137.128, 635.809 137, 630.648 137 L 625.161 137 623.476 142.073 C 621.791 147.145, 621.790 147.146, 620.181 144.823 C 616.009 138.801, 610.270 136.184, 601 136.077 C 596.291 136.022, 593.329 136.581, 590.252 138.104 M 150.237 157.208 C 156.340 168.322, 161.333 177.888, 161.333 178.465 C 161.333 179.042, 156.083 189.046, 149.667 200.697 C 143.250 212.348, 138 222.133, 138 222.441 C 138 222.748, 140.823 223, 144.274 223 L 150.547 223 159 206 C 163.649 196.650, 167.699 189, 168 189 C 168.301 189, 172.351 196.650, 177 206 L 185.453 223 191.762 223 C 197.983 223, 198.054 222.969, 196.903 220.750 C 196.261 219.512, 190.814 209.424, 184.798 198.330 L 173.861 178.160 184.931 158.170 C 191.019 147.175, 196 137.914, 196 137.590 C 196 137.265, 193.298 137, 189.996 137 L 183.992 137 176.261 152.500 C 172.009 161.025, 168.291 168, 168 168 C 167.709 168, 163.991 161.025, 159.739 152.500 L 152.008 137 145.575 137 L 139.141 137 150.237 157.208 M 228.159 144.997 C 219.508 147.036, 214.400 157.264, 215.215 170.915 C 216.047 184.837, 221.667 191.500, 232.578 191.500 C 237.637 191.500, 239.248 191.048, 242.187 188.806 C 248.001 184.372, 249.500 180.107, 249.500 168 C 249.500 159.068, 249.169 156.880, 247.281 153.351 C 243.681 146.620, 235.830 143.190, 228.159 144.997 M 598.604 145.038 C 591.285 147.229, 587 155.707, 587 168 C 587 184.306, 594.753 193.970, 605.875 191.527 C 610.427 190.528, 613.982 187.235, 616.616 181.579 C 618.533 177.460, 618.982 174.840, 618.990 167.718 C 619.005 154.781, 615.030 147.214, 607.057 144.999 C 602.969 143.864, 602.523 143.866, 598.604 145.038 M 404.751 177.701 C 402.611 178.246, 401.339 182.723, 402.704 184.905 C 403.957 186.908, 408.653 187.533, 410.560 185.950 C 412.095 184.677, 412.449 181.228, 411.235 179.385 C 410.304 177.972, 407.027 177.121, 404.751 177.701 M 433 179 C 430.691 181.309, 430.488 182.982, 432.250 185.169 C 433.983 187.320, 436.103 187.885, 438.750 186.901 C 441.753 185.785, 441.973 179.591, 439.066 178.035 C 436.318 176.565, 435.269 176.731, 433 179 M 440.690 198.750 C 440.455 199.162, 439.961 201.170, 439.593 203.212 L 438.924 206.924 436.874 204.874 C 430.480 198.480, 416.621 197.577, 409.603 203.098 C 403.073 208.234, 400.844 220.853, 405.020 229.039 C 410.360 239.506, 427.305 242.371, 435.551 234.201 L 438.277 231.500 437.554 243.446 C 437.157 250.016, 436.422 257.891, 435.921 260.946 C 434.879 267.308, 434.713 277.088, 435.607 279.418 C 436.467 281.660, 442.646 281.534, 443.860 279.250 C 444.932 277.232, 447 233.685, 447 213.129 C 447 201.363, 446.756 199.120, 445.418 198.607 C 443.267 197.781, 441.207 197.844, 440.690 198.750 M 423 203.706 C 420.415 204.651, 416.880 208.354, 414.926 212.164 C 408.399 224.890, 411.904 236, 422.446 236 C 427.474 236, 430.389 233.636, 433.201 227.279 C 435.748 221.520, 435.985 211.433, 433.656 207.878 C 431.137 204.034, 426.775 202.326, 423 203.706" stroke="none" fill="" fill-rule="evenodd"/></symbol></svg>