<svg xmlns="http://www.w3.org/2000/svg"><symbol viewBox="0 0 660 296" id="amartiria_pa_ke_ws_pa"><path d="M 520.777 34.168 L 520.500 48.336 516.125 49.793 C 505.696 53.266, 499.693 64.604, 501.781 76.883 C 502.995 84.023, 506.198 88.881, 512.373 92.946 L 516.089 95.392 496.794 114.707 L 477.500 134.022 477.230 112.962 L 476.960 91.901 471.230 92.201 L 465.500 92.500 465.239 135.250 L 464.979 178 470.989 178 L 477 178 477 163.221 L 477 148.442 483.277 142.221 C 486.729 138.800, 489.816 136, 490.137 136 C 490.458 136, 497.414 145.450, 505.595 157 L 520.469 178 527.770 178 C 534.427 178, 534.985 177.846, 534.098 176.250 C 533.563 175.287, 525.267 163.945, 515.662 151.045 L 498.199 127.591 514.724 111.574 C 525.409 101.217, 532.486 95.131, 534.747 94.354 C 536.671 93.693, 539.846 91.856, 541.802 90.272 C 551.500 82.423, 552.753 66.267, 544.383 57.002 C 540.645 52.865, 533.788 49, 530.184 49 C 528.039 49, 528 48.741, 528 34.500 L 528 20 524.527 20 L 521.055 20 520.777 34.168 M 519.500 61.167 C 513.193 64.655, 510.862 70.021, 512.930 76.288 C 514.781 81.896, 518.173 84.313, 524.875 84.797 C 530.218 85.184, 531.003 84.969, 533.989 82.301 C 540.120 76.823, 539.019 65.130, 532.033 61.517 C 528.619 59.752, 522.374 59.577, 519.500 61.167 M 390.099 83.250 C 389.093 85.588, 382.809 99.524, 376.135 114.221 C 369.461 128.917, 364 141.180, 364 141.471 C 364 141.762, 377.500 142, 394 142 C 410.500 142, 423.985 141.662, 423.967 141.250 C 423.948 140.838, 423.089 139.488, 422.056 138.250 C 420.227 136.057, 419.682 136, 400.590 136 C 389.815 136, 381 135.600, 381 135.112 C 381 134.624, 386.400 122.198, 393 107.500 C 399.600 92.802, 405 80.376, 405 79.888 C 405 79.400, 402.059 79, 398.464 79 L 391.929 79 390.099 83.250 M 41.372 96.750 C 41.680 99.362, 42.218 104.763, 42.568 108.750 L 43.203 116 47.022 116 C 51.483 116, 51.509 115.930, 52.554 101.250 L 53.212 92 47.012 92 L 40.812 92 41.372 96.750 M 62 135 L 62 178 67.500 178 L 73 178 73 158 L 73 138 95.500 138 L 118 138 118 158 L 118 178 123.500 178 L 129 178 129 135 L 129 92 123.500 92 L 118 92 118 109.500 L 118 127 95.500 127 L 73 127 73 109.500 L 73 92 67.500 92 L 62 92 62 135 M 225.994 115.876 C 213.243 120.049, 207.163 128.890, 206.266 144.560 C 205.343 160.683, 210.186 170.846, 221.481 176.487 C 226.563 179.025, 228.592 179.468, 234.981 179.437 C 253.940 179.346, 265.083 165.836, 263.755 144.549 C 262.940 131.488, 257.907 122.643, 248.500 117.740 C 244.150 115.472, 230.645 114.354, 225.994 115.876 M 290.295 117.057 C 283.466 119.745, 276.921 126.943, 274.603 134.313 C 272.006 142.570, 272.309 153.811, 275.305 160.355 C 280.085 170.797, 288.429 175.982, 303.853 178.098 C 313.893 179.475, 317.406 181.491, 317.799 186.100 C 318.175 190.513, 315.690 192.964, 310.078 193.716 C 306.013 194.262, 306 194.278, 306 198.632 C 306 202.895, 306.078 203, 309.250 202.994 C 321.590 202.973, 330.484 193.348, 328.045 182.653 C 326.317 175.081, 319.945 170.861, 307.498 169.045 C 291.486 166.710, 285.106 161.274, 284.255 149.242 C 283.129 133.346, 290.157 123.800, 302.984 123.800 C 310.441 123.800, 315.353 126.511, 317.014 131.542 C 318.132 134.929, 318.269 135, 323.657 135 L 329.159 135 328.506 131.750 C 327.445 126.468, 322.932 120.841, 317.521 118.055 C 310.673 114.528, 297.909 114.060, 290.295 117.057 M 554.530 116.594 C 550.073 118.226, 545.524 122.156, 543.411 126.200 C 540.269 132.213, 542.939 141.648, 548.498 144.181 C 550.975 145.310, 551.897 147, 550.035 147 C 549.504 147, 547.485 148.391, 545.549 150.091 C 536.428 158.099, 539.681 171.605, 552.006 176.907 C 568.267 183.903, 589.698 177.363, 593.485 164.250 C 594.108 162.092, 593.885 162, 588.067 162 C 583.695 162, 582 162.370, 582 163.326 C 582 164.055, 580.987 165.567, 579.750 166.687 C 573.544 172.303, 560.235 172.388, 554.340 166.850 C 551.129 163.833, 551.158 158.090, 554.403 154.318 C 556.601 151.763, 557.500 151.492, 564.903 151.156 L 573 150.788 573 146.394 L 573 142 568.250 141.994 C 560.325 141.985, 556.430 140.426, 554.577 136.521 C 550.474 127.874, 558.273 121.899, 571.030 123.916 C 574.922 124.531, 577.021 125.485, 578.652 127.382 C 580.565 129.606, 581.719 130, 586.313 130 C 591.601 130, 591.711 129.942, 591.225 127.397 C 590.500 123.603, 584.897 118.494, 579.414 116.625 C 573.478 114.603, 560.016 114.586, 554.530 116.594 M 142 116.480 C 142 116.744, 146.950 125.958, 153 136.955 C 159.050 147.952, 164 157.198, 164 157.500 C 164 157.802, 159.121 166.926, 153.159 177.775 C 147.196 188.624, 141.780 198.512, 141.124 199.750 C 139.944 201.973, 140.006 202, 146.304 202 C 152.292 202, 152.754 201.833, 153.915 199.250 C 154.595 197.738, 158.543 190.040, 162.687 182.145 L 170.224 167.791 178.983 184.645 L 187.743 201.500 193.998 201.801 C 199.143 202.049, 200.154 201.843, 199.694 200.646 C 199.387 199.845, 194.102 190.034, 187.950 178.845 C 181.798 167.655, 176.742 158.047, 176.715 157.494 C 176.674 156.630, 186.236 138.820, 196.177 121.250 L 199.147 116 192.580 116 L 186.012 116 178.126 131.748 L 170.239 147.496 162.385 131.748 L 154.530 116 148.265 116 C 144.819 116, 142 116.216, 142 116.480 M 231.123 124.042 C 220.422 126.443, 214.779 139.973, 218 155.505 C 221.532 172.543, 241.972 176.558, 249.644 161.722 C 253.627 154.019, 253.070 137.727, 248.593 130.961 C 244.694 125.070, 238.129 122.470, 231.123 124.042 M 376.239 156.666 C 374.029 157.556, 372.933 160.694, 373.923 163.298 C 374.982 166.084, 377.590 167.066, 380.787 165.883 C 382.503 165.248, 383 164.265, 383 161.507 C 383 158.609, 382.525 157.770, 380.435 156.975 C 379.024 156.439, 377.787 156.036, 377.685 156.079 C 377.583 156.122, 376.932 156.387, 376.239 156.666 M 405.189 157.054 C 403.269 157.824, 402.931 158.599, 403.189 161.632 C 403.413 164.265, 404.087 165.499, 405.605 166.056 C 411.074 168.063, 415.517 160.876, 410.835 157.597 C 408.254 155.790, 408.324 155.796, 405.189 157.054 M 412.250 177.662 C 411.542 177.948, 411 179.903, 411 182.172 L 411 186.178 407.933 183.597 C 403.877 180.184, 394.915 177.608, 390.166 178.490 C 383.706 179.690, 379.206 182.946, 376.497 188.382 C 369.789 201.842, 377.026 216.218, 391.248 217.686 C 397.590 218.341, 402.754 216.919, 406.994 213.352 L 409.936 210.876 409.398 217.688 C 409.101 221.435, 408.412 228.550, 407.865 233.500 C 405.903 251.258, 405.732 255.631, 406.913 257.837 C 408.281 260.394, 413.096 260.794, 414.994 258.508 C 416.423 256.786, 417.743 231.561, 418.082 199.498 C 418.260 182.671, 418.039 178.638, 416.900 177.917 C 415.374 176.951, 414.176 176.885, 412.250 177.662 M 393 183.752 C 390.411 185.045, 388.634 187.192, 386.173 192 C 383.264 197.682, 382.896 199.243, 383.247 204.401 C 383.763 211.969, 386.733 215, 393.633 215 C 399.430 215, 403.183 211.490, 405.412 203.983 C 408.532 193.477, 406.744 186.045, 400.466 183.421 C 396.340 181.697, 397.187 181.660, 393 183.752" stroke="none" fill="" fill-rule="evenodd"/></symbol></svg>