<svg xmlns="http://www.w3.org/2000/svg"><symbol viewBox="0 0 1015 300" id="amartiria_pa_ke_difonos_xromatikos_ni"><path d="M 509 39.265 L 509 53.531 504.117 55.265 C 492.729 59.310, 487.253 72.460, 491.110 86.500 C 492.271 90.728, 499.821 99, 502.518 99 C 503.333 99, 504 99.262, 504 99.583 C 504 100.507, 466.701 139, 465.805 139 C 465.362 139, 465 129.550, 465 118 L 465 97 459.500 97 L 454 97 454 140 L 454 183 459.500 183 L 465 183 465.041 168.250 L 465.082 153.500 472.017 147.187 L 478.952 140.874 482.226 145.536 C 484.027 148.101, 490.696 157.466, 497.048 166.349 L 508.595 182.500 516.304 182.792 L 524.014 183.084 505.351 157.960 L 486.689 132.835 502.094 117.348 C 514.606 104.771, 518.634 101.341, 523.535 99.091 C 530.306 95.982, 536.411 89.696, 537.384 84.831 C 540.314 70.182, 533.873 58.406, 520.827 54.558 L 516.500 53.282 516.223 39.141 L 515.945 25 512.473 25 L 509 25 509 39.265 M 728.447 51.576 L 722.394 54.054 717.468 64.066 C 714.045 71.022, 711.925 74.206, 710.521 74.500 C 709.409 74.732, 698.825 75.433, 687 76.057 C 675.175 76.681, 665.103 77.568, 664.617 78.028 C 663.037 79.527, 664.755 81.701, 668.039 82.358 C 669.805 82.711, 680.152 83, 691.031 83 L 710.812 83 711.505 88.250 C 712.474 95.599, 715.309 101.563, 719.993 106.109 C 724.686 110.663, 726.178 110.814, 735.555 107.677 L 742.500 105.353 748.040 94.927 L 753.580 84.500 762.540 84.187 C 767.468 84.015, 773.827 84.155, 776.671 84.499 L 781.843 85.124 781.298 90.404 C 780.760 95.618, 780.798 95.712, 784.408 97.943 C 789.682 101.203, 799.637 103.986, 806 103.979 C 809.025 103.976, 821.175 102.453, 833 100.594 C 849.303 98.032, 856.487 96.429, 862.720 93.963 C 867.240 92.174, 870.701 90.326, 870.411 89.855 C 869.438 88.281, 862.195 88.972, 836.260 93.111 C 808.569 97.530, 799.338 97.840, 791.601 94.607 C 787.898 93.060, 787.759 92.833, 788.252 89.159 C 788.559 86.866, 789.818 84.273, 791.383 82.708 C 794.242 79.849, 794.688 78.159, 792.750 77.534 C 792.063 77.312, 783.509 76.828, 773.742 76.457 L 755.984 75.784 755.462 73.142 C 754.159 66.547, 750.767 56.974, 748.888 54.584 C 744.142 48.552, 738.030 47.652, 728.447 51.576 M 729.749 59.524 C 727.234 62.039, 725 68.586, 725 73.443 C 725 75.997, 725.010 76, 734.045 76 L 743.091 76 742.443 72.250 C 740.866 63.130, 738.942 58.218, 736.710 57.620 C 733.145 56.664, 732.407 56.866, 729.749 59.524 M 507.378 66.437 C 502.858 68.404, 501 71.626, 501 77.500 C 501 85.605, 505.651 90, 514.228 90 C 520.893 90, 525.399 86.285, 526.507 79.877 C 528.307 69.460, 517.645 61.969, 507.378 66.437 M 725 88.953 C 725 99.517, 727.956 102.593, 734.769 99.118 C 738.266 97.334, 738.780 96.560, 739.953 91.319 C 740.669 88.118, 741.471 84.938, 741.734 84.250 C 742.095 83.310, 740.082 83, 733.607 83 L 725 83 725 88.953 M 368.784 109.754 C 362.362 123.918, 355.964 138.093, 354.567 141.254 L 352.025 147 382.581 147 L 413.136 147 411 144 L 408.864 141 388.932 141 C 377.969 141, 369 140.836, 369 140.635 C 369 140.434, 374.437 128.171, 381.081 113.385 C 387.726 98.598, 393.399 85.938, 393.688 85.250 C 394.079 84.320, 392.452 84, 387.337 84 L 380.460 84 368.784 109.754 M 30.470 108.250 C 30.870 114.438, 31.404 119.838, 31.657 120.250 C 32.273 121.253, 38.750 121.213, 39.374 120.203 C 39.645 119.765, 40.186 114.365, 40.576 108.203 L 41.285 97 35.514 97 L 29.743 97 30.470 108.250 M 50.712 97.622 C 50.320 98.013, 50 117.383, 50 140.667 L 50 183 56 183 L 62 183 62 163 L 62 143 84 143 L 106 143 106 163 L 106 183 112.011 183 L 118.021 183 117.761 140.250 L 117.500 97.500 112 97.500 L 106.500 97.500 106.227 115.250 L 105.954 133 84 133 L 62.046 133 61.773 115.250 L 61.500 97.500 56.462 97.205 C 53.690 97.043, 51.103 97.230, 50.712 97.622 M 211.285 122.049 C 198.775 127.001, 191.982 142.590, 194.937 159.562 C 197.511 174.341, 205.801 182.717, 219.672 184.553 C 231.884 186.168, 243.047 180.408, 248.843 169.500 C 251.294 164.889, 251.500 163.567, 251.500 152.500 C 251.500 142.438, 251.163 139.771, 249.412 135.989 C 246.873 130.505, 242.170 125.646, 236.634 122.789 C 230.552 119.649, 218.254 119.291, 211.285 122.049 M 280.882 121.322 C 267.812 126.203, 261 136.542, 261 151.500 C 261 169.462, 271.270 180.218, 291.079 183.002 C 300.575 184.336, 302.018 184.789, 304.750 187.289 C 309.944 192.043, 305.338 199, 296.995 199 C 293.915 199, 293.893 199.038, 294.195 203.750 L 294.500 208.500 298.500 208.168 C 304.164 207.697, 310.113 204.843, 313.283 201.075 C 316.558 197.184, 317.419 194.159, 316.725 188.986 C 315.593 180.544, 309.280 176.089, 295.488 173.998 C 285.241 172.445, 280.730 170.595, 277.096 166.457 C 270.077 158.462, 271.189 140.594, 279.155 133.375 C 283.007 129.884, 285.560 129, 291.786 129 C 298.991 129, 303.997 131.846, 305.457 136.771 C 306.379 139.882, 306.606 140, 311.707 140 C 316.376 140, 317 139.758, 317 137.950 C 317 132.957, 311.713 125.957, 305.500 122.724 C 300.442 120.091, 286.330 119.288, 280.882 121.322 M 543.558 121.492 C 537.689 123.583, 534.759 126.087, 532.188 131.211 C 529.061 137.441, 529.925 142.120, 535.174 147.392 C 537.305 149.533, 538.925 151.366, 538.775 151.466 C 530.431 156.988, 528.592 160.071, 529.209 167.505 C 529.775 174.330, 532.650 178.190, 539.774 181.688 C 544.848 184.180, 546.582 184.497, 555 184.476 C 562.718 184.456, 565.435 184.025, 569.488 182.177 C 575.151 179.594, 578.555 176.720, 580.595 172.800 C 583.154 167.881, 582.557 167, 576.661 167 C 571.908 167, 571.193 167.280, 570.159 169.549 C 568.663 172.833, 561.788 175.951, 556 175.972 C 543.391 176.018, 537.079 169.549, 541.463 161.072 C 543.370 157.384, 544.996 156.734, 554 156.061 L 561.500 155.500 561.801 151.385 L 562.102 147.270 554.523 146.783 C 548.380 146.389, 546.477 145.857, 544.472 143.974 C 541.397 141.085, 541.119 135.309, 543.891 131.886 C 545.517 129.878, 546.879 129.494, 553.592 129.155 C 562.133 128.724, 567.371 130.487, 568.319 134.110 C 568.730 135.685, 569.765 136, 574.531 136 L 580.250 136 579.607 132.786 C 578.074 125.119, 568.216 119.970, 555.212 120.044 C 550.971 120.068, 545.726 120.720, 543.558 121.492 M 132.751 126.250 C 141.300 141.508, 152 161.744, 152 162.656 C 152 163.228, 146.831 173.102, 140.513 184.598 C 134.195 196.094, 129.020 205.838, 129.013 206.250 C 129.006 206.662, 131.697 207, 134.994 207 L 140.989 207 149.500 190 C 154.181 180.650, 158.231 173, 158.500 173 C 158.769 173, 162.819 180.650, 167.500 190 L 176.011 207 182.579 207 L 189.147 207 186.191 201.750 C 184.565 198.863, 179.087 188.902, 174.017 179.617 C 165.855 164.665, 164.926 162.457, 165.900 160.319 C 166.505 158.991, 171.500 149.781, 177 139.852 C 182.500 129.923, 187 121.619, 187 121.399 C 187 121.180, 184.176 121, 180.723 121 L 174.447 121 166.973 136.087 C 162.863 144.384, 159.171 151.380, 158.769 151.634 C 158.367 151.887, 154.549 145.098, 150.284 136.547 L 142.530 121 136.170 121 L 129.809 121 132.751 126.250 M 213.875 131.439 C 208.660 134.982, 206.619 139.923, 206.183 150.051 C 205.741 160.339, 207.073 165.875, 211.092 170.452 C 214.704 174.566, 219.715 176.405, 225.527 175.750 C 234.522 174.736, 239.882 167.380, 240.781 154.815 C 241.605 143.303, 237.886 134.061, 230.998 130.499 C 226.363 128.102, 218.119 128.555, 213.875 131.439 M 918 135.031 C 918 135.393, 918.949 136.547, 920.109 137.595 C 922.941 140.153, 927.048 148.434, 934.603 166.821 C 938.066 175.247, 941.732 183.572, 942.750 185.321 C 945.442 189.944, 951.029 191.067, 969.793 190.755 L 985.085 190.500 982.555 187.073 C 981.163 185.187, 977.088 176.153, 973.499 166.997 C 963.367 141.149, 959.010 135.813, 947.630 135.307 C 930.775 134.559, 918 134.440, 918 135.031 M 615.621 157.250 C 615.934 159.037, 617.611 163.374, 619.346 166.887 C 622.848 173.977, 625.821 176.442, 635.734 180.470 L 641.960 183 766.730 183.003 C 893.724 183.006, 896.209 183.067, 911.750 186.536 C 914.788 187.214, 914.712 184.797, 911.474 177.724 C 907.872 169.855, 899.033 161.967, 891.273 159.695 C 888.647 158.926, 847.371 158.425, 755.500 158.045 C 632.542 157.537, 623.245 157.380, 619.782 155.750 C 614.935 153.469, 614.955 153.461, 615.621 157.250 M 364.751 161.689 C 362.738 162.215, 361.531 165.946, 362.443 168.820 C 363.893 173.388, 372 171.448, 372 166.534 C 372 164.442, 368.625 160.765, 367.027 161.116 C 366.737 161.180, 365.713 161.438, 364.751 161.689 M 393.219 162.559 C 390.278 164.619, 390.346 168.526, 393.359 170.500 C 397.012 172.893, 400.969 170.813, 400.969 166.500 C 400.969 162.146, 396.821 160.036, 393.219 162.559 M 401.248 182.673 C 400.560 182.945, 399.712 184.951, 399.363 187.131 L 398.729 191.094 396.615 189.164 C 392.520 185.426, 387.663 183.654, 381.500 183.647 C 371.945 183.637, 365.931 187.990, 363.382 196.759 C 359.293 210.824, 368.119 223, 382.403 223 C 387.984 223, 391.717 221.619, 395.250 218.249 L 398 215.626 397.991 218.563 C 397.975 224.322, 395.973 244.591, 394.900 249.869 C 393.416 257.168, 394.478 263.871, 397.283 264.909 C 400.348 266.043, 403.019 265.079, 404.006 262.484 C 404.888 260.164, 407.704 184.339, 406.934 183.641 C 406.015 182.810, 402.442 182.201, 401.248 182.673 M 377.673 191.940 C 374.203 195.781, 371 203.832, 371 208.714 C 371 212.274, 373.581 217.705, 375.850 218.920 C 376.960 219.514, 379.862 220, 382.298 220 C 385.719 220, 387.311 219.416, 389.292 217.436 C 392.699 214.029, 395 206.958, 395 199.899 C 395 195.177, 394.539 193.605, 392.411 191.077 C 390.260 188.521, 389.096 188, 385.527 188 C 381.797 188, 380.765 188.517, 377.673 191.940" stroke="none" fill="" fill-rule="evenodd"/></symbol></svg>