<svg xmlns="http://www.w3.org/2000/svg"><symbol viewBox="0 0 692 337" id="amartiria_pa_ws_ke"><path d="M 533.183 47.845 C 522.516 51.643, 517.474 59.688, 518.159 71.817 C 518.721 81.748, 522.359 87.433, 530.755 91.500 L 536.949 94.500 536.975 106.667 C 536.992 114.778, 536.627 118.958, 535.880 119.207 C 535.264 119.412, 525.369 129.012, 513.891 140.540 L 493.022 161.500 493.011 140.200 L 493 118.900 487.250 119.200 L 481.500 119.500 481.239 162.250 L 480.979 205 486.989 205 L 493 205 493 190.221 L 493 175.442 499.277 169.221 C 502.729 165.800, 505.836 163, 506.181 163 C 506.525 163, 513.488 172.444, 521.654 183.987 L 536.500 204.974 543.750 204.987 C 547.737 204.994, 551 204.782, 551 204.515 C 551 204.248, 542.693 192.885, 532.540 179.265 L 514.081 154.500 532.290 136.801 C 549.776 119.805, 550.371 119.100, 547.250 119.051 L 544 119 544 106.579 L 544 94.159 547.250 93.457 C 555.011 91.782, 561.634 86.515, 564.447 79.782 C 566.358 75.207, 566.467 65.050, 564.652 60.718 C 559.867 49.301, 545.547 43.444, 533.183 47.845 M 533.367 58.918 C 528.711 61.757, 527 64.808, 527 70.272 C 527 79.691, 531.573 84, 541.568 84 C 546.818 84, 547.521 83.714, 551.118 80.118 C 554.571 76.664, 554.998 75.698, 554.985 71.368 C 554.967 65.333, 553.447 62.218, 549.088 59.280 C 544.795 56.387, 537.782 56.226, 533.367 58.918 M 405.635 111.250 C 404.348 114.138, 398.053 128.024, 391.647 142.109 C 385.241 156.194, 380 168.007, 380 168.359 C 380 168.712, 393.748 169, 410.551 169 L 441.102 169 438.432 165.500 L 435.763 162 416.381 162 C 405.722 162, 397 161.806, 397 161.568 C 397 161.330, 402.400 149.094, 409 134.376 C 415.600 119.658, 421 107.252, 421 106.808 C 421 106.363, 418.069 106, 414.487 106 L 407.975 106 405.635 111.250 M 57.406 123.250 C 57.696 125.588, 58.212 130.988, 58.552 135.250 L 59.171 143 63.040 143 C 67.493 143, 67.446 143.130, 68.551 127.750 L 69.180 119 63.028 119 L 56.877 119 57.406 123.250 M 78 162 L 78 205 83.500 205 L 89 205 89 185 L 89 165 111.500 165 L 134 165 134 185 L 134 205 139.500 205 L 145 205 145 162 L 145 119 139.500 119 L 134 119 134 136.500 L 134 154 111.500 154 L 89 154 89 136.500 L 89 119 83.500 119 L 78 119 78 162 M 245.203 142.181 C 238.649 143.191, 235.069 144.998, 230.429 149.638 C 224.974 155.093, 222.836 160.951, 222.268 172 C 221.716 182.753, 223.561 189.936, 228.560 196.489 C 234.309 204.027, 245.875 207.879, 256.730 205.873 C 263.950 204.538, 266.611 203.154, 271.658 198.107 C 282.464 187.300, 282.749 161.256, 272.180 150.374 C 265.605 143.603, 255.631 140.574, 245.203 142.181 M 313.203 142.143 C 297.315 144.704, 288.974 155.714, 288.906 174.217 C 288.846 190.324, 297.754 200.665, 314.500 203.931 C 317.800 204.575, 322.729 205.542, 325.454 206.080 C 331.616 207.298, 334 209.367, 334 213.500 C 334 217.573, 331.321 220.013, 326.078 220.716 C 322.013 221.262, 322 221.278, 322 225.632 C 322 229.860, 322.100 230, 325.134 230 C 337.395 230, 346.469 220.280, 344.061 209.727 C 342.189 201.524, 336.856 197.869, 324 195.978 C 313.783 194.475, 310.403 193.292, 306.479 189.848 C 301.661 185.617, 299.620 179.556, 300.216 171.253 C 300.760 163.670, 303.488 157.334, 307.603 154.098 C 315.860 147.602, 330.211 150.049, 332.974 158.423 C 334.136 161.941, 334.245 162, 339.578 162 C 344.083 162, 344.996 161.704, 344.978 160.250 C 344.943 157.469, 341.485 150.703, 338.869 148.299 C 333.207 143.093, 322.797 140.597, 313.203 142.143 M 576.180 142.035 C 569.527 142.990, 562.300 147.394, 559.856 151.984 C 558.835 153.901, 558 157.465, 558 159.906 C 558 163.843, 558.495 164.817, 562.391 168.550 L 566.783 172.758 562.424 176.402 C 551.710 185.358, 555.683 199.711, 570.228 204.595 C 577.952 207.189, 590.011 206.929, 596.742 204.024 C 601.532 201.956, 609 195.288, 609 193.079 C 609 192.575, 609.273 191.452, 609.607 190.582 C 610.119 189.248, 609.275 189, 604.224 189 C 599.126 189, 598.157 189.290, 597.723 190.950 C 596.490 195.667, 584.914 199.131, 577.266 197.072 C 570.801 195.331, 568 192.543, 568 187.850 C 568 184.791, 568.666 183.181, 570.821 181.025 C 573.237 178.609, 574.744 178.101, 581.321 177.485 L 589 176.765 589 172.883 C 589 169.067, 588.935 169, 585.250 168.976 C 579.656 168.941, 573.930 167.375, 571.873 165.318 C 566.502 159.947, 570.158 151.699, 578.462 150.453 C 585.118 149.455, 590.965 150.811, 594.275 154.121 C 596.730 156.576, 597.943 157, 602.507 157 L 607.860 157 606.954 153.840 C 604.425 145.020, 591.072 139.898, 576.180 142.035 M 158 143.350 C 158 143.542, 162.950 152.754, 169 163.820 C 175.050 174.887, 180 184.149, 180 184.403 C 180 184.657, 175.343 193.333, 169.652 203.682 C 163.961 214.032, 158.549 223.963, 157.626 225.750 L 155.949 229 162.238 229 L 168.527 229 177.384 211.252 L 186.241 193.503 195.126 211.252 L 204.011 229 210.112 229 C 215.361 229, 216.126 228.770, 215.583 227.357 C 215.237 226.453, 209.847 216.364, 203.605 204.936 L 192.258 184.158 200.683 168.829 C 205.317 160.398, 210.437 151.137, 212.062 148.250 L 215.017 143 208.515 143 L 202.012 143 194.126 158.748 L 186.239 174.496 178.385 158.748 L 170.530 143 164.265 143 C 160.819 143, 158 143.157, 158 143.350 M 245.619 150.983 C 241.833 152.184, 238.302 155.565, 235.680 160.500 C 232.776 165.965, 232.602 181.703, 235.388 187 C 241.133 197.926, 251.979 201.022, 260.869 194.274 C 266.074 190.323, 268.223 184.352, 268.190 173.937 C 268.157 163.482, 266.026 157.647, 260.778 153.644 C 256.932 150.711, 250.202 149.529, 245.619 150.983 M 392.239 183.666 C 389.948 184.589, 388.931 187.688, 389.998 190.495 C 390.866 192.779, 391.485 193.081, 394.748 192.810 C 398.225 192.523, 398.524 192.247, 398.829 189.044 C 399.264 184.463, 396.289 182.034, 392.239 183.666 M 420.750 184.080 C 418.620 185.321, 418.424 190.277, 420.440 191.950 C 424.995 195.731, 431.481 189.399, 427.527 185.030 C 425.513 182.805, 423.439 182.514, 420.750 184.080 M 427.667 204.667 C 427.300 205.033, 427 207.137, 427 209.341 L 427 213.349 424.750 211.291 C 420.432 207.343, 415.737 205.646, 408.928 205.572 C 396.755 205.439, 390.500 212.257, 390.500 225.657 C 390.500 232.136, 390.790 233.179, 393.558 236.657 C 400.660 245.582, 412.538 247.530, 421.468 241.236 L 425.915 238.101 425.387 244.800 C 425.097 248.485, 424.394 255.550, 423.825 260.500 C 421.167 283.618, 421.561 287, 426.913 287 C 428.476 287, 430.294 286.351, 430.952 285.557 C 432.362 283.859, 433.763 257.509, 434.084 226.652 C 434.260 209.694, 434.039 205.638, 432.900 204.917 C 431.234 203.862, 428.598 203.736, 427.667 204.667 M 409.309 210.444 C 403.333 213.085, 398.433 223.743, 399.256 232.308 C 399.898 238.993, 403.125 242, 409.655 242 C 413.449 242, 414.677 241.487, 417.103 238.890 C 420.816 234.915, 423.375 226.252, 422.751 219.765 C 421.973 211.668, 415.965 207.501, 409.309 210.444" stroke="none" fill="" fill-rule="evenodd"/></symbol></svg>