<svg xmlns="http://www.w3.org/2000/svg"><symbol viewBox="0 0 1059 295" id="amartiria_pa_difonos_xromatikos_ga"><path d="M 527.863 21.659 C 522.675 22.548, 514.656 28.288, 512.019 33 C 508.606 39.097, 508.460 50.448, 511.714 56.595 C 514.404 61.676, 519.693 66.414, 524.414 67.972 L 528 69.155 528 81.578 L 528 94 496.500 94 L 465 94 465 137 L 465 180 470.500 180 L 476 180 476 142.500 L 476 105 498.500 105 L 521 105 521 142.500 L 521 180 527 180 L 533 180 533 139 C 533 103.222, 533.191 98, 534.500 98 C 535.763 98, 536 95.743, 536 83.683 L 536 69.365 541.403 67.662 C 548.552 65.409, 554.462 59.552, 556.495 52.706 C 558.287 46.670, 558.321 45.597, 556.930 39.111 C 555.617 32.986, 549.754 25.919, 544.115 23.663 C 539.780 21.928, 531.936 20.961, 527.863 21.659 M 525 33.773 C 517.457 37.860, 515.712 49.173, 521.700 55.162 C 529.337 62.798, 543.738 59.584, 545.947 49.750 C 547.118 44.536, 545.678 39.217, 542.138 35.676 C 538.211 31.750, 530.347 30.876, 525 33.773 M 755 48.444 C 749.609 50.670, 749.391 50.920, 744 61.107 L 738.500 71.500 716 72.741 C 703.625 73.424, 692.904 74.210, 692.176 74.488 C 689.840 75.380, 691.390 78.456, 694.512 79.124 C 696.155 79.476, 706.551 79.817, 717.612 79.882 L 737.725 80 738.380 85.574 C 738.740 88.640, 739.979 92.998, 741.132 95.259 C 743.512 99.924, 750.636 107, 752.952 107 C 753.800 107, 757.896 105.867, 762.055 104.482 L 769.617 101.963 775.058 91.476 L 780.500 80.989 794.445 81.244 L 808.390 81.500 808.156 87 C 807.932 92.244, 808.079 92.606, 811.315 94.779 C 815.602 97.658, 827.156 101, 832.824 101 C 835.205 101, 847.132 99.449, 859.327 97.553 C 876.398 94.900, 883.224 93.394, 888.994 91.010 C 893.115 89.306, 896.918 87.482, 897.444 86.956 C 899.379 85.021, 887.846 86.064, 862.871 90.083 C 836.080 94.395, 827.947 94.702, 819.500 91.722 C 815.958 90.473, 815.465 89.903, 815.195 86.752 C 814.953 83.924, 815.548 82.445, 818.094 79.546 C 819.987 77.389, 820.930 75.530, 820.399 75 C 819.904 74.507, 811.279 73.786, 801.231 73.399 L 782.961 72.694 782.462 70.097 C 781.357 64.347, 777.498 53.632, 775.717 51.367 C 771.215 45.644, 764.187 44.652, 755 48.444 M 756.560 55.934 C 754.180 58.563, 752.097 64.706, 752.044 69.250 L 752 73 760.937 73 L 769.874 73 769.332 69.250 C 768.442 63.101, 766.080 55.669, 764.747 54.822 C 762.502 53.397, 758.345 53.961, 756.560 55.934 M 752 85.953 C 752 96.734, 755.334 100.030, 761.868 95.706 C 764.873 93.717, 765.823 92.284, 766.731 88.367 C 767.352 85.690, 768.164 82.713, 768.537 81.750 C 769.150 80.166, 768.395 80, 760.607 80 L 752 80 752 85.953 M 377.351 112.259 L 363.202 143.500 378.663 143.776 C 387.167 143.927, 400.888 143.927, 409.155 143.776 L 424.185 143.500 422.020 140.750 L 419.855 138 399.927 138 C 388.967 138, 380 137.825, 380 137.612 C 380 137.399, 385.443 125.136, 392.095 110.362 C 398.748 95.588, 404.421 82.938, 404.702 82.250 C 405.082 81.321, 403.452 81.002, 398.357 81.009 L 391.500 81.019 377.351 112.259 M 41.488 105.197 C 41.880 111.414, 42.548 116.870, 42.973 117.323 C 43.398 117.775, 45.265 118, 47.123 117.823 C 50.414 117.508, 50.517 117.360, 51.180 112 C 51.555 108.975, 51.977 103.800, 52.119 100.500 L 52.376 94.500 46.575 94.197 L 40.774 93.893 41.488 105.197 M 61.667 94.667 C 61.300 95.033, 61 114.383, 61 137.667 L 61 180 67 180 L 73 180 73 160 L 73 140 95 140 L 117 140 117 160 L 117 180 123 180 L 129 180 129 136.950 L 129 93.900 123.250 94.200 L 117.500 94.500 117.226 111.750 L 116.953 129 94.976 129 L 73 129 73 111.500 L 73 94 67.667 94 C 64.733 94, 62.033 94.300, 61.667 94.667 M 229.217 117.210 C 214.052 119.458, 205.579 130.866, 205.607 149 C 205.623 159.701, 207.924 166.877, 213.160 172.558 C 218.535 178.389, 225.649 181.305, 234.500 181.305 C 252.515 181.305, 263.299 169.206, 263.211 149.093 C 263.169 139.452, 261.863 134.509, 257.736 128.372 C 251.862 119.635, 241.148 115.442, 229.217 117.210 M 297.305 117.110 C 285.720 118.577, 277.452 125.560, 273.976 136.814 C 268.504 154.529, 275.259 171.212, 290.161 176.787 C 293.104 177.888, 299.109 179.334, 303.506 180 C 307.903 180.665, 312.731 181.846, 314.236 182.623 C 317.224 184.167, 318.569 187.632, 317.494 191.019 C 316.742 193.390, 311.521 196, 307.532 196 C 305.198 196, 305 196.351, 305 200.500 C 305 204.911, 305.064 205, 308.250 204.994 C 313.951 204.985, 319.138 202.943, 323.281 199.079 C 326.852 195.748, 327.354 194.708, 327.710 189.911 C 328.432 180.168, 323.243 174.177, 312.188 171.991 C 292.431 168.082, 289.407 166.679, 285.889 159.783 C 283.484 155.068, 283.083 144.791, 285.050 138.229 C 286.678 132.792, 292.606 127.101, 297.871 125.918 C 305.775 124.142, 314.073 127.536, 316.597 133.578 C 317.954 136.825, 318.281 137, 323.013 137 C 328.675 137, 329.216 135.847, 326.551 129.467 C 322.739 120.343, 310.987 115.378, 297.305 117.110 M 561.230 119.115 C 551.633 123.866, 546.612 134.130, 546.612 149 C 546.612 159.869, 548.991 167.572, 554.162 173.447 C 563.705 184.288, 581.857 184.083, 589.853 173.044 L 592.680 169.142 594.391 174.571 L 596.102 180 601.340 180 L 606.577 180 603.229 166.750 C 601.387 159.463, 599.886 151.700, 599.894 149.500 C 599.907 145.983, 604.710 124.468, 606.537 119.750 C 607.132 118.213, 606.542 118, 601.687 118 L 596.161 118 594.476 123.073 L 592.791 128.146 591.176 125.823 C 586.909 119.684, 581.114 117, 572.128 117.001 C 567.396 117.001, 564.279 117.606, 561.230 119.115 M 143.349 122.250 C 150.514 134.766, 163.290 158.634, 163.288 159.500 C 163.286 160.050, 158.298 169.505, 152.203 180.512 C 146.107 191.518, 140.820 201.306, 140.453 202.262 C 139.864 203.796, 140.503 204, 145.888 204 L 151.989 204 160.874 186.252 L 169.759 168.503 178.616 186.252 L 187.473 204 193.762 204 L 200.051 204 198.591 201.176 C 197.788 199.623, 192.354 189.614, 186.515 178.934 C 177.831 163.047, 176.072 159.138, 176.844 157.444 C 177.363 156.304, 182.335 147.169, 187.894 137.142 C 193.452 127.116, 198 118.707, 198 118.456 C 198 118.205, 195.181 118, 191.735 118 L 185.470 118 177.615 133.748 L 169.761 149.496 161.874 133.748 L 153.988 118 147.452 118 L 140.916 118 143.349 122.250 M 228.741 126.429 C 223.824 128.184, 222.300 129.530, 219.682 134.433 C 216.680 140.053, 216.505 157.496, 219.391 163.306 C 225.406 175.417, 242.419 175.960, 248.827 164.245 C 251.779 158.851, 252.796 147.487, 250.999 139.995 C 249.438 133.491, 244.326 127.463, 239.152 126.025 C 234.521 124.739, 233.350 124.785, 228.741 126.429 M 569.604 126.038 C 562.285 128.229, 558 136.707, 558 149 C 558 158.161, 560.164 164.798, 564.530 169.027 C 567.720 172.117, 568.695 172.495, 573.371 172.451 C 583.698 172.354, 589.063 165.343, 589.787 151 C 590.027 146.250, 589.709 140.619, 589.066 138.237 C 587.564 132.670, 582.779 127.311, 578.168 126.030 C 573.963 124.862, 573.534 124.862, 569.604 126.038 M 945 131.711 C 945 132.250, 945.971 133.547, 947.158 134.595 C 949.567 136.721, 956.817 151.578, 962.446 165.925 C 968.022 180.138, 970.704 184.927, 973.786 186.181 C 975.279 186.788, 984.581 187.503, 994.458 187.771 L 1012.415 188.258 1010.712 185.879 C 1007.622 181.561, 1006.187 178.497, 999.990 162.975 C 991.544 141.821, 987.623 135.684, 980.941 133.161 C 977.288 131.782, 945 130.479, 945 131.711 M 642.472 154.703 C 643.213 158.652, 646.035 164.760, 649.184 169.230 C 650.247 170.738, 654.553 173.648, 658.804 175.730 L 666.500 179.500 796.500 180.079 C 907.464 180.572, 927.562 180.880, 933.750 182.179 C 940.796 183.658, 941 183.646, 941 181.747 C 941 180.672, 939.414 176.802, 937.476 173.146 C 932.848 164.420, 924.360 157.826, 915.583 156.138 C 911.358 155.325, 873.183 154.991, 782.083 154.967 C 658.542 154.936, 654.326 154.873, 649 153 C 641.695 150.430, 641.672 150.436, 642.472 154.703 M 374.571 159.571 C 372.706 161.436, 372.517 165.117, 374.200 166.800 C 374.860 167.460, 376.570 168, 378 168 C 379.430 168, 381.140 167.460, 381.800 166.800 C 384.628 163.972, 382.049 158, 378 158 C 376.979 158, 375.436 158.707, 374.571 159.571 M 403.655 159.829 C 401.711 161.977, 401.507 165.107, 403.200 166.800 C 404.976 168.576, 410.667 168.311, 411.393 166.418 C 413.819 160.096, 407.942 155.092, 403.655 159.829 M 410.560 183.447 L 409.893 187.893 407.859 185.859 C 401.480 179.480, 387.613 178.584, 380.603 184.098 C 374.116 189.201, 371.705 201.659, 375.650 209.694 C 380.864 220.315, 396.692 223.179, 406.159 215.213 L 409.266 212.598 408.546 223.549 C 408.151 229.572, 407.218 238.922, 406.475 244.328 C 405.731 249.733, 405.282 254.683, 405.478 255.328 C 405.673 255.972, 406.104 257.738, 406.436 259.250 C 406.915 261.437, 407.597 261.997, 409.769 261.985 C 411.271 261.976, 413.149 261.559, 413.943 261.057 C 415.737 259.921, 416.557 248.213, 417.580 209.158 C 418.377 178.718, 418.423 179.052, 413.364 179.015 C 411.598 179.003, 411.111 179.773, 410.560 183.447 M 394 184.706 C 388.219 186.819, 382.692 196.924, 382.677 205.406 C 382.668 210.788, 382.949 211.566, 385.849 214.156 C 390.184 218.029, 396.574 218.153, 400.292 214.436 C 405.403 209.324, 407.774 195.330, 404.575 189.145 C 402.538 185.207, 397.927 183.271, 394 184.706" stroke="none" fill="" fill-rule="evenodd"/></symbol></svg>