<svg xmlns="http://www.w3.org/2000/svg"><symbol viewBox="0 0 164 107" id="aples_4"><path d="M 30.030 42.279 C 26.736 43.946, 23 49.644, 23 53 C 23 56.334, 26.712 62.023, 30.030 63.775 C 36.799 67.347, 47 61.122, 47 53.419 C 47 44.366, 37.818 38.339, 30.030 42.279 M 59.314 42.950 C 55.233 45.439, 54 47.819, 54 53.212 C 54 58.178, 55.857 61.357, 60.011 63.506 C 68.196 67.738, 77 62.169, 77 52.758 C 77 47.821, 75.137 44.639, 70.989 42.494 C 67.071 40.468, 63.132 40.622, 59.314 42.950 M 89.873 42.625 C 82.097 47.624, 82.186 58.725, 90.040 63.364 C 98.704 68.483, 110.004 59.631, 107.115 49.988 C 106.520 48.004, 104.929 45.343, 103.579 44.074 C 100.345 41.036, 93.474 40.310, 89.873 42.625 M 121.030 42.279 C 117.736 43.946, 114 49.644, 114 53 C 114 56.334, 117.712 62.023, 121.030 63.775 C 127.577 67.230, 136.647 62.051, 137.692 54.260 C 138.927 45.049, 129.275 38.108, 121.030 42.279" stroke="none" fill="" fill-rule="evenodd"/></symbol></svg>