<svg xmlns="http://www.w3.org/2000/svg"><symbol viewBox="0 0 139 108" id="aples_5"><path d="M 33.030 33.279 C 29.736 34.946, 26 40.644, 26 44 C 26 47.334, 29.712 53.023, 33.030 54.775 C 39.799 58.347, 50 52.122, 50 44.419 C 50 35.366, 40.818 29.339, 33.030 33.279 M 62.314 33.950 C 58.233 36.439, 57 38.819, 57 44.212 C 57 49.178, 58.857 52.357, 63.011 54.506 C 71.196 58.738, 80 53.169, 80 43.758 C 80 38.821, 78.137 35.639, 73.989 33.494 C 70.071 31.468, 66.132 31.622, 62.314 33.950 M 92.873 33.625 C 85.097 38.624, 85.186 49.725, 93.040 54.364 C 101.704 59.483, 113.004 50.631, 110.115 40.988 C 109.520 39.004, 107.929 36.343, 106.579 35.074 C 103.345 32.036, 96.474 31.310, 92.873 33.625 M 45.115 65.039 C 39.838 70.316, 40.048 77.360, 45.636 82.538 C 49.568 86.183, 56.827 86.020, 61.113 82.191 C 63.665 79.910, 64.350 78.409, 64.753 74.215 C 65.221 69.350, 65.045 68.845, 61.725 65.525 C 58.627 62.427, 57.591 62, 53.177 62 C 48.915 62, 47.693 62.460, 45.115 65.039 M 74.400 65.400 C 71.498 68.302, 71 69.488, 71 73.500 C 71 77.512, 71.498 78.698, 74.400 81.600 C 77.302 84.502, 78.488 85, 82.500 85 C 86.512 85, 87.698 84.502, 90.600 81.600 C 93.502 78.698, 94 77.512, 94 73.500 C 94 69.488, 93.502 68.302, 90.600 65.400 C 87.698 62.498, 86.512 62, 82.500 62 C 78.488 62, 77.302 62.498, 74.400 65.400" stroke="none" fill="" fill-rule="evenodd"/></symbol></svg>