<svg xmlns="http://www.w3.org/2000/svg"><symbol viewBox="0 0 145 114" id="aples_6"><path d="M 37.030 28.279 C 32.741 30.450, 29.752 35.919, 30.352 40.499 C 31.103 46.229, 36.443 51, 42.103 51 C 45.570 51, 46.861 50.375, 50.118 47.118 C 53.233 44.002, 54 42.502, 54 39.522 C 54 30.510, 44.742 24.377, 37.030 28.279 M 66.314 28.950 C 62.233 31.439, 61 33.819, 61 39.212 C 61 44.178, 62.857 47.357, 67.011 49.506 C 75.091 53.684, 84 48.175, 84 39 C 84 29.446, 74.424 24.005, 66.314 28.950 M 97.449 28.498 C 93.689 30.419, 91 34.780, 91 38.954 C 91 52.620, 109.748 55.385, 114.049 42.353 C 117.211 32.770, 106.532 23.856, 97.449 28.498 M 38.643 63.029 C 32.213 64.954, 28.784 71.786, 30.952 78.355 C 32.584 83.301, 36.655 86, 42.481 86 C 50.145 86, 55.081 79.573, 53.576 71.554 C 52.926 68.087, 48.126 63, 45.505 63 C 44.767 63, 43.564 62.814, 42.832 62.587 C 42.099 62.359, 40.214 62.558, 38.643 63.029 M 69.333 63.171 C 64.454 64.470, 61 69.239, 61 74.677 C 61 78.488, 61.536 79.736, 64.400 82.600 C 67.302 85.502, 68.488 86, 72.500 86 C 76.512 86, 77.698 85.502, 80.600 82.600 C 83.478 79.722, 84 78.496, 84 74.616 C 84 66.763, 76.837 61.174, 69.333 63.171 M 99.619 63.059 C 95.505 64.256, 92.131 67.786, 91.405 71.653 C 89.208 83.366, 101.583 90.695, 110.434 82.924 C 114.686 79.190, 115.768 74.774, 113.664 69.739 C 111.335 64.165, 105.447 61.364, 99.619 63.059" stroke="none" fill="" fill-rule="evenodd"/></symbol></svg>