<svg xmlns="http://www.w3.org/2000/svg"><symbol viewBox="0 0 97 110" id="aples_3"><path d="M 28.030 33.279 C 24.736 34.946, 21 40.644, 21 44 C 21 47.334, 24.712 53.023, 28.030 54.775 C 34.577 58.230, 43.647 53.051, 44.692 45.260 C 45.927 36.049, 36.275 29.108, 28.030 33.279 M 59.763 33.509 C 51.836 37.973, 52.343 50.562, 60.607 54.484 C 65.043 56.589, 68.137 56.382, 72.102 53.713 C 78.410 49.469, 79.129 40.288, 73.564 35.060 C 70.455 32.139, 63.568 31.365, 59.763 33.509 M 46.886 61.777 C 43.674 62.182, 39.242 66.642, 38.144 70.575 C 36.105 77.883, 41.795 85, 49.677 85 C 53.488 85, 54.736 84.464, 57.600 81.600 C 60.478 78.722, 61 77.496, 61 73.616 C 61 66.156, 54.618 60.803, 46.886 61.777" stroke="none" fill="" fill-rule="evenodd"/></symbol></svg>