<svg xmlns="http://www.w3.org/2000/svg"><symbol viewBox="0 0 153 126" id="aples_7"><path d="M 25.030 40.279 C 20.741 42.450, 17.752 47.919, 18.352 52.499 C 19.103 58.229, 24.443 63, 30.103 63 C 33.570 63, 34.861 62.375, 38.118 59.118 C 41.233 56.002, 42 54.502, 42 51.522 C 42 42.510, 32.742 36.377, 25.030 40.279 M 54.314 40.950 C 50.233 43.439, 49 45.819, 49 51.212 C 49 56.178, 50.857 59.357, 55.011 61.506 C 63.091 65.684, 72 60.175, 72 51 C 72 41.446, 62.424 36.005, 54.314 40.950 M 85.449 40.498 C 81.689 42.419, 79 46.780, 79 50.954 C 79 64.620, 97.748 67.385, 102.049 54.353 C 105.211 44.770, 94.532 35.856, 85.449 40.498 M 116.030 40.279 C 111.741 42.450, 108.752 47.919, 109.352 52.499 C 110.096 58.176, 115.447 63, 121 63 C 126.276 63, 131.799 58.200, 132.644 52.882 C 134.124 43.565, 124.286 36.102, 116.030 40.279 M 40.643 75.029 C 36.724 76.202, 34.282 78.616, 32.959 82.624 C 31.456 87.179, 32.544 91.390, 36.157 95.003 C 38.687 97.533, 39.933 98, 44.154 98 C 48.326 98, 49.629 97.525, 52.026 95.128 C 55.404 91.750, 56.465 88.292, 55.576 83.554 C 54.926 80.087, 50.126 75, 47.505 75 C 46.767 75, 45.564 74.814, 44.832 74.587 C 44.099 74.359, 42.214 74.558, 40.643 75.029 M 71.275 75.209 C 66.461 76.456, 63 81.253, 63 86.677 C 63 90.488, 63.536 91.736, 66.400 94.600 C 69.302 97.502, 70.488 98, 74.500 98 C 78.512 98, 79.698 97.502, 82.600 94.600 C 85.474 91.726, 86 90.493, 86 86.635 C 86 78.417, 79.214 73.151, 71.275 75.209 M 101.619 75.059 C 97.505 76.256, 94.131 79.786, 93.405 83.653 C 91.208 95.366, 103.583 102.695, 112.434 94.924 C 116.686 91.190, 117.768 86.774, 115.664 81.739 C 113.335 76.165, 107.447 73.364, 101.619 75.059" stroke="none" fill="" fill-rule="evenodd"/></symbol></svg>