<svg xmlns="http://www.w3.org/2000/svg"><symbol viewBox="0 0 238 133" id="ekfrasi_antikenwma_mikro"><path d="M 64.312 40.701 C 53.216 41.061, 53.102 41.090, 50.521 44.158 C 49.089 45.859, 48.049 47.381, 48.209 47.541 C 48.369 47.700, 57.275 47.438, 68 46.958 C 99.268 45.559, 111.319 45.772, 122.502 47.921 C 144.978 52.239, 153.121 58.252, 154.973 71.897 C 156.239 81.228, 154.119 84.242, 143 88.917 C 136.311 91.729, 135 92.727, 135 95.007 C 135 100.593, 152.262 102.981, 164.679 99.113 C 172.583 96.651, 173.984 95.716, 176.870 90.982 C 179.235 87.102, 179.780 78.183, 177.947 73.361 C 176.152 68.638, 167.883 59.884, 161.039 55.459 C 152.746 50.098, 144.284 46.541, 132.116 43.302 C 123.247 40.942, 120.675 40.727, 99 40.541 C 86.075 40.429, 70.465 40.502, 64.312 40.701" stroke="none" fill="" fill-rule="evenodd"/></symbol></svg>