<svg xmlns="http://www.w3.org/2000/svg"><symbol viewBox="0 0 159 153" id="ekfrasi_piasma"><path d="M 70 52.264 C 70 53.085, 70.897 54.373, 71.994 55.128 C 73.592 56.228, 74.590 59.771, 77.026 73 C 78.697 82.075, 80.780 91.750, 81.654 94.500 C 86.093 108.458, 94.459 118.650, 106.253 124.469 C 113.890 128.238, 123.199 130.105, 124.428 128.116 C 124.812 127.495, 124.536 126.802, 123.813 126.576 C 123.091 126.351, 119.277 125.228, 115.337 124.081 C 105.983 121.357, 99.090 115.998, 95.689 108.805 C 92.201 101.427, 90.291 93.450, 87.425 74.297 C 86.067 65.215, 84.505 56.943, 83.954 55.915 C 82.606 53.395, 80.397 52.332, 74.750 51.485 C 70.888 50.906, 70 51.052, 70 52.264 M 48 54.650 C 48 55.148, 48.818 56.256, 49.818 57.112 C 51.077 58.190, 52.182 61.876, 53.408 69.085 C 56.140 85.152, 56.696 86.791, 59.987 88.493 C 63.019 90.061, 67.452 90.555, 66.781 89.250 C 64.114 84.070, 62.737 79.346, 60.983 69.363 C 59.837 62.838, 58.360 56.958, 57.700 56.296 C 56.209 54.801, 48 53.407, 48 54.650" stroke="none" fill="" fill-rule="evenodd"/></symbol></svg>