<svg xmlns="http://www.w3.org/2000/svg"><symbol viewBox="0 0 227 135" id="ekfrasi_paraklitiki"><path d="M 31.675 45.404 C 30.924 47.361, 31.979 51.151, 33.889 53.352 C 38.227 58.355, 39.219 58.481, 76.500 58.788 C 95.750 58.947, 112.099 59.284, 112.832 59.538 C 113.660 59.825, 109.025 65.390, 100.582 74.243 C 93.112 82.077, 87 89.004, 87 89.636 C 87 90.269, 87.712 91.059, 88.582 91.393 C 89.452 91.727, 110.136 92, 134.547 92 C 184.108 92, 179.992 92.630, 181.399 84.828 C 182.311 79.771, 180.827 79.255, 174.530 82.440 C 169.641 84.914, 167.837 85.185, 150.373 86.070 C 139.993 86.597, 125.875 87.133, 119 87.264 C 107.175 87.487, 106.518 87.397, 106.831 85.587 C 107.013 84.536, 112.076 78.321, 118.081 71.778 C 128.549 60.373, 130.483 57.078, 127.750 55.309 C 127.063 54.864, 109.175 54.275, 88 54 C 51.459 53.525, 49.271 53.392, 45 51.386 C 42.525 50.223, 39.409 48.086, 38.076 46.636 C 35.427 43.756, 32.522 43.197, 31.675 45.404" stroke="none" fill="" fill-rule="evenodd"/></symbol></svg>