<svg xmlns="http://www.w3.org/2000/svg"><symbol viewBox="0 0 334 142" id="ekfrasi_yfen_kato"><path d="M 27.189 54.744 C 27.568 56.712, 55.290 75.791, 67.500 82.488 C 109.983 105.787, 159.899 112.064, 207.367 100.075 C 231.824 93.899, 246.906 86.958, 271 70.794 C 287.330 59.839, 293 55.446, 293 53.752 C 293 52.552, 284.488 53.884, 278.973 55.946 C 276.482 56.877, 271.082 59.899, 266.973 62.661 C 254.104 71.309, 221.748 82.073, 193.343 87.155 C 182.297 89.132, 177.211 89.449, 157 89.423 C 130.805 89.389, 123.785 88.482, 102.688 82.410 C 86.790 77.834, 75.981 73.469, 56.722 63.844 C 37.563 54.271, 26.438 50.843, 27.189 54.744" stroke="none" fill="" fill-rule="evenodd"/></symbol></svg>