<svg xmlns="http://www.w3.org/2000/svg"><symbol viewBox="0 0 546 195" id="ekfrasi_eteron_3"><path d="M 107.500 68.727 C 105.176 69.043, 98.864 74.633, 79.500 93.526 L 54.500 117.918 65.882 117.959 C 75.415 117.993, 77.771 117.687, 80.382 116.076 C 90.323 109.941, 118.682 101.557, 140 98.450 C 164.766 94.840, 206.026 99.182, 265.500 111.655 C 291.228 117.050, 287.474 116.346, 307.153 119.471 C 336.882 124.193, 354.064 125.450, 389 125.460 C 418.583 125.468, 422.577 125.266, 433.500 123.206 C 448.888 120.303, 453.363 118.836, 465.189 112.812 C 476.612 106.994, 481.369 102.350, 482.379 96.030 C 483.312 90.197, 480.376 85.875, 473 82.223 C 468.090 79.792, 466.426 79.505, 457.500 79.548 C 441.511 79.625, 432.772 83.317, 432.192 90.240 C 431.776 95.213, 433.170 97.420, 438.299 99.903 C 443.069 102.212, 452.845 102.743, 459.007 101.027 L 462.500 100.055 458.987 103.323 C 454.200 107.778, 438.150 113.413, 422.733 116.052 C 411.592 117.959, 407.553 118.111, 377.500 117.744 C 347.920 117.384, 342.635 117.060, 326.500 114.621 C 294.326 109.756, 285.954 108.228, 254.500 101.485 C 237.450 97.830, 214.500 93.527, 203.500 91.923 C 164.324 86.210, 132.791 88.657, 97.164 100.174 C 90.379 102.367, 84.645 103.979, 84.422 103.755 C 84.198 103.531, 91.887 95.808, 101.507 86.592 C 111.128 77.376, 119 69.423, 119 68.918 C 119 68.017, 113.418 67.924, 107.500 68.727" stroke="none" fill="" fill-rule="evenodd"/></symbol></svg>