<svg xmlns="http://www.w3.org/2000/svg"><symbol viewBox="0 0 674 182" id="ekfrasi_eteron_4"><path d="M 58.451 86.750 C 48.096 97.612, 37.346 108.918, 34.562 111.873 L 29.500 117.245 45.155 116.614 C 59.580 116.032, 61.546 115.717, 70.155 112.607 C 84.070 107.580, 92.506 105.441, 113.500 101.616 C 145.613 95.764, 169.214 94.113, 194.951 95.917 C 224.681 98.001, 313.856 109.470, 339.500 114.508 C 353.035 117.166, 410.098 122.250, 446.500 124.039 C 487.112 126.036, 537.364 123.106, 559.092 117.476 C 570.125 114.617, 587.377 107.771, 593 104.019 C 599.387 99.759, 602.172 94.239, 600.434 89.288 C 599.130 85.574, 590.811 80.674, 582.786 78.894 C 569.654 75.981, 544.185 78.556, 536.533 83.570 C 530.841 87.300, 532.457 93.921, 540.009 97.816 C 544.190 99.973, 545.470 100.110, 558.579 99.807 C 571.681 99.504, 572.514 99.593, 570.579 101.092 C 566.924 103.922, 564.119 105.065, 553.697 107.965 C 527.560 115.240, 514.955 116.462, 466 116.471 C 429.444 116.478, 422.058 116.207, 404 114.200 C 348.627 108.047, 331.989 105.747, 275.643 96.458 C 253.674 92.836, 215.366 88.468, 196 87.376 C 189.675 87.020, 173.925 87.271, 161 87.935 C 134.758 89.284, 112.373 92.606, 77.750 100.291 C 66.888 102.702, 58 104.464, 58 104.206 C 58 103.948, 63.105 98.283, 69.345 91.618 C 75.585 84.953, 83.283 76.688, 86.453 73.250 L 92.215 67 84.747 67 L 77.278 67 58.451 86.750" stroke="none" fill="" fill-rule="evenodd"/></symbol></svg>