<svg xmlns="http://www.w3.org/2000/svg"><symbol viewBox="0 0 194 140" id="ekfrasi_korona_kato"><path d="M 81.021 50.068 C 65.197 54.211, 52.951 62.136, 43.750 74.190 C 33.704 87.352, 36.959 89.011, 49.418 77.079 C 65.785 61.404, 76.832 56.479, 95.500 56.533 C 104.095 56.558, 108.140 57.070, 114 58.876 C 125.206 62.328, 136.200 68.418, 141.714 74.228 C 150.860 83.864, 152.223 85, 154.637 85 C 158.733 85, 158.449 82.383, 153.618 75.614 C 144.402 62.698, 131.727 54.066, 115.971 49.974 C 105.973 47.378, 91.144 47.418, 81.021 50.068 M 94.282 66.168 C 91.716 67.451, 89.634 72.821, 90.625 75.597 C 91.951 79.314, 94.248 81, 97.981 81 C 107.638 81, 109.010 67.035, 99.500 65.532 C 97.850 65.271, 95.502 65.557, 94.282 66.168" stroke="none" fill="" fill-rule="evenodd"/></symbol></svg>