<svg xmlns="http://www.w3.org/2000/svg"><symbol viewBox="0 0 394 189" id="ekfrasi_psifiston_makri"><path d="M 285.203 78.712 C 283.940 78.954, 273.815 84.133, 262.703 90.222 C 236.951 104.334, 228.250 108.362, 215.654 112.001 C 185.546 120.701, 168.954 120.880, 128.500 112.942 C 109.223 109.160, 107.325 108.562, 76 96.413 C 42.752 83.518, 33.861 80.864, 29.871 82.644 C 27.678 83.623, 27.681 83.637, 30.584 85.701 C 33.884 88.049, 59.677 100.186, 74 106.133 C 95.484 115.051, 124.779 123.020, 149.500 126.670 C 166.838 129.230, 213.760 129.244, 230 126.694 C 258.260 122.257, 284.767 113.553, 300.431 103.567 C 317.566 92.644, 334.281 85.068, 344 83.821 C 345.885 83.579, 346.578 82.823, 346.816 80.750 L 347.133 78 317.316 78.136 C 300.917 78.211, 286.466 78.470, 285.203 78.712" stroke="none" fill="" fill-rule="evenodd"/></symbol></svg>