<svg xmlns="http://www.w3.org/2000/svg"><symbol viewBox="0 0 279 129" id="ekfrasi_omalon_3"><path d="M 192.805 39.250 C 192.021 40.487, 188.932 45.887, 185.940 51.250 L 180.500 60.999 100.818 61 L 21.136 61 19.004 63.994 L 16.872 66.988 96.850 67.244 L 176.828 67.500 169.914 79.868 C 166.111 86.671, 163 92.424, 163 92.653 C 163 92.882, 167.584 92.942, 173.186 92.785 L 183.373 92.500 190.037 80 L 196.701 67.500 202.477 67.196 L 208.253 66.893 205.774 71.196 C 204.410 73.563, 201.167 79.438, 198.566 84.250 L 193.838 93 204.169 92.976 L 214.500 92.953 228.500 66.385 C 236.200 51.772, 242.645 39.183, 242.823 38.408 C 243.083 37.278, 241.377 37, 234.175 37 L 225.203 37 218.277 48.750 L 211.351 60.500 206.175 60.802 C 203.329 60.969, 201 60.704, 201 60.214 C 201 59.724, 203.465 54.638, 206.479 48.911 C 209.492 43.185, 211.967 38.163, 211.979 37.750 C 211.990 37.337, 208.002 37, 203.115 37 C 194.990 37, 194.108 37.192, 192.805 39.250" stroke="none" fill="" fill-rule="evenodd"/></symbol></svg>