<svg xmlns="http://www.w3.org/2000/svg"><symbol viewBox="0 0 382 183" id="ekfrasi_antikenwma"><path d="M 149.500 66.611 C 87.219 68.455, 63.982 70.468, 61.626 74.222 C 59.519 77.580, 61.963 77.888, 79.500 76.477 C 98.942 74.912, 158.986 72.992, 188.330 72.997 C 215.716 73.001, 234.608 75.525, 249.866 81.217 C 261.808 85.672, 267.604 91.807, 268.901 101.369 C 270.288 111.587, 267.131 115.003, 252 119.658 C 239.377 123.541, 237.026 126.850, 244.199 130.640 C 248.990 133.171, 269.721 133.728, 280.737 131.622 C 297.106 128.492, 302.782 123.484, 303.100 111.891 C 303.302 104.579, 302.367 102.193, 297.132 96.663 C 285.752 84.642, 263.269 75.047, 233 69.295 C 220.616 66.942, 217.021 66.713, 189.500 66.522 C 173 66.408, 155 66.448, 149.500 66.611" stroke="none" fill="" fill-rule="evenodd"/></symbol></svg>