<svg xmlns="http://www.w3.org/2000/svg"><symbol viewBox="0 0 149 131" id="ekfrasi_klazma_pano"><path d="M 83.250 53.652 C 81.396 54.416, 81.733 57.391, 84 60.273 C 86.621 63.605, 86.526 66.277, 83.669 69.598 C 81.777 71.797, 80.268 72.396, 75.647 72.779 C 68.678 73.357, 62.508 71.293, 45.792 62.792 C 32.918 56.244, 29.270 55.548, 33.065 60.361 C 36.498 64.717, 49.211 73.728, 57.288 77.530 C 65.366 81.333, 73.788 82.981, 85.201 82.992 C 94.791 83.002, 102.118 81.481, 105.571 78.765 C 107.948 76.895, 108.175 76.170, 107.752 71.776 C 107.370 67.797, 106.576 66.150, 103.539 63.040 C 97.614 56.972, 87.052 52.085, 83.250 53.652" stroke="none" fill="" fill-rule="evenodd"/></symbol></svg>