<svg xmlns="http://www.w3.org/2000/svg"><symbol viewBox="0 0 164 178" id="ekfrasi_tromikon"><path d="M 52.589 49.052 C 46.974 50.464, 42.096 53.771, 41.371 56.656 C 40.020 62.041, 43.880 65.691, 63.966 78.022 C 82.291 89.272, 98.556 103.481, 101.987 111.237 C 105.814 119.890, 105.796 129.204, 101.944 133.056 C 100.695 134.305, 98.630 135, 96.167 135 C 91.621 135, 90.741 135.647, 92.024 138.044 C 93.497 140.797, 101.242 143.365, 105.603 142.547 C 110.638 141.602, 113.228 139.718, 115.811 135.123 C 119.579 128.418, 118.281 121.465, 111.364 111.297 C 102.879 98.825, 92.392 90.193, 63.519 71.919 C 50.459 63.652, 47.862 60.245, 51.862 56.625 C 54.704 54.053, 59.690 52.937, 68.596 52.880 C 79.416 52.810, 84.183 54.401, 90.528 60.200 C 93.417 62.840, 96.247 65, 96.818 65 C 98.749 65, 102.101 59.657, 101.798 57.062 C 101.458 54.155, 99.207 52.845, 90.441 50.453 C 83.368 48.522, 58.376 47.597, 52.589 49.052" stroke="none" fill="" fill-rule="evenodd"/></symbol></svg>