<svg xmlns="http://www.w3.org/2000/svg"><symbol viewBox="0 0 388 175" id="ekfrasi_eteron_2"><path d="M 86.450 65.882 C 84.079 66.362, 78.456 71.883, 61.200 90.673 C 48.990 103.968, 39 115.165, 39 115.557 C 39 116.956, 52.940 115.285, 55.231 113.611 C 67.155 104.895, 82.066 98.184, 95.835 95.334 C 112.301 91.927, 141.672 96.420, 181 108.362 C 188.975 110.784, 200.450 113.902, 206.500 115.292 C 243.299 123.743, 283.966 123.152, 302.179 113.901 C 308.169 110.858, 317.843 102.228, 319.997 98.006 C 322.633 92.839, 322.624 85.535, 319.976 81.192 C 314.704 72.545, 299.111 71.689, 291.187 79.613 C 288.144 82.656, 287.851 83.417, 288.442 86.760 C 289.880 94.887, 295.234 98.166, 304.101 96.350 L 308.987 95.349 306.625 98.425 C 303.174 102.919, 292.925 108.461, 283.095 111.150 C 275.338 113.271, 272.500 113.495, 254 113.454 C 234.797 113.411, 232.534 113.203, 218.234 110.171 C 198.120 105.907, 188.052 103.226, 167.062 96.541 C 157.471 93.487, 143.521 89.805, 136.062 88.359 C 112.974 83.882, 90.661 85.909, 73.750 94.020 C 71.688 95.009, 70 95.580, 70 95.289 C 70 94.998, 75.041 89.301, 81.201 82.630 C 87.362 75.958, 93.521 69.263, 94.888 67.750 L 97.374 65 93.437 65.132 C 91.272 65.204, 88.127 65.542, 86.450 65.882" stroke="none" fill="" fill-rule="evenodd"/></symbol></svg>