<svg xmlns="http://www.w3.org/2000/svg"><symbol viewBox="0 0 248 108" id="ekfrasi_ligisma"><path d="M 51.734 37.041 C 34.636 41.285, 28.403 55.608, 37.716 69.254 C 40.185 72.872, 45.571 77, 47.823 77 C 48.458 77, 47.837 74.194, 46.329 70.250 C 41.699 58.144, 43.069 49.010, 50.325 43.605 C 54.076 40.810, 61.951 40.826, 65.713 43.635 C 74.527 50.216, 75.295 60.791, 67.759 71.820 C 66.136 74.196, 64.980 76.313, 65.191 76.524 C 65.402 76.735, 95.563 75.252, 132.217 73.228 C 190.911 69.986, 199.434 69.710, 203.679 70.912 C 212.861 73.511, 214 73.505, 213.996 70.863 C 213.987 64.824, 205.942 58.358, 197.233 57.390 C 195.180 57.162, 166.950 60.272, 134.500 64.302 C 102.050 68.332, 75.374 71.549, 75.221 71.452 C 75.067 71.354, 76.298 69.822, 77.956 68.047 C 86.713 58.672, 82.890 44.640, 70.077 39.129 C 64.348 36.664, 56.741 35.798, 51.734 37.041" stroke="none" fill="" fill-rule="evenodd"/></symbol></svg>