<svg xmlns="http://www.w3.org/2000/svg"><symbol viewBox="0 0 362 129" id="ekfrasi_yfen_ano"><path d="M 161.302 34.069 C 139.775 35.725, 112.401 43.307, 92.838 53.032 C 78.070 60.374, 44 82.759, 44 85.120 C 44 86.624, 50.434 86.088, 56.093 84.112 C 59.067 83.074, 69.276 78.387, 78.779 73.696 C 88.283 69.006, 99.935 63.765, 104.673 62.051 C 116.860 57.641, 137.918 52.377, 148.500 51.096 C 161.435 49.529, 188.957 49.749, 202.699 51.528 C 230.870 55.177, 268.248 66.930, 284.707 77.315 C 289.680 80.453, 295.942 83.686, 298.624 84.499 C 304.051 86.145, 310 86.471, 310 85.122 C 310 83.078, 280.199 62.644, 266.935 55.593 C 250.701 46.962, 230.885 40.230, 211 36.589 C 203.439 35.205, 176.901 32.804, 173 33.151 C 172.175 33.225, 166.911 33.638, 161.302 34.069" stroke="none" fill="" fill-rule="evenodd"/></symbol></svg>