<svg xmlns="http://www.w3.org/2000/svg"><symbol viewBox="0 0 277 153" id="ekfrasi_psifiston_plagion"><path d="M 199.829 52.250 C 169.891 84.280, 163.064 89.891, 146.807 95.831 C 139.598 98.464, 139.165 98.499, 114.500 98.444 C 88.504 98.387, 72.407 97.024, 48.500 92.857 C 34.571 90.429, 32.554 90.338, 28.500 91.949 C 24.803 93.418, 25.253 93.706, 37.751 97.876 C 65.339 107.081, 116.388 111.651, 144.683 107.450 C 165.640 104.338, 184.662 96.819, 200.796 85.267 C 212.083 77.187, 215.715 73.643, 223.572 63.042 C 230.859 53.210, 242.326 41.666, 245.946 40.517 C 251.436 38.775, 246.705 38, 230.574 38 L 213.148 38 199.829 52.250" stroke="none" fill="" fill-rule="evenodd"/></symbol></svg>