<svg xmlns="http://www.w3.org/2000/svg"><symbol viewBox="0 0 278 155" id="ekfrasi_psifiston"><path d="M 180.823 72.163 C 157.572 90.620, 151.165 94.237, 134 98.599 C 123.060 101.379, 108.770 100.147, 90.500 94.849 C 76.358 90.748, 74.195 89.763, 52.687 77.620 C 35.779 68.074, 28.726 64.611, 25.437 64.240 C 22.971 63.962, 21 64.159, 21 64.683 C 21 66.260, 25.961 70.322, 37.500 78.192 C 62.132 94.992, 80.877 103.335, 106 108.679 C 117.981 111.228, 145.142 111.194, 157 108.615 C 178.227 103.999, 195.426 95.710, 208.639 83.726 C 218.810 74.502, 227.320 68.679, 234.203 66.234 C 238.019 64.879, 239 64.067, 239 62.265 L 239 60 217.573 60 L 196.146 60 180.823 72.163" stroke="none" fill="" fill-rule="evenodd"/></symbol></svg>