<svg xmlns="http://www.w3.org/2000/svg"><symbol viewBox="0 0 394 172" id="ekfrasi_endofono"><path d="M 168.324 49.375 C 157.725 52.853, 151.202 59.717, 147.673 71.102 C 147.291 72.336, 144.228 73.097, 134.338 74.416 C 108.346 77.882, 79.283 85.111, 61.137 92.622 C 56.528 94.530, 52.637 95.958, 52.490 95.795 C 52.342 95.633, 56.376 87.850, 61.454 78.500 C 71.359 60.261, 71.358 60.266, 63.633 61.432 L 59.500 62.056 43.500 89.575 C 34.700 104.710, 27.374 117.450, 27.220 117.885 C 27.067 118.321, 29.662 118.305, 32.987 117.850 C 38.319 117.121, 39.795 116.377, 45.490 111.545 C 53.636 104.635, 56.718 103.084, 73.156 97.619 C 95.171 90.300, 120.738 84.801, 139.421 83.364 L 147.604 82.735 148.782 86.665 C 150.527 92.493, 155.678 99.690, 160.365 102.851 C 167.101 107.394, 170.894 108.504, 179.500 108.451 C 188.614 108.395, 194.202 106.395, 200.365 100.984 C 204.322 97.510, 209 89.442, 209 86.092 C 209 83.056, 210.359 82.808, 217.706 84.506 C 233.675 88.196, 246.692 92.656, 265 100.709 C 302.289 117.112, 313.111 120.251, 325.094 118.140 C 332.859 116.772, 339.885 112.291, 344.128 106 C 346.648 102.263, 347.084 100.775, 346.702 97.227 C 345.085 82.242, 325.041 76.352, 318.527 88.949 C 315.568 94.671, 319.601 103.229, 325.907 104.608 C 327.333 104.920, 328.950 105.286, 329.500 105.422 C 330.050 105.559, 328.075 106.476, 325.112 107.461 C 314.694 110.925, 303.303 108.210, 275 95.522 C 250.168 84.389, 239.842 80.672, 225 77.523 C 218.125 76.064, 211.873 74.544, 211.107 74.144 C 210.341 73.744, 209.026 71.261, 208.185 68.625 C 206.178 62.337, 199.280 54.773, 192.550 51.481 C 185.976 48.264, 174.694 47.284, 168.324 49.375 M 173 57.661 C 165.831 60.155, 160.717 64.083, 158.230 69.007 L 155.961 73.500 177.127 73.770 C 188.768 73.919, 198.497 73.837, 198.746 73.587 C 198.995 73.338, 198.673 71.539, 198.030 69.591 C 196.465 64.847, 189.118 58.519, 183.549 57.117 C 178.153 55.758, 178.525 55.739, 173 57.661 M 157.539 85.747 C 161.600 95.468, 165.743 99.285, 173.495 100.447 C 182.977 101.869, 194.343 95.916, 198.082 87.571 C 199.789 83.761, 199.797 83.456, 198.203 82.820 C 197.266 82.446, 187.381 82.109, 176.237 82.070 L 155.973 82 157.539 85.747" stroke="none" fill="" fill-rule="evenodd"/></symbol></svg>