<svg xmlns="http://www.w3.org/2000/svg"><symbol viewBox="0 0 228 181" id="ekfrasi_strepton"><path d="M 71.500 45.424 C 69.850 46.164, 66.728 48.615, 64.562 50.869 C 62.397 53.124, 59.134 55.461, 57.312 56.062 C 53.137 57.440, 53.045 59.559, 57.125 60.375 C 63.921 61.734, 65.214 61.233, 71 55 C 76.299 49.291, 76.800 49, 81.317 49 C 87.668 49, 91.962 50.949, 97.946 56.546 C 104.433 62.614, 106.872 66.947, 111.995 81.500 C 119.232 102.058, 124.698 114.821, 128.463 119.950 C 135.931 130.123, 146.443 136.716, 159.665 139.517 C 168.403 141.369, 170.924 141.362, 171.643 139.487 C 172.468 137.337, 170.388 135.227, 164.563 132.304 C 154.164 127.086, 146.400 121.156, 141.928 115.014 C 139.502 111.682, 132.946 100.458, 127.359 90.072 C 121.773 79.686, 115.411 68.558, 113.221 65.344 C 107.145 56.424, 98.478 48.697, 91.709 46.164 C 85.104 43.693, 76.095 43.363, 71.500 45.424" stroke="none" fill="" fill-rule="evenodd"/></symbol></svg>