<svg xmlns="http://www.w3.org/2000/svg"><symbol viewBox="0 0 207 123" id="ekfrasi_korona_ano"><path d="M 96.477 44.988 C 84.258 46.784, 71.717 51.961, 62.216 59.129 C 56.813 63.206, 45 77.114, 45 79.399 C 45 83.422, 50.044 81.038, 56.149 74.129 C 62.756 66.653, 75.018 58.369, 83.363 55.745 C 89.127 53.932, 92.808 53.504, 102.500 53.522 C 116.198 53.546, 121.716 54.845, 134.795 61.121 C 141.513 64.344, 144.672 66.708, 151.408 73.550 C 159.695 81.969, 163.346 83.868, 164.660 80.445 C 166.154 76.551, 150.223 59.087, 139.858 53.256 C 126.773 45.895, 110.894 42.869, 96.477 44.988 M 100.825 63.038 C 99.904 63.576, 98.640 65.559, 98.018 67.446 C 95.290 75.712, 104.455 81.636, 110.545 75.545 C 113.986 72.104, 113.904 66.856, 110.365 64.073 C 107.560 61.866, 103.574 61.434, 100.825 63.038" stroke="none" fill="" fill-rule="evenodd"/></symbol></svg>