<svg xmlns="http://www.w3.org/2000/svg"><symbol viewBox="0 0 113 121" id="elxis_diesi_6"><path d="M 63.989 36.511 L 61.630 39.023 64.805 42.299 L 67.980 45.575 65.817 47.739 L 63.653 49.903 60.208 46.878 L 56.763 43.853 53.871 46.624 L 50.979 49.394 54.507 53.007 L 58.034 56.619 55.744 58.771 C 53.567 60.816, 53.241 60.849, 49.156 59.442 C 41.503 56.805, 32.777 60.596, 28.870 68.256 C 26.349 73.196, 26.607 82.225, 29.389 86.471 C 32.958 91.918, 45.227 95.019, 51.144 91.970 C 54.533 90.223, 58.953 85.932, 60.589 82.800 C 62.436 79.265, 62.375 73.243, 60.455 69.561 C 58.996 66.764, 59.044 66.502, 61.446 64.100 L 63.968 61.577 67.253 64.761 L 70.537 67.944 73.519 65.549 L 76.500 63.155 73.041 59.564 L 69.582 55.974 71.778 53.778 L 73.974 51.582 77.272 54.779 L 80.570 57.976 83.273 55.273 L 85.976 52.570 82.906 49.403 C 80.164 46.574, 79.977 46.010, 81.153 44.126 C 82.322 42.254, 82.166 41.712, 79.773 39.319 C 77.226 36.771, 76.972 36.715, 75.218 38.303 C 73.460 39.893, 73.204 39.822, 70.493 36.992 C 68.916 35.347, 67.338 34, 66.987 34 C 66.636 34, 65.287 35.130, 63.989 36.511 M 37.687 69.805 C 33.982 73.672, 34.070 78.224, 37.923 82.077 C 39.918 84.072, 41.848 85, 44 85 C 46.152 85, 48.082 84.072, 50.077 82.077 C 53.803 78.350, 53.918 74.244, 50.411 70.077 C 46.884 65.885, 41.552 65.771, 37.687 69.805" stroke="none" fill="" fill-rule="evenodd"/></symbol></svg>