<svg xmlns="http://www.w3.org/2000/svg"><symbol viewBox="0 0 155 141" id="elxis_yfesi_6"><path d="M 81.871 46.006 C 73.745 50.300, 69.849 58.630, 72.444 66.163 C 73.897 70.379, 73.873 70.523, 71.269 73.241 L 68.611 76.015 65.317 72.823 L 62.023 69.630 59.494 72.005 L 56.966 74.381 60.476 77.975 L 63.986 81.570 61.780 83.775 L 59.575 85.980 56.299 82.805 L 53.023 79.630 50.497 82.003 L 47.972 84.375 51.161 87.666 C 54.297 90.901, 54.319 90.990, 52.484 93.018 C 50.649 95.045, 50.671 95.132, 53.769 98.231 C 56.865 101.327, 56.956 101.349, 58.977 99.520 C 60.996 97.694, 61.090 97.712, 64.010 100.510 L 66.987 103.361 69.508 100.993 L 72.028 98.625 69.083 95.562 C 66.153 92.516, 66.148 92.488, 68.039 90.176 L 69.940 87.852 73.532 90.592 L 77.123 93.331 79.689 90.766 L 82.254 88.200 79.464 84.541 L 76.673 80.883 78.794 78.761 C 80.623 76.933, 81.272 76.803, 83.505 77.820 C 92.494 81.916, 104.941 74.298, 106.671 63.642 C 107.427 58.983, 105.400 51.724, 102.611 49.105 C 99.913 46.570, 92.770 43.986, 88.624 44.044 C 86.906 44.069, 83.867 44.951, 81.871 46.006 M 83.636 54.636 C 78.056 60.217, 81.703 69.400, 89.500 69.400 C 97.297 69.400, 100.944 60.217, 95.364 54.636 C 93.604 52.877, 91.654 52, 89.500 52 C 87.346 52, 85.396 52.877, 83.636 54.636" stroke="none" fill="" fill-rule="evenodd"/></symbol></svg>