<svg xmlns="http://www.w3.org/2000/svg"><symbol viewBox="0 0 99 103" id="elxis_diesi_2"><path d="M 58.406 36.494 C 53.519 42.733, 52.198 43.863, 50.518 43.244 C 49.408 42.835, 45.720 42.500, 42.321 42.500 C 32.483 42.500, 26.931 47.803, 26.201 57.898 C 25.661 65.368, 28.505 71.040, 34.577 74.598 C 39.068 77.230, 46.507 77.835, 50.316 75.878 C 53.545 74.219, 57.983 69.874, 59.589 66.800 C 61.442 63.253, 61.388 55.652, 59.484 51.970 L 57.969 49.039 65.172 41.456 L 72.374 33.874 69.437 31.473 C 67.822 30.152, 66 29.056, 65.388 29.036 C 64.776 29.016, 61.634 32.372, 58.406 36.494 M 37.455 53.455 C 33.969 56.940, 34.191 61.345, 38.046 65.200 C 40.680 67.834, 41.594 68.166, 44.796 67.654 C 51.881 66.520, 54.183 59.748, 49.411 54.077 C 46.065 50.101, 41.069 49.841, 37.455 53.455" stroke="none" fill="" fill-rule="evenodd"/></symbol></svg>