<svg xmlns="http://www.w3.org/2000/svg"><symbol viewBox="0 0 124 98" id="elxis_yfesi_2"><path d="M 57.459 25.880 C 47.889 30.226, 44.405 40.594, 49.338 50.042 C 50.600 52.459, 50.333 52.971, 43.874 60.503 L 37.082 68.422 40.291 71.144 L 43.500 73.865 50.311 66.454 L 57.122 59.043 62.811 59.571 C 67.549 60.010, 69.153 59.714, 72.405 57.799 C 86.244 49.651, 86.512 32.893, 72.914 25.956 C 68.138 23.520, 62.713 23.493, 57.459 25.880 M 60.040 34.806 C 56.048 38.798, 55.893 43.620, 59.636 47.364 C 65.245 52.972, 74 49.227, 74 41.220 C 74 36.659, 71.109 33.372, 66.242 32.398 C 63.600 31.870, 62.581 32.265, 60.040 34.806" stroke="none" fill="" fill-rule="evenodd"/></symbol></svg>