<svg xmlns="http://www.w3.org/2000/svg"><symbol viewBox="0 0 133 150" id="elxis_diesi_4"><path d="M 66.207 54.237 L 63.970 56.475 67.735 59.674 L 71.500 62.873 68.397 66.020 C 65.397 69.063, 65.158 69.128, 61.243 67.955 C 55.592 66.262, 50.602 67.462, 45.999 71.620 C 36.845 79.890, 37.002 95.342, 46.299 101.056 C 54.664 106.199, 61.848 105.415, 68.645 98.618 C 74.945 92.319, 76.197 85.426, 72.410 77.897 C 71.198 75.488, 71.342 75.061, 74.344 72.152 L 77.586 69.009 81.043 71.964 C 85.294 75.597, 85.550 75.616, 87.625 72.450 C 89.254 69.963, 89.213 69.815, 85.952 66.450 L 82.608 63 85.818 59.688 L 89.028 56.375 86.503 54.003 L 83.977 51.630 80.489 55.011 L 77 58.392 73.702 55.196 C 69.784 51.398, 69.130 51.314, 66.207 54.237 M 51.623 79.026 C 47.543 82.609, 46.775 87.201, 49.549 91.434 C 53.504 97.471, 60.956 96.659, 64.296 89.827 C 65.890 86.566, 65.935 85.781, 64.700 82.827 C 63.060 78.902, 61.435 77.398, 57.867 76.503 C 55.801 75.984, 54.479 76.519, 51.623 79.026" stroke="none" fill="" fill-rule="evenodd"/></symbol></svg>