<svg xmlns="http://www.w3.org/2000/svg"><symbol viewBox="0 0 136 137" id="elxis_diesi_8"><path d="M 77.003 39.497 L 74.630 42.023 77.805 45.299 L 80.980 48.575 78.778 50.778 L 76.575 52.980 73.299 49.805 L 70.023 46.630 67.497 49.003 L 64.972 51.375 67.986 54.485 C 71.268 57.872, 71.603 58.997, 69.850 60.750 C 68.984 61.616, 67.823 61.175, 65.140 58.964 L 61.579 56.029 58.717 58.764 L 55.854 61.500 59.147 64.257 L 62.441 67.014 59.864 69.590 C 57.460 71.994, 57.025 72.088, 53.354 70.988 C 47.782 69.319, 41.613 71.151, 36.882 75.882 C 28.125 84.640, 30.048 98.480, 40.676 103.181 C 50.076 107.339, 60.625 103.538, 65.050 94.397 C 67.147 90.064, 67.243 89.192, 66.182 84.133 C 65.102 78.981, 65.171 78.447, 67.199 76.288 L 69.375 73.972 72.473 76.974 L 75.570 79.976 78.273 77.273 L 80.976 74.570 77.783 71.276 C 74.781 68.179, 74.691 67.880, 76.286 66.286 C 77.880 64.691, 78.192 64.794, 81.507 68.006 L 85.032 71.423 87.766 68.653 L 90.500 65.882 86.703 62.806 L 82.905 59.730 85.140 57.351 L 87.375 54.972 90.703 58.197 L 94.032 61.423 96.766 58.685 L 99.500 55.948 96.169 53.338 C 93.976 51.620, 92.997 50.118, 93.305 48.942 C 93.877 46.753, 88.687 41.457, 86.995 42.503 C 86.323 42.918, 84.457 41.897, 82.601 40.098 L 79.375 36.972 77.003 39.497 M 43.589 83.077 C 40.240 87.056, 40.321 89.475, 43.923 93.077 C 47.530 96.684, 51.243 96.848, 54.545 93.545 C 58.088 90.003, 58.158 85.935, 54.739 82.250 C 51.607 78.875, 46.826 79.229, 43.589 83.077" stroke="none" fill="" fill-rule="evenodd"/></symbol></svg>