<svg xmlns="http://www.w3.org/2000/svg"><symbol viewBox="0 0 148 129" id="elxis_yfesi_4"><path d="M 75.459 40.827 C 70.489 43.149, 66.434 47.819, 64.878 53.012 C 63.891 56.307, 63.985 57.672, 65.464 61.545 L 67.225 66.156 64.418 69.086 L 61.611 72.015 58.290 68.796 L 54.968 65.577 52.277 68.268 L 49.586 70.959 52.485 73.984 L 55.383 77.009 52.184 80.310 L 48.985 83.611 51.992 86.493 L 55 89.374 58.005 86.495 L 61.009 83.617 64.500 87 L 67.991 90.383 71.064 87.442 L 74.138 84.500 70.539 81.475 L 66.940 78.450 70.363 75.133 C 73.394 72.195, 74.044 71.953, 76.036 73.019 C 79.715 74.988, 88.308 73.765, 92.325 70.701 C 97.402 66.829, 100.413 60.033, 99.619 54.240 C 98.800 48.261, 97.028 45.687, 91.507 42.451 C 85.531 38.949, 80.555 38.445, 75.459 40.827 M 76.455 50.455 C 72.936 53.973, 73.024 60.087, 76.635 62.927 C 80.216 65.744, 83.833 65.534, 87.195 62.313 C 91.041 58.629, 91.118 53.025, 87.365 50.073 C 83.799 47.267, 79.491 47.418, 76.455 50.455" stroke="none" fill="" fill-rule="evenodd"/></symbol></svg>