<svg xmlns="http://www.w3.org/2000/svg"><symbol viewBox="0 0 155 169" id="elxis_yfesi_8"><path d="M 81.312 58.886 C 75.090 61.799, 71 67.972, 71 74.450 C 71 77.283, 71.505 80.105, 72.123 80.723 C 72.954 81.554, 72.661 82.667, 71 85 L 68.754 88.154 65.418 84.921 C 62.559 82.149, 61.854 81.876, 60.486 83.011 C 59.609 83.740, 58.401 85.250, 57.803 86.367 C 56.875 88.102, 57.208 88.810, 60.071 91.201 C 63.233 93.840, 63.328 94.100, 61.723 95.706 C 60.117 97.312, 59.827 97.224, 56.704 94.197 L 53.389 90.985 50.444 94.082 L 47.500 97.180 50.963 100.091 C 54.226 102.833, 54.328 103.100, 52.723 104.706 C 51.117 106.312, 50.827 106.224, 47.704 103.197 L 44.389 99.985 41.503 102.997 L 38.617 106.009 41.810 109.304 C 43.945 111.506, 44.670 112.930, 43.999 113.601 C 43.328 114.272, 44.157 115.729, 46.500 118 C 49.218 120.635, 50.272 121.128, 51.200 120.200 C 52.127 119.273, 52.973 119.558, 54.970 121.471 L 57.545 123.938 60.522 121.551 L 63.500 119.164 60.550 116.068 C 57.779 113.161, 57.702 112.869, 59.290 111.281 C 60.879 109.693, 61.183 109.785, 64.296 112.803 L 67.611 116.015 70.497 113.003 L 73.383 109.991 70.190 106.696 C 67.795 104.225, 67.283 103.117, 68.141 102.259 C 68.999 101.401, 70.133 101.762, 72.682 103.707 L 76.080 106.298 79.047 103.455 L 82.015 100.611 78.799 97.292 L 75.582 93.974 77.749 91.807 C 79.622 89.934, 80.266 89.800, 82.505 90.820 C 86.294 92.546, 91.564 92.263, 95.790 90.106 C 104.748 85.534, 108.288 75.759, 104.455 66.179 C 101.481 58.747, 89.604 55.004, 81.312 58.886 M 82.636 67.636 C 76.927 73.345, 80.632 83, 88.531 83 C 91.235 83, 92.926 82.227, 95.200 79.954 C 97.832 77.321, 98.166 76.404, 97.657 73.204 C 96.435 65.526, 87.907 62.365, 82.636 67.636" stroke="none" fill="" fill-rule="evenodd"/></symbol></svg>