<svg xmlns="http://www.w3.org/2000/svg"><symbol viewBox="0 0 212 165" id="fthora_diatoniki_naos"><path d="M 72.659 65.846 C 69.435 67.235, 68.198 68.726, 64.953 75.142 L 61.087 82.783 44.665 83.508 C 27.577 84.261, 24.500 84.899, 26.806 87.208 C 27.726 88.129, 32.818 88.596, 44.548 88.836 L 61 89.172 61.045 92.836 C 61.098 97.170, 62.568 100.668, 66.022 104.681 C 69.508 108.732, 71.188 109.147, 76.710 107.325 C 82.787 105.320, 83.612 104.508, 87.939 96.275 C 89.898 92.549, 92.063 89.545, 92.750 89.600 C 93.438 89.655, 98.023 89.767, 102.939 89.850 L 111.879 90 111.689 94.250 C 111.505 98.380, 111.633 98.566, 116.221 100.842 C 118.818 102.130, 123.543 103.407, 126.721 103.678 C 138.279 104.666, 175.992 97.068, 175.999 93.750 C 176.001 92.479, 171.201 92.931, 152 96.013 C 131.536 99.298, 127.942 99.518, 121.443 97.881 C 117.433 96.872, 117 96.473, 117 93.789 C 117 92.154, 117.913 89.654, 119.030 88.235 C 121.963 84.506, 120.481 84.033, 105.795 84.015 L 93.091 84 92.420 80.424 C 89.743 66.155, 83.182 61.314, 72.659 65.846 M 73.509 71.990 C 72.490 73.116, 71.499 76.154, 71.227 78.990 L 70.746 84 77.003 84 L 83.260 84 82.743 79.750 C 81.916 72.950, 80.384 70, 77.680 70 C 76.376 70, 74.500 70.895, 73.509 71.990 M 70.326 94.106 C 70.958 99.441, 72.332 102, 74.567 102 C 77.066 102, 80.784 97.493, 81.785 93.250 L 82.787 89 76.254 89 L 69.721 89 70.326 94.106" stroke="none" fill="" fill-rule="evenodd"/></symbol></svg>