<svg xmlns="http://www.w3.org/2000/svg"><symbol viewBox="0 0 168 168" id="fthora_diatoniki_zo"><path d="M 84 52.500 L 84 56 68 56 C 47.403 56, 47.136 56.647, 63.432 67.086 C 69.720 71.114, 74.686 74.699, 74.467 75.053 C 74.248 75.407, 69.988 77.408, 65 79.500 C 60.012 81.592, 55.730 83.627, 55.485 84.024 C 55.240 84.420, 59.126 87.450, 64.120 90.758 L 73.200 96.771 62.060 102.061 C 54.105 105.839, 51.004 107.801, 51.210 108.925 C 51.653 111.332, 63.035 114.678, 76.971 116.496 C 83.772 117.384, 90.206 118.575, 91.268 119.143 C 93.230 120.193, 93.268 122.041, 91.473 129.152 C 90.051 134.790, 98.610 138.390, 103 134 C 106.600 130.400, 104.918 124.769, 98.578 119.203 C 94.378 115.515, 90.547 114.332, 78.298 112.944 C 63.812 111.302, 58.076 109.094, 62.173 106.736 C 62.903 106.316, 68.163 103.820, 73.863 101.189 L 84.226 96.406 75.129 90.453 C 70.125 87.179, 66.024 84.264, 66.016 83.975 C 66.007 83.686, 70.500 81.492, 76 79.099 C 81.500 76.706, 86 74.642, 86 74.511 C 86 74.380, 81.050 71, 75 67 C 68.950 63, 64 59.563, 64 59.363 C 64 59.164, 68.500 59, 74 59 L 84 59 84 62.573 C 84 65.436, 84.348 66.081, 85.750 65.815 C 86.903 65.597, 87.607 64.377, 87.813 62.242 C 88.100 59.276, 88.419 59, 91.563 59 C 93.951 59, 95 58.542, 95 57.500 C 95 56.452, 93.944 56, 91.500 56 C 88.167 56, 88 55.833, 88 52.500 C 88 49.667, 87.619 49, 86 49 C 84.381 49, 84 49.667, 84 52.500" stroke="none" fill="" fill-rule="evenodd"/></symbol></svg>