<svg xmlns="http://www.w3.org/2000/svg"><symbol viewBox="0 0 146 142" id="fthora_diatoniki_ano_ni"><path d="M 53 46.921 C 53 50.471, 52.714 50.904, 49.976 51.505 C 46.174 52.340, 41.419 56.291, 39.307 60.369 C 38.351 62.215, 37.707 65.796, 37.737 69.094 C 37.815 77.686, 41.284 82.958, 48.489 85.435 C 52.533 86.826, 52.468 86.694, 51.553 91.567 C 51.043 94.288, 49.648 96.055, 45.450 99.297 C 41.801 102.115, 40.006 104.222, 40.004 105.691 C 39.998 109.271, 41.375 109.151, 48.305 104.972 C 51.927 102.787, 56 101, 57.356 101 C 58.712 101, 64.084 103.061, 69.294 105.579 C 80.136 110.821, 85.084 111.796, 91.591 109.975 C 101.041 107.329, 106.635 97.977, 100.453 95.161 C 94.305 92.359, 90.849 94.928, 92.949 100.737 C 94.123 103.982, 94.066 104.482, 92.377 105.750 C 89.026 108.265, 81.926 106.743, 70.911 101.149 C 65.334 98.317, 59.887 96, 58.806 96 C 57.113 96, 56.937 95.549, 57.535 92.750 C 58.530 88.094, 58.957 87.541, 64.416 83.836 C 70.289 79.851, 73 75.157, 73 68.977 C 73 60.843, 68.579 54.717, 61.049 52.415 C 57.808 51.425, 57.473 50.969, 57.193 47.165 C 56.945 43.813, 56.506 43, 54.943 43 C 53.349 43, 53 43.705, 53 46.921 M 50 61.108 C 44.512 63.261, 42.153 70.917, 45.503 75.701 C 49.014 80.714, 58.986 80.714, 62.497 75.701 C 65.705 71.121, 63.681 64.026, 58.460 61.548 C 54.754 59.790, 53.523 59.725, 50 61.108" stroke="none" fill="" fill-rule="evenodd"/></symbol></svg>