<svg xmlns="http://www.w3.org/2000/svg"><symbol viewBox="0 0 144 158" id="fthora_enarmonia_1"><path d="M 68.240 56.653 C 63.499 58.989, 57.850 67.150, 57.243 72.540 C 56.853 75.994, 57.333 78.161, 59.441 82.470 L 62.138 87.981 55.082 96.241 C 47.759 104.814, 42.025 109.510, 39.795 108.762 C 39.073 108.520, 38.500 106.817, 38.500 104.914 C 38.500 102.181, 38.071 101.439, 36.347 101.193 C 33.882 100.842, 31 104.268, 31 107.548 C 31 108.705, 32.106 110.690, 33.458 111.960 C 35.507 113.886, 36.670 114.185, 40.452 113.758 C 46.255 113.104, 50.070 110.173, 59.148 99.392 C 65.119 92.302, 66.690 90.971, 68.419 91.541 C 76.762 94.291, 84.711 92.277, 90.411 85.967 C 94.576 81.357, 95.413 78.653, 94.765 71.906 C 93.610 59.886, 78.873 51.411, 68.240 56.653 M 67.589 67.077 C 63.685 71.716, 63.991 77.191, 68.400 81.600 C 72.761 85.961, 77.405 86.213, 82.009 82.339 C 86.192 78.819, 87.355 75.604, 85.966 71.398 C 84.570 67.166, 79.543 64, 74.221 64 C 70.934 64, 69.694 64.575, 67.589 67.077" stroke="none" fill="" fill-rule="evenodd"/></symbol></svg>