<svg xmlns="http://www.w3.org/2000/svg"><symbol viewBox="0 0 133 142" id="fthora_malaki_xromatiki_2"><path d="M 76.690 40.790 C 74.467 43.247, 74.488 43.348, 78.133 47.499 C 79.856 49.461, 81.094 51.187, 80.883 51.334 C 80.672 51.480, 79.009 52.810, 77.187 54.288 L 73.874 56.977 69.977 54.988 C 62.491 51.169, 53.945 52.882, 48.276 59.338 C 43.298 65.009, 42.023 73.072, 45.140 79.182 C 45.826 80.527, 43.945 82.603, 35.749 89.549 C 30.112 94.326, 25.368 98.786, 25.207 99.459 C 25.046 100.133, 25.512 101.180, 26.244 101.787 C 27.273 102.642, 29.909 100.899, 37.937 94.054 L 48.302 85.217 52.800 87.608 C 58.169 90.463, 63.070 90.618, 68.500 88.104 C 78.243 83.593, 82.873 72.457, 78.513 64.024 C 77.055 61.205, 77.103 61.087, 80.923 58.061 L 84.821 54.973 88.427 59.185 C 91.710 63.021, 92.172 63.256, 93.609 61.819 C 95.047 60.382, 94.905 59.852, 92.027 55.878 L 88.866 51.515 92.985 47.673 C 96.522 44.374, 96.925 43.595, 95.835 42.165 C 95.137 41.249, 94.450 40.324, 94.309 40.110 C 94.168 39.895, 92.156 41.433, 89.838 43.527 L 85.624 47.335 82.002 43.129 C 78.504 39.068, 78.321 38.988, 76.690 40.790 M 55.973 62.704 C 52.113 65.364, 51.066 67.197, 51.032 71.350 C 50.990 76.425, 56.181 82, 60.950 82 C 65.437 82, 69.515 79.585, 70.974 76.064 C 74.894 66.600, 64.173 57.052, 55.973 62.704" stroke="none" fill="" fill-rule="evenodd"/></symbol></svg>