<svg xmlns="http://www.w3.org/2000/svg"><symbol viewBox="0 0 139 130" id="fthora_xroa_2"><path d="M 93.334 44.137 L 89.197 48.274 84.783 46.137 C 79.114 43.393, 73.547 43.440, 68.542 46.275 C 60.024 51.099, 56.115 61.643, 59.376 71 L 60.944 75.500 53.722 82.782 C 41.123 95.486, 35.123 98.193, 36.562 90.524 C 37.472 85.669, 34.668 84.522, 31.342 88.388 C 26.552 93.958, 29.640 100, 37.277 100 C 42.648 100, 44.294 98.889, 56.044 87.334 L 65.588 77.948 68.881 79.591 C 73.665 81.977, 81.809 81.097, 86.772 77.658 C 94.100 72.580, 97.229 62.796, 94.010 55.024 C 92.746 51.973, 92.839 51.739, 97.015 47.485 C 100.668 43.763, 101.128 42.859, 100.039 41.547 C 98.246 39.387, 97.981 39.490, 93.334 44.137 M 72.388 52.942 C 66.582 55.392, 63.949 64.913, 67.772 69.633 C 74.265 77.649, 86.883 73.772, 86.968 63.735 C 87.027 56.746, 78.439 50.389, 72.388 52.942" stroke="none" fill="" fill-rule="evenodd"/></symbol></svg>