<svg xmlns="http://www.w3.org/2000/svg"><symbol viewBox="0 0 153 144" id="fthora_diatoniki_ni"><path d="M 55.401 40.905 C 48.104 44.219, 43.976 53.487, 45.927 62.172 C 47.213 67.895, 49.770 71.082, 55.302 73.856 C 57.886 75.152, 60 76.854, 60 77.638 C 60 81.324, 56.778 86.163, 52.072 89.544 C 46.966 93.212, 45.513 96.492, 48.488 97.634 C 49.306 97.948, 52.449 96.809, 55.473 95.102 C 63.016 90.845, 67.354 91.001, 80.500 96 C 88.431 99.016, 92.461 100, 96.882 100 C 102.546 100, 102.886 99.847, 106.873 95.522 C 111.656 90.333, 111.908 88.817, 108.545 85.455 C 103.271 80.180, 97.372 84.723, 101.250 91.074 C 102.314 92.817, 102.211 93.336, 100.559 94.561 C 96.761 97.376, 90.581 96.331, 79.500 91 C 73.784 88.250, 67.906 86, 66.437 86 C 64.145 86, 63.857 85.682, 64.407 83.750 C 64.760 82.513, 65.326 80.227, 65.665 78.672 C 66.060 76.861, 67.220 75.489, 68.891 74.858 C 75.463 72.376, 80 65.284, 80 57.492 C 80 49.560, 75.514 43.016, 68.316 40.449 C 63.143 38.604, 60.243 38.706, 55.401 40.905 M 58.500 48.716 C 52.723 50.113, 49.594 57.379, 52.417 62.840 C 55.527 68.854, 65.559 69.323, 69.540 63.640 C 71.452 60.909, 71.401 55.542, 69.434 52.540 C 68.088 50.485, 62.952 47.759, 61.101 48.116 C 60.770 48.180, 59.600 48.450, 58.500 48.716" stroke="none" fill="" fill-rule="evenodd"/></symbol></svg>