<svg xmlns="http://www.w3.org/2000/svg"><symbol viewBox="0 0 133 144" id="fthora_xroa_1"><path d="M 97 47.214 C 94.525 49.430, 89.735 53.676, 86.356 56.650 L 80.212 62.058 76.677 59.972 C 70.233 56.170, 59.119 57.742, 53.169 63.298 C 47.856 68.258, 46.157 76.640, 49.274 82.515 C 50.833 85.453, 50.801 85.559, 47.221 89.255 L 43.585 93.009 39.468 88.969 C 36.657 86.210, 34.819 85.132, 33.676 85.571 C 31.148 86.541, 31.634 88.253, 35.500 92 C 37.425 93.866, 39 95.725, 39 96.131 C 39 96.538, 37.210 98.137, 35.021 99.685 C 30.795 102.675, 30.184 104.077, 32.329 105.858 C 33.340 106.697, 34.675 106.214, 37.897 103.844 L 42.136 100.727 45.997 104.498 C 48.462 106.904, 50.427 108.050, 51.429 107.665 C 53.730 106.783, 53.368 105.184, 50 101.347 C 48.350 99.468, 47 97.534, 47 97.049 C 47 96.565, 48.688 94.846, 50.750 93.230 C 54.457 90.326, 54.533 90.312, 57.376 92.058 C 66.778 97.833, 79.461 93.215, 83.542 82.530 C 85.179 78.243, 85.204 71.432, 83.597 67.838 C 83.022 66.553, 85.366 64.078, 93.927 56.927 C 100.017 51.840, 105 47.370, 105 46.994 C 105 46.618, 104.213 45.607, 103.250 44.748 C 101.639 43.310, 101.143 43.506, 97 47.214 M 60.873 66.684 C 57.265 68.923, 55 73.096, 55 77.504 C 55 80.374, 55.760 81.960, 58.400 84.600 C 63.168 89.368, 68.396 89.379, 73.429 84.632 C 76.475 81.759, 77 80.615, 77 76.854 C 77 71.826, 75.157 68.650, 70.989 66.494 C 67.285 64.579, 64.170 64.637, 60.873 66.684" stroke="none" fill="" fill-rule="evenodd"/></symbol></svg>