<svg xmlns="http://www.w3.org/2000/svg"><symbol viewBox="0 0 139 146" id="fthora_diatoniki_bou"><path d="M 40 39.752 C 40 40.892, 44.010 44.072, 51.490 48.864 C 57.809 52.912, 62.794 56.525, 62.567 56.892 C 62.339 57.260, 57.846 59.347, 52.582 61.530 C 47.317 63.714, 43.015 65.725, 43.021 66 C 43.027 66.275, 47.139 69.188, 52.160 72.473 L 61.288 78.447 49.980 83.973 C 43.761 87.013, 38.640 89.950, 38.600 90.500 C 38.464 92.383, 50.053 96.074, 60.779 97.565 C 77.019 99.822, 77.513 99.923, 79.542 101.407 C 81.289 102.685, 81.332 103.180, 80.106 107.963 C 78.841 112.898, 78.886 113.249, 81.064 115.568 C 83.962 118.653, 87.992 118.701, 90.826 115.686 C 93.521 112.816, 93.550 110.999, 90.980 105.961 C 87.424 98.991, 80.999 96.213, 64.500 94.511 C 61.200 94.170, 56.073 93.210, 53.106 92.376 C 46.258 90.452, 46.887 89.739, 61 83.422 C 66.775 80.837, 71.628 78.619, 71.784 78.493 C 71.940 78.368, 67.924 75.427, 62.859 71.958 L 53.650 65.650 57.575 63.821 C 59.734 62.815, 64.418 60.720, 67.985 59.166 L 74.469 56.340 62.991 48.670 L 51.513 41 67.257 41 C 80.584 41, 83 40.770, 83 39.500 C 83 38.213, 79.944 38, 61.500 38 C 41.682 38, 40 38.137, 40 39.752" stroke="none" fill="" fill-rule="evenodd"/></symbol></svg>