<svg xmlns="http://www.w3.org/2000/svg"><symbol viewBox="0 0 149 140" id="fthora_diatoniki_ke"><path d="M 70 53.422 L 70 63.845 66.665 64.946 C 60.073 67.121, 56 73.506, 56 81.664 C 56 91.695, 62.697 98.337, 72.801 98.328 C 79.349 98.322, 83.583 96.473, 87.381 91.959 C 90.633 88.094, 91.375 85.256, 90.773 78.988 C 90.129 72.287, 86.422 67.587, 79.973 65.297 L 75 63.531 75 53.265 L 75 43 72.500 43 L 70 43 70 53.422 M 70.500 72.716 C 64.998 74.047, 62.249 80.861, 65.080 86.150 C 66.808 89.377, 72.049 91.101, 76.444 89.888 C 84.098 87.774, 84.769 76.473, 77.423 73.403 C 73.925 71.942, 73.765 71.926, 70.500 72.716" stroke="none" fill="" fill-rule="evenodd"/></symbol></svg>