<svg xmlns="http://www.w3.org/2000/svg"><symbol viewBox="0 0 180 99" id="fthora_skliri_xromatiki_1"><path d="M 81.356 34.541 C 79.627 35.299, 76.903 37.507, 75.303 39.449 L 72.394 42.978 65.447 41.506 C 47.715 37.750, 35.113 41.076, 33.099 50.044 C 31.588 56.773, 35.531 61.306, 40.710 58.795 C 42.713 57.824, 43.698 56.254, 44.646 52.519 C 46.107 46.764, 48.020 45, 52.798 45 C 57.570 45, 70.149 48.156, 70.490 49.439 C 72.620 57.456, 73.631 59.693, 76.625 63.006 C 80.887 67.725, 85.469 69.375, 92.654 68.779 C 98.556 68.289, 102.239 66.166, 105.508 61.369 L 107.516 58.423 113.508 60.252 C 120.973 62.530, 133.120 62.693, 138.158 60.583 C 143.145 58.493, 146 54.613, 146 49.922 C 146 47.120, 145.413 45.702, 143.777 44.557 C 138.875 41.123, 134.725 43.528, 133.672 50.414 C 133.342 52.566, 132.581 54.816, 131.981 55.414 C 130.579 56.809, 118.735 56.632, 113.362 55.136 C 109.480 54.055, 109.184 53.711, 108.563 49.574 C 106.743 37.434, 92.593 29.616, 81.356 34.541 M 88.500 39.653 C 84.225 40.634, 80.884 42.349, 79.989 44.021 C 79.160 45.569, 80.257 46.068, 89.654 48.423 C 95.484 49.884, 100.476 50.857, 100.747 50.586 C 101.688 49.646, 99.974 45.082, 97.743 42.585 C 95.408 39.973, 91.924 38.867, 88.500 39.653 M 79 54.155 C 79 61.689, 87.707 66.271, 94.928 62.537 C 99.598 60.122, 99.523 58.218, 94.708 56.922 C 92.394 56.298, 87.912 54.983, 84.750 53.999 C 79.108 52.243, 79 52.246, 79 54.155" stroke="none" fill="" fill-rule="evenodd"/></symbol></svg>