<svg xmlns="http://www.w3.org/2000/svg"><symbol viewBox="0 0 177 131" id="fthora_diatoniki_di"><path d="M 58.310 47.875 C 57.267 49.545, 58.031 50.381, 65.320 55.543 C 69.819 58.729, 73.617 61.415, 73.761 61.512 C 73.904 61.609, 73.321 63.671, 72.466 66.094 C 67.268 80.819, 84.244 94.611, 98.030 86.863 L 101.832 84.726 109.909 91.113 C 118.306 97.754, 120.259 98.609, 120.785 95.877 C 120.981 94.859, 118.075 91.733, 112.993 87.494 C 107.039 82.528, 105.065 80.305, 105.555 79.117 C 111.633 64.369, 95.445 48.679, 81.602 55.902 C 79.458 57.020, 77.208 57.639, 76.602 57.277 C 75.996 56.915, 72.310 54.230, 68.411 51.310 C 64.512 48.389, 60.908 46, 60.402 46 C 59.895 46, 58.954 46.844, 58.310 47.875 M 82.400 65.400 C 76.395 71.405, 78.766 79.691, 87.006 81.501 C 92.505 82.709, 99 77.389, 99 71.677 C 99 67.559, 93.256 62, 89 62 C 86.694 62, 84.850 62.950, 82.400 65.400" stroke="none" fill="" fill-rule="evenodd"/></symbol></svg>