<svg xmlns="http://www.w3.org/2000/svg"><symbol viewBox="0 0 130 136" id="fthora_enarmonia_3"><path d="M 59 41 L 59 45 54 45 C 49.111 45, 49 45.067, 49 48 C 49 50.933, 49.111 51, 54 51 L 59 51 59 54.756 C 59 58.289, 58.704 58.647, 54.018 60.797 C 46.415 64.285, 42.224 72.643, 43.572 81.632 C 45.454 94.185, 59.454 100.824, 71.080 94.676 C 84.305 87.683, 83.351 67.044, 69.540 61.364 C 65.168 59.566, 65.007 59.350, 65.004 55.250 L 65 51 70 51 C 74.889 51, 75 50.933, 75 48 C 75 45.067, 74.889 45, 70 45 L 65 45 65 41 C 65 37.222, 64.833 37, 62 37 C 59.167 37, 59 37.222, 59 41 M 57.500 68.355 C 52.509 70.637, 50.488 73.661, 50.598 78.684 C 50.849 90.191, 67.228 94.194, 72.483 84.033 C 77.662 74.018, 67.764 63.661, 57.500 68.355" stroke="none" fill="" fill-rule="evenodd"/></symbol></svg>