<svg xmlns="http://www.w3.org/2000/svg"><symbol viewBox="0 0 214 141" id="fthora_malaki_xromatiki_1"><path d="M 105 52.028 C 97.739 53.303, 92.967 57.298, 91.441 63.380 L 90.791 65.969 62.645 66.235 L 34.500 66.500 34.184 69.250 L 33.867 72 62.309 72 L 90.750 72 91.322 74.860 C 92.089 78.695, 96.655 83.958, 100.671 85.636 C 102.467 86.386, 105.990 87, 108.500 87 C 116.726 87, 122.320 83.266, 125.501 75.651 L 127.098 71.830 143.346 72.165 C 156.835 72.443, 160.054 72.801, 162.297 74.273 C 166.425 76.981, 165.851 80.169, 160.435 84.607 C 156.567 87.776, 155.965 88.740, 156.490 90.924 C 157.332 94.424, 159.677 96, 164.043 96 C 168.277 96, 173.867 92.635, 175.720 88.970 C 177.886 84.685, 175.544 76.698, 170.831 72.298 C 165.910 67.703, 161.504 66.712, 143.778 66.215 L 127.055 65.746 124.957 61.411 C 121.600 54.477, 113.293 50.572, 105 52.028 M 104.476 59.420 C 102.812 60.132, 100.910 61.903, 100.247 63.357 L 99.043 66 108.557 66 C 117.330 66, 117.997 65.863, 117.128 64.239 C 114.549 59.421, 109.220 57.391, 104.476 59.420 M 99 73.566 C 99 77.169, 105.856 81.338, 110.092 80.312 C 112.576 79.710, 118 75.253, 118 73.813 C 118 73.366, 113.725 73, 108.500 73 C 103.275 73, 99 73.255, 99 73.566" stroke="none" fill="" fill-rule="evenodd"/></symbol></svg>