<svg xmlns="http://www.w3.org/2000/svg"><symbol viewBox="0 0 139 135" id="fthora_enarmonia_2"><path d="M 58.655 42.459 C 48.337 46.138, 43.771 58.750, 49.027 69.053 C 51.205 73.322, 58.125 79, 61.150 79 C 62.676 79, 63 79.788, 63 83.500 L 63 88 57.500 88 C 52.056 88, 52 88.030, 52 91 C 52 93.970, 52.056 94, 57.500 94 L 63 94 63 98.500 C 63 102.633, 63.204 103, 65.500 103 C 67.792 103, 68 102.630, 68 98.552 L 68 94.105 73.250 93.802 C 78.103 93.523, 78.500 93.311, 78.500 91 C 78.500 88.689, 78.103 88.477, 73.250 88.198 L 68 87.895 68 83.649 C 68 79.726, 68.260 79.308, 71.403 78.171 C 79.080 75.395, 83.935 68.501, 83.978 60.315 C 84.019 52.454, 80.013 46.374, 72.500 42.896 C 67.771 40.707, 63.911 40.585, 58.655 42.459 M 62.542 49.711 C 58.643 50.738, 55.991 53.298, 54.838 57.145 C 51.544 68.141, 66.010 75.719, 73.440 66.889 C 80.042 59.043, 72.462 47.095, 62.542 49.711" stroke="none" fill="" fill-rule="evenodd"/></symbol></svg>