<svg xmlns="http://www.w3.org/2000/svg"><symbol viewBox="0 0 147 129" id="fthora_skliri_xromatiki_2"><path d="M 93.745 46.683 L 84.989 53.223 81.443 51.540 C 75.838 48.880, 71.460 48.553, 66.554 50.426 C 61.097 52.510, 55.336 58.694, 54.449 63.418 C 53.766 67.061, 54.195 73.353, 55.306 76 C 55.745 77.045, 53.657 79.311, 48.422 83.472 C 38.207 91.591, 37.697 92.204, 39.317 94.419 C 40.518 96.061, 41.232 95.716, 48.559 89.951 C 52.927 86.514, 57.050 83.275, 57.722 82.752 C 58.537 82.118, 60.034 82.464, 62.222 83.793 C 68.907 87.854, 76.010 87.489, 83.084 82.723 C 89.987 78.071, 93.161 67.080, 89.594 60.181 L 88.187 57.461 97.094 51.154 C 101.992 47.685, 106 44.501, 106 44.078 C 106 43.656, 105.213 42.598, 104.250 41.727 C 102.630 40.261, 101.852 40.628, 93.745 46.683 M 65.367 59.772 C 60.197 63.960, 59.700 69.450, 64.042 74.395 C 67.694 78.555, 71.582 79.620, 76.146 77.712 C 80.868 75.738, 82.500 73.349, 82.500 68.412 C 82.500 65.039, 81.877 63.482, 79.563 61.066 C 77.116 58.511, 75.865 58.004, 72.063 58.022 C 69.258 58.036, 66.678 58.710, 65.367 59.772" stroke="none" fill="" fill-rule="evenodd"/></symbol></svg>