<svg xmlns="http://www.w3.org/2000/svg"><symbol viewBox="0 0 188 106" id="fthora_skliri_xromatiki_3"><path d="M 82.500 35.423 C 79.321 36.848, 75.673 39.976, 74.274 42.476 C 73.524 43.815, 72.604 43.808, 65.965 42.411 C 56.702 40.461, 44.895 40.891, 39.827 43.363 C 31.696 47.329, 30.574 60.250, 38.361 60.250 C 42.108 60.250, 44.645 57.622, 45.389 52.971 C 46.560 45.645, 53.003 44.290, 66.750 48.478 C 71.388 49.891, 72.003 50.394, 72.022 52.789 C 72.034 54.280, 72.899 57.383, 73.943 59.684 C 79.439 71.788, 99.579 73.608, 106.080 62.588 L 108.030 59.284 112.765 60.739 C 115.369 61.539, 118.063 62.361, 118.750 62.565 C 119.555 62.805, 120 64.909, 120 68.469 C 120 73.948, 120.028 74, 123 74 C 125.970 74, 126 73.944, 126 68.500 L 126 63 130.750 62.978 C 139.963 62.935, 147 57.570, 147 50.589 C 147 47.539, 143.446 44, 140.383 44 C 137.218 44, 135.104 46.497, 134.367 51.108 C 133.712 55.202, 131.037 58, 127.777 58 C 126.256 58, 126 57.062, 126 51.500 L 126 45 123 45 L 120 45 120 51.111 L 120 57.223 116.268 56.523 C 110.845 55.505, 109 54.238, 109 51.530 C 109 45.666, 103.461 38.032, 97.282 35.381 C 93.241 33.647, 86.420 33.666, 82.500 35.423 M 87.209 40.984 C 84.024 41.739, 80 44.556, 80 46.032 C 80 46.593, 99.386 52, 101.400 52 C 101.867 52, 100.809 47.981, 99.483 44.713 C 98.705 42.796, 93.936 39.934, 91.800 40.102 C 91.085 40.159, 89.019 40.556, 87.209 40.984 M 80 56.577 C 80 60.679, 85.021 65, 89.788 65 C 93.868 65, 99.413 61.739, 98.745 59.734 C 98.421 58.763, 84.064 54.077, 81.250 54.024 C 80.563 54.011, 80 55.160, 80 56.577" stroke="none" fill="" fill-rule="evenodd"/></symbol></svg>