<svg xmlns="http://www.w3.org/2000/svg"><symbol viewBox="0 0 167 144" id="fthora_diatoniki_skliro_diatono"><path d="M 61.293 50.638 L 57.320 55.346 53.815 52.673 L 50.310 49.999 48.405 52.119 C 46.530 54.205, 46.531 54.259, 48.500 55.575 C 54.942 59.883, 54.808 59.308, 50.573 64.476 C 46.727 69.169, 46.727 69.171, 48.724 71.169 C 50.722 73.166, 50.724 73.165, 54.611 68.126 C 56.750 65.354, 58.725 63.081, 59 63.076 C 59.275 63.071, 60.508 63.908, 61.740 64.935 C 63.904 66.741, 63.926 66.933, 62.394 70.600 C 56.542 84.606, 73.242 98.902, 87.432 92.033 L 91.995 89.824 100.236 96.388 C 107.623 102.272, 108.633 102.793, 109.988 101.419 C 111.638 99.746, 110.803 98.783, 99.593 89.438 L 94.721 85.376 95.945 81.667 C 100.580 67.622, 84.137 53.953, 71.012 60.941 C 67.593 62.761, 67.469 62.758, 64.743 60.817 L 61.962 58.836 64.813 55.168 C 69.016 49.761, 69.120 49.419, 67.110 47.599 C 65.363 46.018, 65.058 46.178, 61.293 50.638 M 71.901 70.106 C 67.362 74.965, 67.922 81.874, 73.072 84.537 C 77.567 86.862, 82.327 86.400, 85.384 83.343 C 88.762 79.965, 89.559 76.763, 87.972 72.933 C 85.327 66.546, 76.652 65.020, 71.901 70.106" stroke="none" fill="" fill-rule="evenodd"/></symbol></svg>