<svg xmlns="http://www.w3.org/2000/svg"><symbol viewBox="0 0 264 136" id="fthora_xroa_3"><path d="M 115.204 51.128 C 110.496 53.458, 106.535 57.978, 105.474 62.231 L 104.792 64.963 82.146 65.231 L 59.500 65.500 59.500 68 L 59.500 70.500 82.146 70.769 L 104.792 71.037 105.474 73.769 C 106.312 77.127, 110.308 82.500, 113.544 84.621 C 120.165 88.959, 131.504 88.130, 137.495 82.870 C 139.351 81.240, 141.636 77.903, 142.571 75.453 L 144.272 71 151.636 71 L 159 71 159 78.500 L 159 86 162 86 L 165 86 165 78.500 L 165 71 172.032 71 C 179.875 71, 186 73.003, 186 75.567 C 186 76.485, 184.650 78.774, 183 80.653 C 179.585 84.542, 179.226 87.010, 181.750 89.227 C 184.484 91.628, 187.568 92.193, 191.766 91.063 C 197.323 89.567, 200.438 85.941, 199.632 81.908 C 197.736 72.432, 190.036 67.379, 174.936 65.703 L 165 64.600 165 57.300 L 165 50 162 50 L 159 50 159 57.542 L 159 65.084 151.404 64.792 L 143.808 64.500 142.499 60.684 C 141.779 58.585, 140.360 55.950, 139.345 54.827 C 133.993 48.909, 123.069 47.235, 115.204 51.128 M 115.923 58.923 C 110.594 64.252, 111.589 65, 124 65 C 130.050 65, 135 64.796, 135 64.547 C 135 62.589, 132.113 58.593, 129.855 57.425 C 125.078 54.955, 119.267 55.580, 115.923 58.923 M 113.548 75.250 C 114.936 79.829, 118.015 82, 123.119 82 C 128.335 82, 132.282 79.430, 133.487 75.250 C 134.130 73.017, 134.054 73, 123.500 73 C 112.936 73, 112.870 73.015, 113.548 75.250" stroke="none" fill="" fill-rule="evenodd"/></symbol></svg>