<svg xmlns="http://www.w3.org/2000/svg"><symbol viewBox="0 0 121 136" id="fthora_diatoniki_ga"><path d="M 57.701 36.632 C 57.316 37.018, 57 40.772, 57 44.974 L 57 52.615 53 54.380 C 45.094 57.868, 41.101 70.493, 45.321 78.654 C 46.922 81.750, 52.385 87, 54.005 87 C 56.435 87, 58.001 90.444, 58.015 95.821 C 58.032 101.949, 58.545 103.294, 61.250 104.292 C 62.825 104.873, 63 104.135, 63 96.918 L 63 88.898 66.250 87.531 C 78.786 82.258, 80.786 63.928, 69.701 55.898 C 67.500 54.304, 64.886 53, 63.890 53 C 62.314 53, 62.043 51.937, 61.790 44.761 C 61.562 38.271, 61.171 36.459, 59.951 36.226 C 59.099 36.064, 58.087 36.246, 57.701 36.632 M 52.455 63.455 C 50.491 65.418, 50 66.928, 50 71.002 C 50 77.763, 53.155 81, 59.746 81 C 63.478 81, 64.751 80.449, 67.600 77.600 C 71.396 73.804, 71.898 70.636, 69.452 65.907 C 66.636 60.462, 56.858 59.051, 52.455 63.455" stroke="none" fill="" fill-rule="evenodd"/></symbol></svg>