<svg xmlns="http://www.w3.org/2000/svg"><symbol viewBox="0 0 100 102" id="fthora_diatoniki_pa"><path d="M 40.138 27.161 C 37.739 28.348, 34.953 30.673, 33.948 32.326 C 28.378 41.485, 32.283 54.803, 41.518 58.143 L 44.936 59.379 45.218 69.939 C 45.499 80.462, 45.509 80.500, 48 80.500 C 50.492 80.500, 50.501 80.468, 50.783 69.855 L 51.066 59.210 54.548 58.557 C 56.564 58.179, 59.479 56.454, 61.474 54.459 C 67.941 47.992, 68.461 37.872, 62.664 31.270 C 56.941 24.752, 48.218 23.161, 40.138 27.161 M 41.077 35.589 C 38.543 37.721, 38 38.917, 38 42.366 C 38 47.626, 40.076 50.651, 44.529 51.881 C 50.808 53.614, 56.954 50.638, 58.272 45.226 C 59.087 41.876, 57.239 36.281, 54.739 34.529 C 51.215 32.061, 44.665 32.569, 41.077 35.589" stroke="none" fill="" fill-rule="evenodd"/></symbol></svg>