<svg xmlns="http://www.w3.org/2000/svg"><symbol viewBox="0 0 96 121" id="martiriko_ananes_2"><path d="M 32.039 27.928 C 30.499 30.804, 31.802 33, 35.048 33 C 38.430 33, 39.403 31.742, 38.575 28.443 C 37.810 25.393, 33.574 25.059, 32.039 27.928 M 53.410 27.375 C 52.211 30.498, 53.424 32.500, 56.514 32.500 C 59.165 32.500, 59.500 32.164, 59.500 29.500 C 59.500 26.969, 59.069 26.450, 56.744 26.183 C 54.986 25.981, 53.779 26.412, 53.410 27.375 M 59 43.999 L 59 47.136 55.815 44.869 C 51.251 41.618, 42.635 41.178, 38.190 43.967 C 31.339 48.266, 29.924 60.180, 35.566 66.069 C 40.851 71.585, 49.730 72.360, 55.515 67.810 L 58.233 65.672 57.668 70.586 C 54.986 93.905, 54.687 98.280, 55.670 99.841 C 57.091 102.098, 59.445 102.412, 61.271 100.587 C 63.040 98.817, 64.356 74.779, 63.822 54 C 63.511 41.910, 63.426 41.490, 61.250 41.180 C 59.327 40.907, 59 41.317, 59 43.999 M 43.751 47.750 C 40.397 51.265, 39 55.013, 39 60.493 C 39 64.014, 39.508 65.254, 41.635 66.927 C 44.777 69.399, 46.151 69.490, 50.026 67.487 C 52.289 66.316, 53.319 64.712, 54.571 60.402 C 56.497 53.779, 55.825 48.691, 52.738 46.529 C 49.519 44.274, 46.701 44.657, 43.751 47.750" stroke="none" fill="" fill-rule="evenodd"/></symbol></svg>