<svg xmlns="http://www.w3.org/2000/svg"><symbol viewBox="0 0 179 180" id="martiriko_agia_2"><path d="M 88.711 21.695 C 87.834 23.182, 68 69.852, 68 70.429 C 68 70.743, 77.675 71, 89.500 71 C 101.325 71, 111 70.624, 111 70.165 C 111 69.706, 106.790 58.568, 101.645 45.415 C 92.956 23.204, 90.490 18.681, 88.711 21.695 M 81.145 47.372 C 77.215 56.400, 74 64.060, 74 64.393 C 74 64.727, 79.850 65, 87 65 C 96.158 65, 100 64.659, 100 63.846 C 100 62.894, 89.135 32.104, 88.491 31.229 C 88.381 31.080, 85.075 38.344, 81.145 47.372 M 76.713 79.621 C 75.491 80.843, 75.932 84.698, 77.436 85.947 C 79.778 87.891, 83.193 85.499, 82.810 82.183 C 82.576 80.157, 81.878 79.427, 79.963 79.204 C 78.567 79.041, 77.104 79.229, 76.713 79.621 M 98.082 80.401 C 97.396 81.228, 97.114 82.784, 97.455 83.860 C 98.898 88.406, 105.359 86.933, 104.810 82.183 C 104.574 80.142, 103.881 79.428, 101.914 79.199 C 100.492 79.034, 98.768 79.575, 98.082 80.401 M 82.838 94.526 C 78.097 97.101, 76.632 103.137, 77.444 116.748 C 78.542 135.133, 76.531 140.228, 67.606 141.677 L 64 142.262 64 136.779 C 64 129.879, 66.824 125.278, 72.750 122.526 C 75.088 121.440, 77 120.203, 77 119.776 C 77 118.240, 68.840 119.041, 65.113 120.942 C 60.649 123.220, 58.468 126.221, 56.831 132.340 C 55.825 136.104, 55.908 137.469, 57.374 141.309 C 60.762 150.180, 70.099 152.120, 77.747 145.541 L 80.498 143.175 80.999 124.237 C 81.573 102.554, 81.853 101.720, 88.414 102.200 L 92.500 102.500 92.619 107.662 C 92.801 115.514, 93.622 117.484, 97.887 120.306 C 102.126 123.112, 102.243 123.466, 103.556 137.500 C 104.339 145.880, 105.949 149.357, 109.703 150.775 C 114.058 152.420, 119 153.058, 119 151.975 C 119 151.439, 118.380 151, 117.622 151 C 114.499 151, 113.648 147.962, 113.574 136.540 C 113.492 124.021, 112.567 121.763, 107.070 120.664 C 103.738 119.998, 103.392 118.951, 102.405 106.551 C 101.483 94.966, 99.851 92.981, 91.295 93.040 C 88.108 93.062, 84.302 93.731, 82.838 94.526" stroke="none" fill="" fill-rule="evenodd"/></symbol></svg>