<svg xmlns="http://www.w3.org/2000/svg"><symbol viewBox="0 0 128 188" id="martiriko_ananes_1"><path d="M 55.670 32.750 C 55.423 33.163, 50.847 43.175, 45.500 55 C 40.153 66.825, 35.577 76.838, 35.330 77.250 C 35.084 77.662, 45.088 78, 57.563 78 L 80.244 78 78.752 75.750 C 77.332 73.609, 76.543 73.487, 62.533 73.223 C 51.394 73.013, 47.933 72.648, 48.326 71.723 C 48.611 71.050, 52.298 62.850, 56.518 53.500 C 67.382 29.429, 66.842 32, 61.034 32 C 58.330 32, 55.916 32.337, 55.670 32.750 M 43.180 89.642 C 42.675 90.545, 42.469 92.079, 42.723 93.050 C 43.658 96.625, 50 95.842, 50 92.150 C 50 88.337, 44.950 86.479, 43.180 89.642 M 64.713 88.621 C 63.315 90.018, 64.031 93.946, 65.862 94.926 C 68.493 96.334, 71.290 94.098, 70.845 90.944 C 70.597 89.187, 69.786 88.417, 67.963 88.204 C 66.567 88.041, 65.104 88.229, 64.713 88.621 M 70 105.864 L 70 108.728 65.331 106.364 C 53.965 100.610, 43.006 106.574, 43.002 118.516 C 42.997 130.250, 55.737 137.061, 65.411 130.496 L 69.100 127.992 68.512 134.246 C 68.188 137.686, 67.428 144.802, 66.824 150.059 C 65.995 157.271, 66.013 160.156, 66.898 161.809 C 68.362 164.545, 71.583 164.647, 72.998 162.003 C 74.502 159.194, 75.958 104.741, 74.556 103.765 C 72.067 102.034, 70 102.986, 70 105.864 M 55.514 109.168 C 51.999 111.933, 50 116.728, 50 122.396 C 50 127.277, 51.600 129.611, 55.644 130.625 C 61.766 132.162, 66.344 126.243, 66.441 116.664 C 66.491 111.697, 66.148 110.542, 64.139 108.914 C 61.079 106.433, 58.909 106.497, 55.514 109.168" stroke="none" fill="" fill-rule="evenodd"/></symbol></svg>