<svg xmlns="http://www.w3.org/2000/svg"><symbol viewBox="0 0 178 218" id="martiriko_naana_1"><path d="M 73.450 47.407 C 70.176 48.833, 65 54.348, 65 56.410 C 65 58.824, 66.332 58.958, 69.690 56.882 C 73.719 54.393, 78.701 54.907, 81.602 58.112 C 83.868 60.617, 86.598 62.152, 90.158 62.924 C 92.799 63.496, 92.753 63.589, 82.842 77.500 C 77.357 85.200, 71.535 93.400, 69.906 95.722 L 66.943 99.943 68.972 101.972 C 70.087 103.087, 71.485 104, 72.077 104 C 73.143 104, 76.877 100.429, 80.240 96.192 C 82.712 93.079, 86.190 93.449, 93.645 97.618 C 102.455 102.545, 106.328 103.330, 112.255 101.391 C 119.636 98.977, 126.008 91.203, 125.996 84.628 C 125.987 79.468, 119.288 73, 113.954 73 C 108.847 73, 102.840 79.534, 104.343 83.452 C 105.395 86.194, 110.066 86.507, 114.223 84.114 C 116.327 82.903, 118.488 82.183, 119.024 82.515 C 121.370 83.965, 118.684 92.140, 115.455 93.379 C 112.188 94.632, 107.574 93.940, 103.575 91.597 C 98.503 88.624, 91.842 87.559, 86.250 88.825 C 83.912 89.354, 82 89.586, 82 89.341 C 82 89.095, 87.437 80.389, 94.082 69.993 C 100.886 59.350, 106.014 50.313, 105.821 49.308 C 105.404 47.145, 102.424 46.403, 100.516 47.987 C 99.753 48.620, 98.832 50.488, 98.470 52.137 C 97.721 55.546, 96.092 56.491, 92.513 55.593 C 90.977 55.207, 89.791 54.016, 89.403 52.469 C 87.978 46.792, 80.389 44.384, 73.450 47.407 M 57.256 115.117 C 49.758 117.283, 43.801 127.594, 45.736 135.060 C 46.883 139.487, 50.676 141.097, 54.325 138.706 C 56.320 137.400, 57.038 135.701, 57.994 130.033 C 59.357 121.956, 61.165 120, 67.268 120 C 73.411 120, 76 123.341, 76 131.266 C 76 134.763, 75.045 141.196, 73.878 145.562 C 72.711 149.928, 71.702 156.128, 71.636 159.340 C 71.526 164.736, 71.764 165.400, 74.774 168.090 C 77.488 170.515, 78.901 171, 83.244 171 L 88.456 171 84.728 167.927 C 81.393 165.178, 81 164.361, 81 160.174 C 81 157.600, 81.914 152.345, 83.030 148.497 C 85.574 139.728, 85.829 129.504, 83.610 125.212 C 81.496 121.125, 77.322 117.160, 73.282 115.401 C 69.679 113.832, 62.166 113.699, 57.256 115.117 M 102.162 116.606 C 95.801 119.777, 93 124.462, 93 131.937 C 93 136.156, 93.389 137.209, 95.447 138.557 C 97.545 139.932, 98.287 139.971, 100.661 138.830 C 103.022 137.696, 103.678 136.405, 105.117 130.058 C 107.009 121.719, 108.541 120, 114.080 120 C 122.846 120, 124.577 126.358, 120.985 145.357 C 118.278 159.673, 118.641 165.434, 122.457 168.717 C 124.401 170.389, 126.360 171, 129.779 171 L 134.446 171 131.266 168.096 C 129.517 166.498, 127.806 164.077, 127.465 162.715 C 127.117 161.330, 127.979 155.524, 129.422 149.539 C 133.432 132.898, 132.850 126.641, 126.689 120.131 C 120.297 113.377, 111.251 112.077, 102.162 116.606" stroke="none" fill="" fill-rule="evenodd"/></symbol></svg>