<svg xmlns="http://www.w3.org/2000/svg"><symbol viewBox="0 0 250 148" id="martiriko_neanes_1"><path d="M 39.748 40.146 C 40.960 44.785, 44.318 49.123, 48.374 51.293 L 52.500 53.500 128.500 54 C 170.300 54.275, 205.063 54.864, 205.750 55.309 C 207.344 56.341, 207.418 53.682, 205.878 50.684 C 204.426 47.859, 200.052 43.149, 197.500 41.664 C 196.052 40.821, 174.681 40.342, 120 39.926 C 78.475 39.610, 43.292 39.001, 41.816 38.572 C 39.355 37.857, 39.184 37.987, 39.748 40.146 M 140 66.698 C 140 67.244, 140.841 68.451, 141.869 69.381 C 143.552 70.905, 146.096 76.022, 151.546 88.850 C 153.868 94.315, 155.665 95, 167.688 95 C 175.480 95, 177.043 94.757, 176.152 93.683 C 175.550 92.958, 173.354 88.571, 171.271 83.933 C 166.156 72.545, 164.135 69.383, 161.085 67.991 C 157.701 66.448, 140 65.362, 140 66.698 M 175.504 71.577 C 177.384 74.698, 180.078 80.278, 181.491 83.976 C 185.610 94.757, 185.139 94.448, 198.118 94.844 C 208.084 95.147, 209.255 95.012, 208.149 93.680 C 207.461 92.850, 205.225 88.420, 203.180 83.836 C 195.998 67.731, 195.872 67.634, 180.794 66.536 L 172.087 65.903 175.504 71.577 M 71.200 70.200 C 68.543 72.857, 70.473 78, 74.129 78 C 76.190 78, 79 75.404, 79 73.500 C 79 70.002, 73.658 67.742, 71.200 70.200 M 91.571 70.571 C 88.551 73.592, 90.289 78, 94.500 78 C 98.711 78, 100.449 73.592, 97.429 70.571 C 96.564 69.707, 95.246 69, 94.500 69 C 93.754 69, 92.436 69.707, 91.571 70.571 M 39.789 71.363 C 35.597 74.548, 35.707 81.815, 40.031 87.312 C 43.429 91.632, 47.684 92.355, 65.447 91.630 C 115.361 89.592, 113.740 89.600, 116.452 91.377 C 119.960 93.675, 119.642 96.408, 115.500 99.568 C 111.480 102.634, 110.975 105.762, 114.050 108.545 C 117.281 111.469, 122.753 110.988, 125.738 107.518 C 127.878 105.030, 128.157 103.902, 127.773 99.276 C 127.243 92.889, 124.879 89.266, 119.435 86.500 C 116.019 84.764, 113.522 84.500, 100.500 84.500 C 92.250 84.500, 77.625 84.875, 68 85.334 C 53.045 86.047, 50.209 85.949, 48.500 84.659 C 46.526 83.168, 46.536 83.111, 49.285 80.233 C 51.657 77.750, 51.924 76.931, 51.083 74.719 C 49.408 70.313, 43.487 68.554, 39.789 71.363" stroke="none" fill="" fill-rule="evenodd"/></symbol></svg>