<svg xmlns="http://www.w3.org/2000/svg"><symbol viewBox="0 0 211 214" id="martiriko_naana_2"><path d="M 114.400 37.416 C 111.229 38.809, 110 40.674, 110 44.096 C 110 45.204, 108.612 46.876, 106.750 48.011 C 103.852 49.778, 101.684 49.993, 86.750 49.996 L 70 50 70 71.500 C 70 83.325, 70.316 93, 70.701 93 C 71.087 93, 73.787 91.555, 76.701 89.789 L 82 86.577 82 70.789 L 82 55 97.750 54.920 C 115.775 54.827, 121.398 53.734, 124.356 49.744 C 126.737 46.533, 127.053 40.595, 124.950 38.586 C 122.715 36.451, 117.830 35.909, 114.400 37.416 M 62.500 109.443 C 55.070 112.158, 49.822 121.674, 51.719 128.994 C 52.832 133.292, 56.863 134.975, 60.435 132.635 C 62.303 131.411, 63.058 129.586, 63.994 124.033 C 65.357 115.956, 67.165 114, 73.268 114 C 79.411 114, 82 117.341, 82 125.266 C 82 128.763, 81.148 134.971, 80.106 139.062 C 77.163 150.619, 76.797 153.854, 78.015 157.547 C 79.696 162.640, 83.290 165, 89.363 165 L 94.456 165 90.728 161.927 C 87.393 159.178, 87 158.361, 87 154.174 C 87 151.600, 87.914 146.345, 89.030 142.497 C 91.907 132.581, 91.874 123.328, 88.943 118.113 C 85.446 111.891, 80.063 108.643, 72.644 108.282 C 69.002 108.104, 64.871 108.577, 62.500 109.443 M 108.162 110.606 C 101.833 113.760, 99 118.470, 99 125.838 C 99 131.277, 100.464 133.250, 104.500 133.250 C 108.377 133.250, 109.687 131.461, 111.033 124.327 C 112.535 116.365, 114.563 114, 119.889 114 C 128.865 114, 130.604 120.214, 126.985 139.357 C 124.278 153.673, 124.641 159.434, 128.457 162.717 C 130.360 164.354, 132.370 165, 135.556 165 C 140.183 165, 141.500 163.611, 137.943 162.482 C 136.812 162.123, 135.167 160.321, 134.288 158.477 C 132.777 155.309, 132.835 154.504, 135.353 143.813 C 138.191 131.760, 138.656 124.871, 136.939 120.315 C 135.651 116.899, 130.485 111.346, 126.800 109.415 C 122.382 107.100, 114.140 107.627, 108.162 110.606" stroke="none" fill="" fill-rule="evenodd"/></symbol></svg>