<svg xmlns="http://www.w3.org/2000/svg"><symbol viewBox="0 0 308 191" id="martiriko_nana_3"><path d="M 117.417 47.525 C 117.811 49.094, 119.041 51.653, 120.150 53.210 C 124.312 59.056, 123.646 59, 189.438 59 C 227.877 59, 251.722 59.386, 255.414 60.069 C 258.594 60.657, 261.408 60.925, 261.668 60.666 C 262.696 59.638, 257.855 52.032, 254.773 49.834 L 251.500 47.500 186 47 C 149.644 46.722, 119.655 46.093, 118.600 45.586 C 116.897 44.766, 116.775 44.966, 117.417 47.525 M 200 69.878 C 200 70.360, 200.601 71.254, 201.336 71.864 C 202.071 72.473, 204.343 76.691, 206.385 81.236 C 213.057 96.083, 213.282 96.436, 216.500 97.123 C 218.150 97.475, 223.231 97.817, 227.792 97.882 L 236.084 98 233.683 93.750 C 232.362 91.412, 230.038 86.491, 228.518 82.814 C 225.309 75.050, 221.303 70.511, 216.879 69.626 C 212.198 68.690, 200 68.871, 200 69.878 M 233.437 72.750 C 234.792 74.813, 237.524 80.391, 239.507 85.146 C 244.436 96.964, 244.967 97.348, 257.069 97.834 C 262.531 98.053, 266.990 98.068, 266.979 97.866 C 266.967 97.665, 264.154 91.875, 260.729 85 C 253.213 69.917, 251.987 69.004, 239.236 69.002 L 230.972 69 233.437 72.750 M 49.004 72.643 C 49.010 75.917, 52.803 80.859, 56.921 82.960 C 60.815 84.946, 62.535 85.001, 122.210 85.044 C 155.920 85.068, 185.521 85.477, 187.991 85.953 C 190.462 86.430, 192.821 86.611, 193.234 86.355 C 194.594 85.515, 190.111 78.215, 186.773 75.834 L 183.500 73.500 118 73 C 81.975 72.725, 51.712 72.114, 50.750 71.643 C 49.404 70.984, 49.001 71.214, 49.004 72.643 M 146.815 96.750 C 145.993 97.713, 144.292 101.099, 143.034 104.276 C 141.776 107.453, 139.871 111.166, 138.801 112.526 L 136.855 115 144.253 115 C 153.192 115, 154.210 114.177, 159.421 102.743 L 162.950 95 155.630 95 C 149.895 95, 147.986 95.379, 146.815 96.750 M 169.750 96.750 C 168.891 97.713, 167.022 101.389, 165.596 104.920 C 164.169 108.452, 162.257 112.164, 161.346 113.170 C 159.755 114.928, 159.985 115, 167.171 115 C 176.203 115, 177.201 114.198, 182.421 102.743 L 185.950 95 178.630 95 C 172.920 95, 170.967 95.385, 169.750 96.750 M 45 121 L 45 143 54.500 143 L 64 143 64 124.500 L 64 106 93.500 106 L 123 106 123 102.500 L 123 99 84 99 L 45 99 45 121" stroke="none" fill="" fill-rule="evenodd"/></symbol></svg>