<svg xmlns="http://www.w3.org/2000/svg"><symbol viewBox="0 0 193 175" id="martiriko_nana_2"><path d="M 63.500 63.449 C 55.817 66.267, 50.881 75.107, 52.698 82.793 C 53.760 87.283, 57.761 89.042, 61.435 86.635 C 63.303 85.411, 64.058 83.586, 64.994 78.033 C 66.357 69.956, 68.165 68, 74.268 68 C 80.411 68, 83 71.341, 83 79.266 C 83 82.763, 82.148 88.971, 81.106 93.062 C 78.163 104.619, 77.797 107.854, 79.015 111.547 C 80.696 116.640, 84.290 119, 90.363 119 L 95.456 119 91.728 115.927 C 88.393 113.178, 88 112.361, 88 108.174 C 88 105.600, 88.914 100.345, 90.030 96.497 C 92.721 87.224, 92.848 77.256, 90.338 72.419 C 89.291 70.403, 86.521 67.366, 84.181 65.672 C 80.710 63.157, 78.785 62.534, 73.714 62.286 C 69.990 62.104, 65.897 62.570, 63.500 63.449 M 113.655 63.459 C 106.269 66.092, 102 71.950, 102 79.450 C 102 82.667, 102.586 84.586, 104 86 C 108.375 90.375, 112.326 87.374, 114.021 78.386 C 115.536 70.362, 117.552 68, 122.889 68 C 131.865 68, 133.604 74.214, 129.985 93.357 C 127.278 107.673, 127.641 113.434, 131.457 116.717 C 133.401 118.389, 135.360 119, 138.779 119 L 143.446 119 140.266 116.096 C 138.517 114.498, 136.806 112.075, 136.464 110.711 C 136.113 109.314, 136.967 103.646, 138.421 97.729 C 142.463 81.270, 141.852 74.643, 135.689 68.131 C 130.006 62.127, 122.096 60.449, 113.655 63.459" stroke="none" fill="" fill-rule="evenodd"/></symbol></svg>