<svg xmlns="http://www.w3.org/2000/svg"><symbol viewBox="0 0 179 161" id="martiriko_nana_1"><path d="M 60.655 45.829 C 58.565 48.139, 58.523 52.380, 60.571 54.429 C 62.592 56.450, 67.408 56.450, 69.429 54.429 C 71.450 52.408, 71.450 47.592, 69.429 45.571 C 67.307 43.450, 62.685 43.585, 60.655 45.829 M 108.699 45.780 C 104.693 50.206, 108.059 56.405, 114.150 55.820 C 121.549 55.110, 121.365 44.827, 113.942 44.201 C 111.467 43.993, 109.885 44.470, 108.699 45.780 M 52.052 71.679 C 45.480 75.082, 42.615 79.825, 42.615 87.304 C 42.615 92.649, 44.424 95, 48.536 95 C 51.902 95, 53.756 92.070, 55.033 84.733 C 56.386 76.963, 58.249 75, 64.268 75 C 70.419 75, 73 78.338, 73 86.295 C 73 89.807, 72.163 96.015, 71.140 100.090 C 68.283 111.477, 68.058 113.321, 69.010 117.561 C 70.300 123.303, 73.903 126, 80.284 126 L 85.456 126 81.728 122.927 C 78.451 120.226, 78 119.320, 78 115.438 C 78 113.010, 78.957 107.532, 80.128 103.267 C 84.358 87.847, 82.593 78.765, 74.181 72.672 C 70.753 70.188, 68.722 69.519, 63.714 69.224 C 58.424 68.912, 56.690 69.277, 52.052 71.679 M 103.655 70.459 C 96.269 73.092, 92 78.950, 92 86.450 C 92 89.667, 92.586 91.586, 94 93 C 96.268 95.268, 96.890 95.372, 100.334 94.063 C 102.446 93.260, 102.969 92.111, 103.998 86.010 C 105.432 77.510, 107.538 75, 113.234 75 C 115.996 75, 117.788 75.697, 119.545 77.455 C 122.674 80.583, 122.787 86.418, 119.997 100.785 C 117.605 113.106, 117.508 117.147, 119.510 121.020 C 121.459 124.787, 123.848 126.009, 129.184 125.964 L 133.500 125.928 130.738 123.667 C 126.205 119.956, 125.791 116.383, 128.566 104.924 C 132.489 88.724, 131.799 81.588, 125.689 75.131 C 120.006 69.127, 112.096 67.449, 103.655 70.459" stroke="none" fill="" fill-rule="evenodd"/></symbol></svg>