<svg xmlns="http://www.w3.org/2000/svg"><symbol viewBox="0 0 381 176" id="martiriko_nenanw_1"><path d="M 34.571 45.571 C 31.701 48.442, 32.675 49.869, 37.727 50.195 L 42.454 50.500 43.230 55 C 43.688 57.653, 43.389 66.601, 42.503 76.800 C 40.884 95.433, 40.646 103.980, 41.611 108.807 C 42.358 112.540, 51.379 119, 55.845 119 C 61.609 119, 68 117.702, 68 116.532 C 68 115.874, 69.505 114.874, 71.345 114.309 C 73.972 113.503, 75.315 113.622, 77.595 114.865 C 80.737 116.578, 93.345 117.102, 98.272 115.725 C 100.657 115.059, 100.897 114.675, 99.987 112.975 C 99.092 111.304, 97.878 111, 92.087 111 C 87.825 111, 84.860 110.529, 84.223 109.750 C 83.662 109.063, 82.870 104.450, 82.465 99.500 C 81.115 83.020, 76.662 75.871, 70.535 80.351 C 69.019 81.459, 68.536 83.802, 67.841 93.423 C 67.374 99.870, 66.516 106.036, 65.933 107.126 C 64.796 109.250, 59.287 112.990, 57.285 112.996 C 52.961 113.010, 51.875 100.995, 53.685 73.157 L 55.202 49.815 51.851 46.948 C 48.964 44.478, 47.645 44.076, 42.321 44.041 C 37.995 44.012, 35.672 44.471, 34.571 45.571 M 249.305 48.756 C 243.473 51.210, 239.802 55.047, 237.750 60.833 C 235.422 67.397, 235.447 67.509, 239.604 69.482 C 243.987 71.562, 244.572 71.083, 246.925 63.477 L 248.716 57.689 255.608 54.953 C 261.925 52.445, 262.733 52.337, 265.294 53.657 C 269.369 55.757, 272.203 60.779, 271.598 64.826 C 271.043 68.543, 265.672 78.038, 261.846 82.066 C 259.086 84.973, 251.895 100.362, 251.335 104.561 C 250.715 109.206, 252.975 112.696, 259.105 116.566 C 262.086 118.448, 264.325 119, 268.980 119 C 272.291 119, 275 118.620, 275 118.155 C 275 116.781, 271.762 114.307, 267.846 112.691 C 263.677 110.970, 262.510 108.426, 263.491 103.198 C 264.484 97.905, 266.378 94.667, 275.138 83.288 L 283 73.077 283 66.073 C 283 59.641, 282.743 58.776, 279.845 55.476 C 275.059 50.025, 269.738 47.725, 261 47.329 C 255.474 47.079, 252.396 47.455, 249.305 48.756 M 151.500 49.417 C 145.163 52.246, 141 58.815, 141 65.984 C 141 69.771, 141.082 69.855, 145.737 70.848 C 148.343 71.404, 150.549 71.778, 150.640 71.679 C 150.730 71.581, 151.428 68.350, 152.189 64.500 C 153.551 57.613, 153.647 57.465, 158.107 55.345 C 162.292 53.356, 165.534 52.611, 168.798 52.889 C 169.512 52.950, 171.199 54.191, 172.548 55.646 C 177.588 61.085, 175.272 69.644, 164.141 86.715 C 157.214 97.338, 157 97.855, 157 103.923 C 157 109.352, 157.364 110.578, 159.750 113.191 C 163.203 116.972, 167.792 119, 172.896 119 C 176.514 119, 180 117.082, 180 115.093 C 180 114.672, 177.300 113.577, 174 112.660 C 167.713 110.912, 167.259 110.246, 167.849 103.640 C 168.047 101.428, 181.467 80.425, 184.633 77.371 C 189.071 73.092, 188.274 59.079, 183.257 53.169 C 179.538 48.789, 158.481 46.301, 151.500 49.417 M 113.851 78.571 C 108.195 81.800, 105.021 87.556, 106.775 91.405 C 107.433 92.850, 107.636 96.774, 107.290 101.355 C 106.611 110.325, 107.588 112.397, 114.375 116.374 L 118.876 119.012 125.688 116.549 C 132.482 114.092, 138.539 109.122, 137.725 106.671 C 137.464 105.883, 133.353 105.408, 125.168 105.219 C 114.160 104.965, 113 104.765, 113 103.114 C 113 101.575, 114.113 101.197, 120.118 100.693 C 124.034 100.365, 127.394 99.939, 127.586 99.747 C 127.919 99.414, 125.962 91.951, 125.315 91.086 C 125.144 90.858, 122.304 90.769, 119.002 90.888 C 113.185 91.098, 111.171 89.965, 114.750 88.496 C 115.713 88.100, 120.662 87.541, 125.750 87.252 L 135 86.727 135 83.387 C 135 79.001, 131.880 76.957, 124.286 76.367 C 119.366 75.985, 117.804 76.315, 113.851 78.571 M 198.155 81.523 C 193.217 85.678, 190.683 92.168, 190.585 100.907 C 190.491 109.280, 192.223 113.594, 197.153 117.268 C 199.590 119.085, 200.242 119.141, 205.151 117.964 C 208.753 117.100, 211.426 115.685, 213.352 113.623 C 216.103 110.679, 216.261 110.636, 217.604 112.474 C 218.372 113.523, 219 114.915, 219 115.566 C 219 116.719, 223.302 118, 227.176 118 C 229.426 118, 232 112.682, 232 108.032 C 232 104.938, 230.353 104.047, 228.345 106.055 C 227.278 107.122, 222.364 106.398, 221.533 105.053 C 220.890 104.013, 224.303 93.458, 227.369 87 C 230.979 79.397, 230.865 79, 225.077 79 C 221.301 79, 219.470 79.575, 217.221 81.468 L 214.288 83.935 211.970 81.468 C 208.722 78.010, 202.299 78.036, 198.155 81.523 M 294.131 81.750 C 290.037 85.631, 285.745 97.086, 286.605 101.834 C 287.808 108.477, 290.067 112.719, 294.145 115.996 C 297.704 118.856, 298.641 119.153, 302.270 118.573 C 304.527 118.212, 307.781 117.249, 309.502 116.432 C 312.291 115.109, 313.043 115.120, 316.433 116.536 C 322.245 118.965, 330.264 118.933, 333.571 116.468 C 338.273 112.963, 340 108.438, 340 99.623 L 340 91.716 335.509 86.459 C 330.505 80.601, 325 77.725, 325 80.969 C 325 81.994, 325.527 83.009, 326.171 83.224 C 326.974 83.491, 327.367 87.390, 327.421 95.597 C 327.509 109, 326.162 113, 321.559 113 C 315.878 113, 314.631 110.269, 317.321 103.718 C 318.167 101.658, 318.437 98.521, 318.071 95 C 317.501 89.512, 317.492 89.499, 313.845 89.195 C 310.969 88.956, 309.850 89.376, 308.595 91.168 C 306.480 94.188, 306.609 100.542, 308.887 105.558 C 310.654 109.448, 310.657 109.706, 308.955 111.808 C 306.857 114.398, 301.869 114.752, 299.956 112.447 C 298.076 110.182, 298.404 103.852, 300.998 92.346 C 302.257 86.761, 303.012 81.474, 302.675 80.596 C 301.724 78.118, 297.336 78.711, 294.131 81.750 M 199.912 92.280 C 195.476 95.270, 193.815 98.601, 194.382 103.371 C 195.034 108.860, 196.249 109.729, 200.460 107.720 C 203.027 106.496, 204.735 104.486, 206.970 100.059 C 211.045 91.987, 210.981 90, 206.648 90 C 204.804 90, 201.773 91.026, 199.912 92.280" stroke="none" fill="" fill-rule="evenodd"/></symbol></svg>