<svg xmlns="http://www.w3.org/2000/svg"><symbol viewBox="0 0 186 197" id="martiriko_legetos_1"><path d="M 85.271 34.071 C 80.172 36.624, 75.454 41.793, 72.606 47.949 C 70.782 51.891, 70.500 54.373, 70.500 66.500 C 70.500 79.063, 70.729 80.928, 72.727 84.666 C 76.006 90.797, 80.173 93.353, 87.674 93.830 C 93.038 94.172, 94.569 93.856, 98.371 91.629 C 104.167 88.232, 107.093 82.410, 107.132 74.195 C 107.185 63.140, 100.660 55.154, 90.800 54.207 C 84.357 53.588, 80.367 55.580, 76.686 61.257 C 73.625 65.979, 73.227 64.701, 75.076 56.080 C 76.093 51.338, 76.354 51.029, 79.826 50.466 C 94.176 48.138, 100.097 45.594, 102.032 40.924 C 102.928 38.759, 102.884 37.528, 101.832 35.325 C 100.623 32.794, 99.910 32.472, 94.991 32.227 C 90.983 32.028, 88.358 32.526, 85.271 34.071 M 86.203 37.730 C 84.390 38.714, 81.937 41.051, 80.752 42.923 L 78.597 46.326 83.897 45.699 C 91.499 44.798, 96.500 42.140, 96.500 39 C 96.500 36.863, 95.992 36.459, 93 36.221 C 91.032 36.064, 88.057 36.725, 86.203 37.730 M 84.381 58.162 C 83.216 58.727, 81.322 60.861, 80.173 62.906 C 73.902 74.064, 78.728 91, 88.179 91 C 95.266 91, 99.015 85.143, 98.978 74.128 C 98.935 61.085, 92.615 54.172, 84.381 58.162 M 58.418 102.919 C 55.573 104.138, 51 109.740, 51 112.005 C 51 113.903, 53.474 117, 54.990 117 C 57.339 117, 59.268 115.395, 61 112 C 63.080 107.923, 64.581 107, 69.131 107 C 76.715 107, 80.705 112.400, 79.657 121.247 C 79.015 126.667, 77.894 129.232, 69.141 145.309 L 63.800 155.118 68.503 154.809 L 73.207 154.500 79.476 142.674 L 85.745 130.848 90.362 137.792 C 97.981 149.253, 112 160.050, 112 154.457 C 112 153.609, 109.975 150.749, 107.500 148.103 C 105.025 145.457, 103 142.932, 103 142.491 C 103 142.049, 105.706 136.380, 109.014 129.892 L 115.028 118.096 111.579 117.449 C 109.682 117.093, 107.673 117.084, 107.115 117.429 C 106.556 117.774, 103.939 121.866, 101.300 126.522 C 98.660 131.178, 96.209 134.990, 95.854 134.993 C 94.450 135.008, 89.110 125.119, 86.961 118.527 C 85.332 113.530, 83.479 110.274, 80.422 107.038 L 76.155 102.522 68.327 102.274 C 64.022 102.138, 59.563 102.428, 58.418 102.919" stroke="none" fill="" fill-rule="evenodd"/></symbol></svg>