<svg xmlns="http://www.w3.org/2000/svg"><symbol viewBox="0 0 198 151" id="martiriko_legetos_2"><path d="M 39.861 37.967 L 37.500 39.933 41.032 39.967 C 51.611 40.066, 62.964 46.506, 67.949 55.235 C 70.755 60.147, 70.776 60.303, 69.267 64.864 C 67.612 69.867, 63.819 75.246, 53.655 87 C 46.519 95.254, 46.499 95.133, 55.212 96.417 C 58.098 96.842, 60.726 96.682, 61.993 96.004 C 64.222 94.811, 74.237 81.769, 76.153 77.564 L 77.320 75.002 80.716 80.044 C 82.883 83.263, 87.544 87.633, 93.600 92.126 C 102.001 98.357, 103.801 99.267, 109.295 100.062 C 118.375 101.376, 123 101.245, 123 99.675 C 123 98.946, 120.555 96.584, 117.566 94.425 C 112.391 90.688, 112.080 90.209, 111.066 84.418 C 109.757 76.948, 109.723 74.289, 110.927 73.545 C 111.737 73.044, 134.674 75.196, 142.250 76.483 C 144.738 76.906, 145 76.667, 145 73.975 C 145 72.264, 144.469 70.998, 143.750 70.995 C 143.063 70.992, 133.275 69.875, 122 68.512 C 110.725 67.149, 100.713 66.027, 99.750 66.017 C 98.286 66.003, 98 66.932, 98 71.704 L 98 77.409 89.507 63.954 C 79.515 48.127, 79.825 48.527, 73.805 43.652 C 66.933 38.086, 60.608 36, 50.600 36 C 43.736 36, 41.795 36.355, 39.861 37.967" stroke="none" fill="" fill-rule="evenodd"/></symbol></svg>