<svg xmlns="http://www.w3.org/2000/svg"><symbol viewBox="0 0 245 187" id="martiriko_xeanes_1"><path d="M 43.517 28.981 C 41.242 31.496, 42.230 32.810, 49.464 36.893 C 53.509 39.176, 55.291 40.970, 56.980 44.459 C 61.365 53.516, 61.139 54.747, 51.605 73.790 C 46.872 83.243, 43 91.208, 43 91.489 C 43 91.770, 44.733 92, 46.850 92 L 50.700 92 56.493 79.755 L 62.286 67.510 64.462 75.005 C 68.528 89.005, 72.174 93.926, 77.493 92.591 C 79.452 92.100, 80 91.324, 80 89.048 C 80 86.827, 78.977 85.295, 75.698 82.609 C 69.575 77.592, 67.390 72.366, 63.930 54.463 C 62.253 45.786, 59.989 36.940, 58.900 34.804 C 55.390 27.925, 47.259 24.847, 43.517 28.981 M 157.223 81.557 C 153.118 84.432, 155.308 91, 160.371 91 C 163.362 91, 165 89.180, 165 85.857 C 165 83.481, 162.028 80, 160 80 C 159.695 80, 158.445 80.701, 157.223 81.557 M 135.571 82.571 C 132.385 85.758, 134.776 91, 139.416 91 C 141.980 91, 145 88.157, 145 85.743 C 145 83.405, 142.211 81, 139.500 81 C 138.204 81, 136.436 81.707, 135.571 82.571 M 100.320 85.401 C 98.072 87.335, 97.549 88.588, 97.634 91.836 C 97.759 96.569, 100.358 101.443, 104.334 104.395 C 106.958 106.344, 108.369 106.492, 123.334 106.389 C 132.225 106.328, 148.255 105.772, 158.955 105.154 C 176.778 104.125, 178.707 104.176, 181.955 105.765 C 186.685 108.080, 186.819 111.631, 182.282 114.479 C 176.815 117.913, 176.754 122.787, 182.144 125.574 C 188.831 129.033, 195 124.327, 195 115.766 C 195 106.166, 190.128 100.885, 179.440 98.898 C 173.492 97.793, 160.876 98.081, 129.971 100.029 C 121.980 100.533, 114.105 100.588, 112.471 100.151 C 108.624 99.122, 108.182 96.477, 111.303 93.151 C 114.158 90.109, 113.678 87.289, 109.849 84.607 C 106.628 82.351, 103.570 82.606, 100.320 85.401 M 52 99.692 C 43.853 101.059, 40.756 103.682, 39.854 109.975 C 39.404 113.123, 42.524 114.074, 43.475 111.079 C 44.142 108.976, 51.395 106.062, 52.704 107.371 C 54.191 108.858, 51.185 120.669, 48.003 125.841 C 43.077 133.847, 43.919 139.455, 49.745 137.434 C 54.457 135.800, 55.997 131.076, 55.998 118.250 L 56 107 60.500 107 L 65 107 65 118.351 C 65 124.594, 65.472 131.057, 66.050 132.713 C 67.061 135.613, 70.466 138, 73.593 138 C 76.445 138, 80 133.309, 80 129.545 C 80 125.728, 78.224 124.820, 76 127.500 C 75.315 128.325, 74 129, 73.078 129 C 69.729 129, 69 126.820, 69 116.800 L 69 107 75.500 107 L 82 107 82 103 L 82 99 68.250 99.136 C 60.688 99.211, 53.375 99.461, 52 99.692" stroke="none" fill="" fill-rule="evenodd"/></symbol></svg>