<svg xmlns="http://www.w3.org/2000/svg"><symbol viewBox="0 0 199 206" id="martiriko_aneanes_1"><path d="M 54.046 37.762 C 50.914 40.298, 51.803 42.358, 57.201 45.068 C 59.566 46.255, 62.508 48.149, 63.740 49.278 C 66.086 51.427, 70 60.662, 70 64.049 C 70 65.134, 66.175 73.662, 61.500 83 C 56.825 92.338, 53 100.208, 53 100.489 C 53 100.770, 54.697 101, 56.770 101 L 60.540 101 66.382 89.265 L 72.223 77.530 75.378 87.202 C 77.122 92.549, 79.610 98.021, 80.941 99.437 C 85.276 104.051, 92.045 101.856, 90 96.500 C 89.580 95.400, 87.432 93.056, 85.227 91.290 C 79.554 86.749, 77.322 81.328, 73.946 63.889 C 72.319 55.483, 70.068 46.706, 68.945 44.386 C 65.541 37.354, 58.445 34.200, 54.046 37.762 M 133.655 89.829 C 131.589 92.111, 131.564 93.932, 133.557 96.777 C 136.493 100.970, 142 99.074, 142 93.871 C 142 88.679, 136.922 86.219, 133.655 89.829 M 112.632 91.115 C 110.342 94.384, 112.588 99, 116.467 99 C 118.988 99, 122 96.138, 122 93.743 C 122 89.310, 115.227 87.410, 112.632 91.115 M 135 109.500 C 135 112.440, 135.047 112.427, 131.364 110.506 C 129.789 109.685, 126.423 109.010, 123.885 109.006 C 118.381 108.999, 115.058 111.262, 110.864 117.875 C 105.910 125.688, 107.486 136.416, 114.326 141.429 C 118.299 144.340, 126.857 144.221, 130.947 141.197 C 132.582 139.989, 134.162 139, 134.460 139 C 134.757 139, 135 145.075, 135 152.500 L 135 166 138 166 L 141 166 141 136.500 L 141 107 138 107 C 135.467 107, 135 107.389, 135 109.500 M 62.975 108.960 C 54.583 110.066, 51.702 112.066, 50.013 117.955 C 48.787 122.229, 51.246 123.229, 54.089 119.613 C 55.617 117.671, 57.058 117, 59.701 117 L 63.258 117 62.572 122.168 C 61.863 127.512, 60.732 130.452, 56.553 137.807 C 54.795 140.902, 54.333 142.730, 54.911 144.307 C 56.103 147.555, 60.057 147.632, 63.033 144.466 C 65.334 142.017, 65.524 141.002, 65.853 129.420 L 66.206 117 70.603 117 L 75 117 75 127.851 C 75 133.819, 75.497 140.128, 76.105 141.872 C 79.066 150.364, 90 147.604, 90 138.365 C 90 134.723, 88.179 133.874, 86 136.500 C 84.362 138.473, 80.376 138.422, 79.607 136.418 C 79.273 135.548, 79 130.845, 79 125.966 L 79 117.095 85.250 116.798 L 91.500 116.500 91.500 112.500 L 91.500 108.500 80 108.366 C 73.675 108.293, 66.014 108.560, 62.975 108.960 M 120.096 117.265 C 116.739 118.990, 114.050 122.916, 113.375 127.079 C 112.263 133.931, 119.815 139.379, 126.500 136.547 C 132.251 134.111, 135.197 127.904, 133.608 121.572 C 132.462 117.007, 125.140 114.673, 120.096 117.265" stroke="none" fill="" fill-rule="evenodd"/></symbol></svg>