<svg xmlns="http://www.w3.org/2000/svg"><symbol viewBox="0 0 200 167" id="martiriko_varis_diatono"><path d="M 31.999 45.346 C 32 45.811, 32.772 47.498, 33.715 49.095 C 37.145 54.901, 37.761 54.956, 102.250 55.241 C 134.563 55.383, 161.001 55.133, 161 54.684 C 160.999 52.698, 158.739 50, 155.263 47.839 C 151.514 45.508, 151.365 45.499, 114 45.247 C 93.375 45.108, 66.487 44.883, 54.249 44.747 C 42.011 44.611, 31.998 44.881, 31.999 45.346 M 84.042 69.568 C 85.255 71.531, 87.076 74.851, 88.089 76.948 C 90.309 81.542, 91.345 82, 99.527 82 L 105.891 82 102.406 75.750 C 97.520 66.990, 96.089 66, 88.308 66 L 81.837 66 84.042 69.568 M 105.229 67.750 C 106.075 68.713, 107.772 71.525, 109 74 C 112.731 81.519, 113.466 82, 121.214 82 L 128.117 82 124.885 75.936 C 120.367 67.459, 118.212 66, 110.210 66 C 104.081 66, 103.782 66.105, 105.229 67.750 M 39.312 80.719 C 37.444 80.952, 34.350 82.693, 31.835 84.924 C 28.144 88.200, 27.545 89.284, 27.545 92.694 C 27.545 98.152, 29.956 101.342, 36.499 104.543 C 42.981 107.715, 48.687 107.559, 56.749 103.993 L 61.500 101.891 63.500 104.252 C 67.480 108.952, 76.793 116.017, 82.583 118.729 C 88.153 121.338, 89.291 121.497, 102 121.457 C 113.928 121.419, 116.257 121.123, 122 118.918 C 129.660 115.978, 137.895 110.536, 147.308 102.193 C 151.399 98.568, 156.104 95.444, 159.094 94.369 C 161.831 93.385, 164.791 91.784, 165.671 90.811 C 167.142 89.186, 167.135 88.989, 165.587 88.395 C 164.661 88.040, 160.437 87.956, 156.201 88.209 C 146.754 88.773, 143.546 90.321, 129.210 101.234 C 102.997 121.189, 96.350 120.992, 74.584 99.623 C 68.488 93.637, 61.176 87.235, 58.336 85.395 C 53.754 82.425, 46.294 79.806, 43.500 80.184 C 42.950 80.259, 41.066 80.499, 39.312 80.719 M 39.400 85.765 C 36.530 87.682, 35.879 90.944, 37.631 94.635 C 40.465 100.607, 51.032 103.224, 56.016 99.188 C 59.283 96.543, 57.494 92.586, 50.615 87.241 C 47.753 85.018, 41.710 84.222, 39.400 85.765" stroke="none" fill="" fill-rule="evenodd"/></symbol></svg>