<svg xmlns="http://www.w3.org/2000/svg"><symbol viewBox="0 0 185 192" id="martiriko_protovaris"><path d="M 98.751 48.771 C 96.913 49.165, 95.587 52.643, 96.161 55.564 C 97.023 59.946, 104.471 59.957, 105.570 55.578 C 106.682 51.145, 103.323 47.791, 98.751 48.771 M 76.571 50.571 C 73.441 53.702, 75.492 59, 79.835 59 C 83.345 59, 85 57.345, 85 53.835 C 85 49.492, 79.702 47.441, 76.571 50.571 M 98 69.500 C 98 72.460, 98.235 72.414, 93.408 70.397 C 91.020 69.399, 88.096 68.992, 85.665 69.318 C 78.629 70.262, 71.044 79.954, 71.044 88 C 71.044 93.103, 74.369 99.634, 78.192 102.041 C 82.396 104.688, 90.916 104.177, 95.182 101.024 L 98 98.940 98 112.970 L 98 127 101.500 127 L 105 127 105 97 L 105 67 101.500 67 C 98.433 67, 98 67.310, 98 69.500 M 86 76.631 C 79.956 78.706, 77 82.871, 77 89.312 C 77 93.548, 81.576 98, 85.929 98 C 95.283 98, 101.967 83.258, 94.734 78.580 C 92.018 76.824, 88.031 75.934, 86 76.631 M 30.395 100.946 C 23.479 102.598, 18.261 109.360, 19.511 115.050 C 21.007 121.863, 31.921 127.908, 40.304 126.567 C 42.565 126.206, 46.422 125.022, 48.874 123.937 L 53.333 121.965 57.917 126.559 C 64.141 132.798, 73.143 138.668, 79.282 140.491 C 85.910 142.459, 100.560 142.428, 108.276 140.429 C 119.016 137.646, 129.963 131.113, 139.776 121.631 C 142.128 119.359, 147.268 115.925, 151.199 114 C 155.131 112.075, 158.273 110.050, 158.183 109.500 C 157.950 108.086, 145.818 107.703, 141.142 108.962 C 137.020 110.072, 126.829 116.543, 116.023 124.914 C 95.285 140.978, 86.747 139.875, 65.227 118.356 C 49.313 102.442, 41.171 98.372, 30.395 100.946 M 31.185 105.684 C 26.402 107.597, 28.775 117.172, 34.640 119.623 C 39.381 121.604, 45.334 121.363, 48.139 119.076 L 50.500 117.152 48.532 113.464 C 45.057 106.952, 37.023 103.348, 31.185 105.684" stroke="none" fill="" fill-rule="evenodd"/></symbol></svg>