<svg xmlns="http://www.w3.org/2000/svg"><symbol viewBox="0 0 193 198" id="martiriko_agie"><path d="M 37.441 33.441 C 34.772 35.423, 36.358 37.787, 42.368 40.784 C 47.731 43.458, 51.308 48.262, 53.168 55.288 L 54.435 60.077 45.718 77.546 C 40.923 87.154, 37 95.489, 37 96.068 C 37 96.673, 38.594 96.989, 40.750 96.810 C 44.463 96.503, 44.555 96.388, 50 85.289 C 53.025 79.123, 55.779 73.819, 56.119 73.503 C 56.460 73.187, 57.490 75.918, 58.408 79.574 C 60.817 89.165, 64.262 95.452, 67.944 96.977 C 70.384 97.988, 71.305 97.992, 72.501 96.999 C 75.255 94.714, 74.221 91.317, 69.398 86.805 C 62.951 80.774, 61.651 77.660, 58 59.500 C 54.584 42.509, 52.676 37.464, 48.393 34.095 C 45.308 31.668, 40.237 31.366, 37.441 33.441 M 132.223 73.557 C 129.214 75.664, 129.348 79.526, 132.500 81.592 C 134.816 83.109, 135.184 83.109, 137.500 81.592 C 140.652 79.526, 140.786 75.664, 137.777 73.557 C 136.555 72.701, 135.305 72, 135 72 C 134.695 72, 133.445 72.701, 132.223 73.557 M 111.011 74.979 C 108.816 79.081, 112.334 83.510, 116.849 82.329 C 119.354 81.674, 120.779 77.464, 119.296 75.095 C 117.702 72.548, 112.353 72.473, 111.011 74.979 M 121.238 92.546 C 120.024 93.396, 117.898 96.023, 116.515 98.384 C 114.220 102.301, 114 103.689, 114 114.266 L 114 125.855 108.644 125.303 C 98.727 124.279, 93.510 127.679, 91.065 136.759 C 89.481 142.640, 91.058 147.966, 95.549 151.909 C 102.355 157.884, 113.154 155.281, 117.036 146.729 C 118.659 143.154, 118.969 140.026, 119.038 126.500 C 119.132 107.999, 119.917 101.931, 122.701 98.188 C 125.224 94.796, 127.987 94.359, 131.081 96.864 C 133.437 98.773, 133.503 99.218, 133.611 113.973 C 133.672 122.305, 134.130 129.530, 134.628 130.028 C 135.127 130.527, 137.327 131.306, 139.517 131.759 L 143.500 132.584 144.124 138.542 C 145.219 148.995, 147.661 152.442, 154.776 153.580 C 158.288 154.142, 159 153.981, 159 152.628 C 159 151.676, 158.184 151, 157.035 151 C 154.128 151, 152.855 147.699, 152.265 138.623 C 151.974 134.155, 151.290 129.938, 150.745 129.250 C 150.201 128.563, 148.348 127.993, 146.628 127.985 C 144.907 127.976, 142.984 127.639, 142.354 127.235 C 141.625 126.767, 141.069 121.779, 140.825 113.500 C 140.539 103.814, 140.014 99.706, 138.765 97.385 C 135.758 91.798, 126.109 89.134, 121.238 92.546 M 43.500 104.929 C 38.318 106.179, 36.293 107.811, 34.565 112.128 C 33.209 115.517, 33.139 116.474, 34.195 117.153 C 35.060 117.709, 36.196 117.139, 37.564 115.463 C 38.836 113.903, 41.099 112.696, 43.470 112.311 L 47.312 111.688 46.639 117.410 C 46.195 121.190, 44.616 125.683, 41.989 130.642 C 38.877 136.515, 38.228 138.558, 39.011 140.020 C 40.471 142.748, 41.522 143.132, 44.464 142.014 C 48.600 140.441, 50 135.639, 50 123.032 L 50 112 54.500 112 L 59 112 59 123.032 C 59 135.548, 60.409 140.444, 64.452 141.982 C 69.757 143.999, 74 140.259, 74 133.566 C 74 129.527, 71.787 128.661, 70 132 C 68.638 134.545, 65.381 134.581, 64.035 132.066 C 63.466 131.002, 63 126.052, 63 121.066 L 63 112 69.500 112 L 76 112 76 108 L 76 104 61.250 104.102 C 53.138 104.159, 45.150 104.531, 43.500 104.929 M 105.284 130.714 C 104.065 130.943, 101.928 132.485, 100.534 134.142 C 95.436 140.201, 98.476 151, 105.280 151 C 109.669 151, 114 144.020, 114 136.948 C 114 132.321, 110.406 129.751, 105.284 130.714" stroke="none" fill="" fill-rule="evenodd"/></symbol></svg>