<svg xmlns="http://www.w3.org/2000/svg"><symbol viewBox="0 0 153 240" id="martiriko_agia_1"><path d="M 67.115 77.294 C 61.552 89.556, 57 100.131, 57 100.794 C 57 101.700, 62.604 102, 79.500 102 C 91.875 102, 102 101.620, 102 101.155 C 102 100.690, 101.177 99.565, 100.171 98.655 C 98.649 97.278, 95.947 97, 84.063 97 L 69.783 97 70.352 94.750 C 70.666 93.513, 74.539 84.434, 78.961 74.576 C 83.382 64.718, 87 56.280, 87 55.826 C 87 55.372, 84.802 55, 82.115 55 L 77.231 55 67.115 77.294 M 64.713 112.621 C 63.491 113.843, 63.932 117.698, 65.436 118.947 C 67.778 120.891, 71.193 118.499, 70.810 115.183 C 70.576 113.157, 69.878 112.427, 67.963 112.204 C 66.567 112.041, 65.104 112.229, 64.713 112.621 M 86.082 113.401 C 85.396 114.228, 85.114 115.784, 85.455 116.860 C 86.898 121.406, 93.359 119.933, 92.810 115.183 C 92.574 113.142, 91.881 112.428, 89.914 112.199 C 88.492 112.034, 86.768 112.575, 86.082 113.401 M 70.838 127.526 C 66.097 130.101, 64.632 136.137, 65.444 149.748 C 66.542 168.133, 64.531 173.228, 55.606 174.677 L 52 175.262 52 169.779 C 52 162.879, 54.824 158.278, 60.750 155.526 C 63.087 154.440, 65 153.203, 65 152.776 C 65 151.240, 56.840 152.041, 53.113 153.942 C 48.649 156.220, 46.468 159.221, 44.831 165.340 C 43.825 169.104, 43.908 170.469, 45.374 174.309 C 48.762 183.180, 58.099 185.120, 65.747 178.541 L 68.498 176.175 68.999 157.237 C 69.573 135.554, 69.853 134.720, 76.414 135.200 L 80.500 135.500 80.619 140.662 C 80.801 148.514, 81.622 150.484, 85.887 153.306 C 90.126 156.112, 90.243 156.466, 91.556 170.500 C 92.339 178.880, 93.949 182.357, 97.703 183.775 C 102.058 185.420, 107 186.058, 107 184.975 C 107 184.439, 106.380 184, 105.622 184 C 102.499 184, 101.648 180.962, 101.574 169.540 C 101.492 157.021, 100.567 154.763, 95.070 153.664 C 91.738 152.998, 91.392 151.951, 90.405 139.551 C 89.483 127.966, 87.851 125.981, 79.295 126.040 C 76.108 126.062, 72.302 126.731, 70.838 127.526" stroke="none" fill="" fill-rule="evenodd"/></symbol></svg>