<svg xmlns="http://www.w3.org/2000/svg"><symbol viewBox="0 0 279 151" id="martiriko_legetos_3"><path d="M 34.130 44.815 L 31.760 46.690 38.074 47.350 C 48.874 48.479, 58.168 54.451, 62.534 63.066 L 64.998 67.930 62.973 73.343 C 61.555 77.133, 57.964 82.219, 50.999 90.304 C 41.213 101.665, 41.095 101.861, 43.776 102.392 C 51.677 103.957, 53.966 104.088, 55.841 103.085 C 58.170 101.838, 65.988 91.985, 69.365 86.041 L 71.616 82.077 75.524 87.470 C 77.781 90.586, 83.185 95.675, 88.322 99.522 C 96.121 105.365, 97.967 106.291, 103.356 107.071 C 117.864 109.170, 120.550 107.586, 112.298 101.798 C 109.712 99.984, 107.248 98.255, 106.823 97.956 C 105.512 97.034, 103.631 81.969, 104.694 80.906 C 105.517 80.083, 125.960 81.744, 136.142 83.461 C 138.336 83.831, 138.867 83.477, 139.269 81.375 C 139.535 79.980, 139.247 78.662, 138.626 78.442 C 137.578 78.069, 96.017 73, 94.006 73 C 93.505 73, 92.961 75.730, 92.798 79.068 L 92.500 85.135 84 71.319 C 70.393 49.202, 62.980 43.721, 46 43.220 C 37.948 42.982, 36.139 43.226, 34.130 44.815 M 115.384 55.442 C 115.080 56.234, 114.987 57.694, 115.178 58.685 C 115.573 60.737, 123.866 62.250, 141.776 63.538 C 147.428 63.944, 152.235 64.572, 152.458 64.932 C 153.328 66.340, 149.057 73.821, 143.852 80.007 C 137.125 88.002, 135.581 91.560, 136.494 96.964 C 137.029 100.133, 137.852 101.389, 140.182 102.594 C 144.462 104.807, 149.303 103.701, 160.679 97.909 C 165.982 95.209, 170.664 93, 171.083 93 C 171.502 93, 172.343 94.509, 172.951 96.353 C 174.344 100.573, 177.408 102, 185.079 102 C 192.113 102, 196.259 100.467, 201.374 95.977 C 207.730 90.396, 210.734 82, 208.721 75.442 C 207.458 71.328, 202.925 69.437, 196.709 70.431 C 192.504 71.103, 182.316 76.694, 179.876 79.669 C 177.887 82.092, 162.147 92.097, 158.823 93.051 C 154.076 94.412, 154.018 90.504, 158.587 77.311 L 162.494 66.030 168.997 66.208 C 180.216 66.514, 183.279 62.624, 175.289 58.216 C 171.856 56.322, 168.702 55.740, 157.800 54.988 C 136.215 53.499, 116.047 53.715, 115.384 55.442 M 220.500 72.070 C 218.811 72.572, 216.451 74.512, 215.099 76.513 C 212.784 79.938, 212.738 80.349, 213.822 88.013 C 214.823 95.096, 214.744 96.426, 213.093 100.231 C 210.519 106.165, 207.668 108.453, 199 111.540 C 194.875 113.009, 191.155 114.531, 190.734 114.921 C 189.776 115.810, 205.766 113.627, 212.500 111.950 C 219.310 110.254, 223.896 107.806, 227.697 103.838 C 232.735 98.579, 233.779 95.118, 232.637 87.474 C 231.822 82.019, 231.936 80.356, 233.330 77.434 C 236.116 71.591, 235.729 70.989, 229.250 71.090 C 226.088 71.140, 222.150 71.581, 220.500 72.070 M 196.249 79.333 C 190.223 85.535, 189 87.747, 189 92.434 C 189 97.418, 191.872 97.181, 197.299 91.750 C 200.512 88.534, 201.844 86.204, 202.773 82.174 C 204.304 75.528, 204.300 75.329, 202.634 74.690 C 201.849 74.389, 199.132 76.364, 196.249 79.333" stroke="none" fill="" fill-rule="evenodd"/></symbol></svg>