<svg xmlns="http://www.w3.org/2000/svg"><symbol viewBox="0 0 332 255" id="xamiles_oligon_10_1"><path d="M 46.294 22.785 C 47.789 24.345, 51.137 31.110, 53.911 38.176 C 56.634 45.109, 60.212 53.458, 61.863 56.729 C 65.592 64.115, 74.314 72.302, 82.588 76.182 C 93.458 81.279, 100.004 82.188, 129.665 82.721 L 156.830 83.208 158.665 88.854 L 160.500 94.500 170.884 94.786 L 181.267 95.073 180.634 91.286 C 180.286 89.204, 179.723 86.487, 179.384 85.250 L 178.767 83 198.383 83 L 218 83 218 80 L 218 77 197.618 77 L 177.237 77 174.868 70.250 L 172.500 63.500 162.250 63.215 C 150.771 62.896, 151.140 62.593, 153.511 70.409 C 154.330 73.109, 155 75.696, 155 76.159 C 155 77.705, 120.086 77.108, 113.014 75.442 C 96.699 71.596, 87.988 60.887, 78.087 32.500 C 76.360 27.550, 74.010 22.712, 72.863 21.750 C 71.102 20.272, 68.671 20, 57.202 20 L 43.626 20 46.294 22.785 M 26.244 56.750 C 27.683 58.263, 30.861 64.675, 33.305 71 C 40.834 90.487, 43.490 95.313, 50.015 101.354 C 63.017 113.391, 72.929 115.923, 110.108 116.702 L 136.717 117.260 138.409 122.630 L 140.102 128 150.676 128 L 161.250 128 160.673 125.117 C 160.356 123.531, 159.801 121.056, 159.440 119.617 L 158.783 117 177.892 117 L 197 117 197 114 L 197 111 177.058 111 L 157.115 111 154.861 104 L 152.606 97 142.303 97 C 130.760 97, 131.098 96.709, 133.489 104.591 C 134.308 107.291, 134.983 109.889, 134.989 110.365 C 134.995 110.841, 125.888 111.019, 114.750 110.762 C 96.512 110.340, 93.861 110.056, 88.068 107.897 C 77.886 104.103, 71.970 97.994, 65.485 84.576 C 62.541 78.484, 58.950 69.900, 57.506 65.500 C 53.769 54.116, 53.564 54, 37.202 54 L 23.626 54 26.244 56.750 M 72.150 127.980 C 63.325 130.358, 59.606 132.534, 54.032 138.581 C 48.332 144.765, 45.601 151.105, 46.424 156.248 C 47.607 163.649, 55.277 172.440, 63.889 176.267 C 68.879 178.484, 82.530 178.890, 87.577 176.971 L 90.496 175.861 85.194 174.066 C 78.718 171.873, 74.544 168.048, 72.693 162.606 C 70.053 154.849, 74.887 146.987, 85.876 141.164 C 100.300 133.522, 122.464 135.079, 147.463 145.490 C 159.315 150.426, 166.409 154.509, 169.484 158.163 C 173.077 162.434, 172.906 168.180, 169 174.339 C 167.350 176.941, 166 179.305, 166 179.593 C 166 179.881, 174.979 179.978, 185.952 179.808 C 207.654 179.473, 210.009 178.907, 206.426 174.885 C 203.410 171.500, 167.971 148.429, 157.724 143.180 C 146.145 137.248, 134.653 132.707, 122.755 129.362 C 114.846 127.138, 111.029 126.704, 96.500 126.379 C 81.898 126.052, 78.463 126.278, 72.150 127.980 M 199.183 140.750 C 199.375 141.162, 200.650 143.257, 202.016 145.404 C 203.382 147.551, 206.983 154.967, 210.018 161.883 C 214.068 171.114, 216.196 174.793, 218.018 175.715 C 219.620 176.525, 225.044 176.976, 233.318 176.985 L 246.136 177 244.119 174.167 C 243.009 172.608, 240.286 167.149, 238.068 162.034 C 229.204 141.597, 227.218 140.058, 209.667 140.022 C 203.708 140.010, 198.990 140.338, 199.183 140.750 M 240 140.509 C 240 140.788, 241.266 142.765, 242.814 144.902 C 244.362 147.039, 247.772 153.965, 250.393 160.293 C 257.089 176.463, 257.033 176.424, 273.652 176.829 L 287.149 177.158 285.406 174.497 C 284.447 173.034, 281.533 167.160, 278.929 161.445 C 269.747 141.287, 268.130 140.057, 250.750 140.022 C 244.838 140.010, 240 140.229, 240 140.509 M 46.654 190.250 C 47.845 196.654, 52.199 202.217, 58.565 205.469 L 64.500 208.500 174.500 209.122 C 235 209.464, 286.188 210.076, 288.250 210.482 C 290.313 210.887, 292 210.917, 292 210.547 C 292 207.818, 286.329 198.796, 282.863 196.010 C 275.252 189.894, 278.081 190.033, 160.718 190.016 C 68.087 190.002, 53.460 189.801, 50.346 188.500 C 45.737 186.574, 45.952 186.472, 46.654 190.250" stroke="none" fill="" fill-rule="evenodd"/></symbol></svg>