<svg xmlns="http://www.w3.org/2000/svg"><symbol viewBox="0 0 362 273" id="xamiles_oligon_9_1"><path d="M 52.329 36.821 C 53.871 38.431, 57.352 45.465, 60.436 53.206 C 67.374 70.613, 69.265 74.248, 74.148 79.544 C 82.477 88.581, 94.443 93.820, 111.500 95.898 C 116.450 96.501, 130.050 96.996, 141.722 96.997 L 162.944 97 164.543 102.500 L 166.142 108 176.980 108 L 187.819 108 186.421 102.750 C 185.653 99.862, 185.018 97.388, 185.012 97.250 C 185.005 97.112, 193.775 97, 204.500 97 L 224 97 224 94 L 224 91 203.714 91 L 183.427 91 181 84 L 178.573 77 168.286 77 C 156.815 77, 157.172 76.699, 159.511 84.409 C 160.330 87.109, 161 89.748, 161 90.274 C 161 90.866, 153.280 91.057, 140.750 90.776 C 122.954 90.378, 119.816 90.057, 114.855 88.129 C 107.400 85.231, 101.799 81.066, 97.543 75.252 C 93.918 70.300, 85.093 50.790, 82.955 43 C 82.275 40.525, 80.632 37.487, 79.304 36.250 C 77.044 34.145, 76.011 34, 63.257 34 L 49.626 34 52.329 36.821 M 37 74.597 C 37 75.034, 38.069 76.540, 39.376 77.945 C 40.682 79.350, 44.325 87.025, 47.471 95 C 54.572 113.002, 56.608 116.563, 63.179 122.471 C 69.610 128.253, 75.864 131.495, 85.846 134.221 C 92.426 136.019, 97.424 136.395, 121.452 136.906 L 149.404 137.500 150.876 142.243 C 151.685 144.852, 152.123 147.210, 151.849 147.484 C 151.575 147.758, 147.508 146.868, 142.811 145.506 C 131.583 142.251, 122.782 141.044, 110.095 141.020 C 99.903 141, 99.725 141.039, 101.425 142.917 C 102.495 144.099, 105.143 145.080, 108.330 145.475 C 119.904 146.909, 131.078 149.341, 141.359 152.663 C 151.117 155.815, 152.779 156.713, 157.739 161.517 L 163.259 166.864 162.780 172.634 C 162.340 177.940, 161.950 178.717, 157.936 182.278 C 155.536 184.409, 152.093 186.770, 150.286 187.525 C 139.372 192.085, 158.386 196.690, 170.928 192.524 C 178.269 190.086, 183 184.311, 183 177.788 C 183 175.119, 182.352 171.385, 181.560 169.489 C 179.296 164.071, 171.318 157.084, 162.553 152.844 L 154.606 149 164.420 149 C 174.113 149, 174.226 148.972, 173.616 146.750 C 173.277 145.512, 172.717 142.813, 172.372 140.750 L 171.744 137 190.872 137 L 210 137 210 134.021 L 210 131.041 189.848 130.771 L 169.697 130.500 167.461 124.500 L 165.225 118.500 154.673 118.217 L 144.122 117.934 146.015 124.552 L 147.908 131.171 126.704 130.788 C 107.577 130.443, 104.942 130.185, 99.798 128.149 C 90.348 124.409, 84.695 118.423, 78.493 105.592 C 75.544 99.491, 71.941 90.900, 70.486 86.500 C 66.544 74.580, 66.523 74.567, 50.473 74.152 C 43.063 73.960, 37 74.161, 37 74.597 M 230.755 147.250 C 231.912 148.488, 234.945 154, 237.495 159.500 C 246.488 178.892, 247.370 180.417, 250 181.126 C 251.375 181.497, 258.082 181.845, 264.905 181.900 C 276.940 181.997, 277.260 181.945, 275.626 180.139 C 274.700 179.116, 271.687 173.177, 268.931 166.942 C 259.644 145.933, 258.429 145, 240.366 145 L 228.651 145 230.755 147.250 M 272.893 148.750 C 274.536 150.813, 278.173 157.949, 280.976 164.609 C 288.093 181.524, 287.952 181.422, 304.806 181.832 C 317.986 182.152, 318.401 182.100, 316.803 180.332 C 315.892 179.324, 312.681 173.003, 309.666 166.284 C 300.467 145.783, 299.433 145, 281.552 145 L 269.906 145 272.893 148.750 M 61.629 197.250 C 62.777 203.687, 67.129 209.257, 73.537 212.491 L 79.500 215.500 189.500 216.122 C 250 216.464, 301.188 217.076, 303.250 217.482 C 305.313 217.887, 307 217.917, 307 217.547 C 307 214.792, 301.326 205.793, 297.806 202.964 C 290.320 196.948, 292.290 197.044, 175.218 197.021 C 83.040 197.003, 68.459 196.801, 65.346 195.500 C 60.738 193.575, 60.956 193.472, 61.629 197.250" stroke="none" fill="" fill-rule="evenodd"/></symbol></svg>