<svg xmlns="http://www.w3.org/2000/svg"><symbol viewBox="0 0 320 210" id="xamiles_oligon_5_1"><path d="M 22.257 22.750 C 23.704 24.262, 26.923 30.770, 29.411 37.211 C 36.415 55.339, 40.124 61.999, 46.430 67.762 C 59.425 79.639, 73.808 82.896, 113.567 82.966 L 132.635 83 134.368 88.500 L 136.102 94 146.676 94 L 157.250 94 156.673 91.117 C 156.356 89.531, 155.801 87.056, 155.440 85.617 L 154.783 83 173.892 83 L 193 83 193 80 L 193 77 173.058 77 L 153.115 77 150.861 70 L 148.606 63 138.303 63 C 126.760 63, 127.098 62.709, 129.489 70.591 C 130.308 73.291, 130.983 75.838, 130.989 76.250 C 131.005 77.332, 99.567 77.163, 92.737 76.045 C 83.949 74.605, 75.694 70.449, 70.416 64.807 C 65.271 59.306, 57.600 44.085, 53.380 30.999 C 51.791 26.075, 49.969 22.391, 48.672 21.482 C 47.056 20.351, 43.370 20, 33.090 20 L 19.626 20 22.257 22.750 M 80 89.843 C 80 91.582, 83.060 92.749, 89.500 93.466 C 99.632 94.594, 110.700 97.015, 120.315 100.208 C 137.679 105.973, 144.732 113.486, 141.841 123.138 C 140.508 127.585, 137.163 131.022, 130.992 134.286 C 125.594 137.140, 125.293 139.088, 130 140.694 C 139.851 144.053, 153.706 140.737, 159.406 133.657 C 161.995 130.441, 162.467 129.043, 162.297 125.097 C 162.014 118.493, 160.728 115.698, 155.264 109.813 C 149.420 103.517, 137.538 97.580, 121.500 92.941 C 111.937 90.175, 108.507 89.694, 95.250 89.258 C 84.634 88.909, 80 89.087, 80 89.843 M 190.649 100.250 C 191.071 100.938, 192.588 103.300, 194.020 105.500 C 195.452 107.700, 198.090 112.875, 199.882 117 C 207 133.383, 207.460 134.224, 209.787 135.109 C 211.076 135.599, 217.745 136, 224.607 136 L 237.084 136 234.655 131.750 C 233.319 129.412, 230.366 123.205, 228.094 117.955 C 222.800 105.725, 219.445 101.601, 213.589 100.127 C 207.172 98.511, 189.640 98.605, 190.649 100.250 M 233.945 103.421 C 235.618 105.852, 239.283 113.279, 242.090 119.924 C 248.910 136.073, 248.805 136, 265.216 136 L 278.163 136 276.206 132.750 C 275.130 130.963, 272.142 124.733, 269.567 118.907 C 261.584 100.852, 258.881 99, 240.509 99 L 230.904 99 233.945 103.421 M 33.656 147.250 C 34.395 151.211, 37.582 156.879, 40.409 159.261 C 41.559 160.230, 44.525 162.030, 47 163.261 L 51.500 165.500 161.500 166.118 C 222 166.458, 273.235 167.075, 275.356 167.490 C 279.072 168.216, 279.187 168.157, 278.520 165.872 C 277.190 161.318, 272.469 154.730, 268.500 151.890 C 266.279 150.301, 262.104 148.577, 259.114 148.014 C 255.687 147.369, 215.017 147, 147.331 147 C 55.020 147, 40.461 146.801, 37.346 145.500 C 32.737 143.574, 32.952 143.472, 33.656 147.250" stroke="none" fill="" fill-rule="evenodd"/></symbol></svg>