<svg xmlns="http://www.w3.org/2000/svg"><symbol viewBox="0 0 328 245" id="xamiles_oligon_7_1"><path d="M 24.666 27.250 C 26.671 29.381, 29.747 35.659, 33.601 45.487 C 40.399 62.825, 43.437 67.697, 51.540 74.256 C 63.302 83.777, 73.304 85.991, 108.419 86.845 L 135.339 87.500 136.797 92.750 L 138.256 98 149.128 98 C 155.108 98, 159.995 97.888, 159.988 97.750 C 159.982 97.612, 159.347 95.138, 158.579 92.250 L 157.181 87 176.591 87 L 196 87 196 84 L 196 81 175.697 81 L 155.394 81 153.139 74 L 150.885 67 140.442 67 C 134.699 67, 130.003 67.338, 130.008 67.750 C 130.012 68.162, 130.886 71.363, 131.950 74.862 L 133.885 81.225 113.192 80.776 C 94.764 80.377, 91.867 80.082, 86.718 78.080 C 79.009 75.083, 73.444 70.666, 68.976 64 C 65.161 58.307, 58.577 43.595, 55.551 34 C 54.597 30.975, 52.708 27.488, 51.352 26.250 C 49.050 24.147, 47.997 24, 35.248 24 L 21.608 24 24.666 27.250 M 73.893 99.504 C 64.999 101.277, 58.394 104.802, 52.837 110.743 C 46.974 117.012, 45 120.849, 45 125.982 C 45 134.226, 51.401 143.092, 60.603 147.594 C 67.412 150.926, 78.157 151.862, 85 149.720 L 89.500 148.311 85 147.064 C 78.923 145.378, 74.308 141.687, 71.785 136.494 C 69.887 132.588, 69.810 131.749, 70.972 127.601 C 72.559 121.933, 78.763 115.913, 86.820 112.225 C 91.458 110.101, 94.399 109.552, 102.995 109.202 C 116.778 108.641, 128.183 110.786, 143 116.727 C 162.377 124.497, 171 130.992, 171 137.817 C 171 139.204, 169.650 142.730, 168 145.654 C 166.350 148.578, 165 151.202, 165 151.485 C 165 151.768, 174.014 152, 185.031 152 C 213.482 152, 213.377 151.477, 180.690 130.328 C 145.523 107.575, 119.086 97.915, 92.500 98.103 C 85.900 98.150, 77.527 98.780, 73.893 99.504 M 79.712 119.834 C 81.163 121.097, 84.259 122.008, 88.712 122.482 C 103.064 124.011, 123.443 129.639, 130.562 134.038 C 132.434 135.195, 135.548 137.991, 137.483 140.251 C 141.508 144.953, 142.040 149.406, 139.208 154.683 C 137.432 157.992, 130.962 163.242, 127.181 164.443 C 123.578 165.586, 124.498 168.533, 128.866 169.842 C 137.661 172.477, 149.799 170.326, 155.339 165.152 C 161.636 159.270, 162.519 153.440, 158.372 145.118 C 153.568 135.478, 141.803 128.307, 120.466 122.012 C 110.609 119.104, 107.881 118.733, 93.500 118.343 C 77.629 117.913, 77.518 117.925, 79.712 119.834 M 204 119.294 C 204 119.572, 205.514 122.049, 207.365 124.799 C 209.216 127.550, 212.185 133.332, 213.964 137.650 C 220.296 153.023, 220.824 153.983, 223.511 155.004 C 224.951 155.552, 231.757 156, 238.633 156 L 251.136 156 249.258 153.250 C 248.225 151.738, 245.428 146, 243.042 140.500 C 234.517 120.846, 233.130 119.763, 215.750 119.182 C 209.287 118.966, 204 119.017, 204 119.294 M 245 119.606 C 245 119.939, 246.041 121.449, 247.313 122.961 C 248.586 124.473, 252.248 131.642, 255.452 138.891 C 258.974 146.860, 262.264 152.849, 263.773 154.036 C 265.955 155.753, 267.862 156, 278.913 156 L 291.555 156 283.919 140.250 C 279.719 131.588, 275.432 123.776, 274.391 122.892 C 273.351 122.007, 270.970 120.769, 269.101 120.142 C 265.619 118.972, 245 118.514, 245 119.606 M 49.669 176.250 C 50.900 182.710, 54.669 187.541, 61.269 191.121 L 67.500 194.500 177.500 195.118 C 238 195.458, 289.235 196.075, 291.356 196.490 C 295.072 197.216, 295.187 197.157, 294.520 194.872 C 293.190 190.318, 288.469 183.730, 284.500 180.890 C 282.279 179.301, 278.104 177.577, 275.114 177.014 C 271.697 176.371, 230.917 175.984, 163.614 175.956 C 73.816 175.919, 56.885 175.691, 53.500 174.471 C 51.300 173.679, 49.399 173.023, 49.275 173.015 C 49.151 173.007, 49.329 174.463, 49.669 176.250" stroke="none" fill="" fill-rule="evenodd"/></symbol></svg>