<svg xmlns="http://www.w3.org/2000/svg"><symbol viewBox="0 0 286 268" id="xamiles_oligon_6"><path d="M 32 26.656 C 32 27.016, 33.111 28.768, 34.469 30.549 C 35.828 32.330, 39.912 42.497, 43.546 53.143 C 47.180 63.789, 51.315 74.636, 52.734 77.248 C 56.527 84.224, 66.095 93.277, 74.149 97.509 C 85.658 103.557, 95.058 105.019, 126.837 105.703 C 145.438 106.103, 154.284 106.644, 154.519 107.395 C 154.708 108.003, 155.581 111.088, 156.459 114.250 L 158.056 120 169.528 120 C 175.838 120, 180.984 119.662, 180.965 119.250 C 180.946 118.838, 180.326 115.688, 179.589 112.250 L 178.248 106 199.124 106 L 220 106 220 102 L 220 98 198.115 98 L 176.229 98 173.884 89.500 L 171.539 81 160.269 81 C 147.611 81, 148.286 80.414, 150.480 89.500 C 151.277 92.800, 151.945 96.063, 151.964 96.750 C 152.009 98.324, 118.068 98.522, 109.886 96.995 C 101.758 95.478, 92.717 90.621, 87.955 85.213 C 82.324 78.820, 76.027 65.419, 70.467 48 C 64.889 30.523, 64.136 28.882, 60.970 27.279 C 58.386 25.972, 32 25.404, 32 26.656 M 61.098 112.049 C 51.943 114.446, 45.674 118.380, 40.091 125.231 C 33.230 133.650, 31.561 137.550, 31.587 145.108 C 31.606 150.797, 32.047 152.395, 34.760 156.608 C 42.838 169.149, 50.824 173.978, 63.500 173.985 C 76.032 173.991, 83.072 171.264, 74.796 169.609 C 69.550 168.560, 64.296 164.235, 61.533 158.691 C 58.323 152.250, 58.332 147.733, 61.567 141.241 C 65.764 132.818, 74.372 126.718, 85.890 124.004 C 93.477 122.216, 111.422 123.254, 121 126.036 C 136.922 130.660, 161.650 143.766, 165.482 149.612 C 166.524 151.200, 167.555 154.750, 167.774 157.500 C 168.107 161.678, 167.610 163.610, 164.754 169.250 L 161.336 176 182.477 176 C 210.860 176, 212.129 175.020, 198.295 163.779 C 188.581 155.886, 165.811 139.447, 156.927 133.914 C 139.906 123.314, 120.233 115.125, 103.156 111.533 C 92.471 109.285, 70.627 109.553, 61.098 112.049 M 31.394 190.249 C 32.708 196.885, 37.060 202.276, 43.906 205.750 L 50.310 209 142.405 209.053 C 213.305 209.093, 236.169 209.404, 241.750 210.403 C 250.217 211.919, 250.394 211.685, 246.542 204.083 C 243.211 197.510, 236.317 192.530, 228.564 191.096 C 224.536 190.352, 192.990 190, 130.284 190 C 50.423 190, 37.450 189.797, 34.343 188.499 L 30.749 186.997 31.394 190.249" stroke="none" fill="" fill-rule="evenodd"/></symbol></svg>