<svg xmlns="http://www.w3.org/2000/svg"><symbol viewBox="0 0 299 252" id="xamiles_oligon_5"><path d="M 41.883 34.852 C 44.066 37.608, 46.879 44.245, 50.923 56.177 C 59.463 81.375, 60.812 84.038, 69.377 92.603 C 84.040 107.266, 98.933 110.945, 143.781 110.984 C 157.515 110.996, 162.162 111.311, 162.463 112.250 C 162.683 112.938, 163.581 116.088, 164.459 119.250 L 166.056 125 177.528 125 C 183.838 125, 188.984 124.662, 188.965 124.250 C 188.946 123.838, 188.326 120.688, 187.589 117.250 L 186.248 111 207.124 111 L 228 111 228 107 L 228 103 206.163 103 L 184.326 103 181.942 94.500 L 179.558 86 168.279 86 C 159.903 86, 157.009 86.322, 157.036 87.250 C 157.055 87.938, 157.723 91.200, 158.520 94.500 C 159.317 97.800, 159.976 101.107, 159.984 101.848 C 159.997 102.950, 156.035 103.121, 138.250 102.785 C 113.377 102.314, 109.079 101.293, 99.772 93.643 C 91.220 86.613, 83.136 70.291, 75.981 45.604 C 71.852 31.361, 72.173 31.569, 53.832 31.176 L 38.714 30.851 41.883 34.852 M 99 116.878 C 99 118.924, 102.430 120.212, 111.501 121.575 C 124.744 123.565, 128.960 124.534, 140.364 128.215 C 155.251 133.020, 163.166 140.969, 161.565 149.505 C 160.703 154.098, 156.071 159.303, 150.405 162.046 C 145.033 164.646, 144.898 166.943, 150.012 168.694 C 160.930 172.430, 176.057 167.591, 180.536 158.931 C 183.857 152.508, 180.478 142.185, 172.886 135.563 C 164.372 128.136, 140.747 119.211, 123.762 117.005 C 114.532 115.806, 99 115.726, 99 116.878 M 39.502 177.250 C 40.756 183.424, 45.200 189.301, 51.031 192.500 L 56.500 195.500 153 196.122 C 206.075 196.465, 251.188 197.076, 253.250 197.482 C 257.771 198.370, 257.904 197.717, 254.543 191.085 C 251.313 184.711, 245.305 180.045, 238.166 178.365 C 233.660 177.304, 213.498 177.028, 139.718 177.016 C 59.532 177.002, 46.448 176.796, 43.346 175.500 C 38.644 173.536, 38.738 173.493, 39.502 177.250" stroke="none" fill="" fill-rule="evenodd"/></symbol></svg>