<svg xmlns="http://www.w3.org/2000/svg"><symbol viewBox="0 0 294 262" id="xamiles_oligon_7"><path d="M 35.883 28.852 C 38.066 31.608, 40.879 38.245, 44.923 50.177 C 53.463 75.375, 54.812 78.038, 63.377 86.603 C 78.040 101.266, 92.933 104.945, 137.781 104.984 C 151.515 104.996, 156.162 105.311, 156.463 106.250 C 156.683 106.938, 157.581 110.088, 158.459 113.250 L 160.056 119 171.528 119 C 177.838 119, 182.984 118.662, 182.965 118.250 C 182.946 117.838, 182.326 114.688, 181.589 111.250 L 180.248 105 201.124 105 L 222 105 222 101 L 222 97 200.163 97 L 178.326 97 175.942 88.500 L 173.558 80 162.279 80 C 153.903 80, 151.009 80.322, 151.036 81.250 C 151.055 81.938, 151.723 85.200, 152.520 88.500 C 153.317 91.800, 153.976 95.107, 153.984 95.848 C 153.997 96.950, 150.035 97.121, 132.250 96.785 C 107.377 96.314, 103.079 95.293, 93.772 87.643 C 85.220 80.613, 77.136 64.291, 69.981 39.604 C 65.852 25.361, 66.173 25.569, 47.832 25.176 L 32.714 24.851 35.883 28.852 M 64.109 110.581 C 54.902 113.057, 50.081 115.736, 44.642 121.397 C 30.370 136.251, 29.761 149.277, 42.692 163.102 C 49.640 170.529, 55.529 173.017, 65.946 172.924 C 74.027 172.852, 82.507 171.023, 80.445 169.797 C 79.925 169.488, 78.068 168.928, 76.317 168.553 C 71.667 167.556, 64.459 160.770, 62.443 155.490 C 60.245 149.734, 60.964 144.209, 64.700 138.167 C 76.589 118.937, 107.625 116.480, 141.347 132.100 C 169.114 144.961, 174.628 152.591, 167.013 167.609 C 165.370 170.849, 164.020 173.862, 164.013 174.305 C 163.992 175.609, 206.716 174.689, 208.045 173.357 C 210.766 170.631, 204.143 164.691, 175.732 144.377 C 150.640 126.436, 129.595 116.165, 107.211 110.936 C 96.853 108.517, 72.531 108.316, 64.109 110.581 M 80.764 132.877 C 82.283 134.196, 85.246 135.067, 89.764 135.521 C 106.232 137.177, 126.803 143.281, 134.280 148.730 C 140.527 153.284, 142.361 156.889, 141.737 163.388 C 141.320 167.729, 140.703 168.921, 137.375 171.816 C 135.244 173.671, 131.957 175.934, 130.072 176.844 C 128.187 177.755, 126.460 179.069, 126.234 179.764 C 125.594 181.736, 132.306 184, 138.790 184 C 146.738 184, 153.493 181.507, 158.143 176.857 C 161.691 173.309, 162 172.556, 162 167.460 C 162 153.339, 149.218 143.092, 121.500 134.992 C 111.650 132.113, 108.827 131.732, 94.500 131.343 C 78.508 130.910, 78.501 130.911, 80.764 132.877 M 33.502 189.250 C 34.756 195.424, 39.200 201.301, 45.031 204.500 L 50.500 207.500 147 208.122 C 200.075 208.465, 245.188 209.076, 247.250 209.482 C 251.771 210.370, 251.904 209.717, 248.543 203.085 C 245.313 196.711, 239.305 192.045, 232.166 190.365 C 227.660 189.304, 207.498 189.028, 133.718 189.016 C 53.532 189.002, 40.448 188.796, 37.346 187.500 C 32.644 185.536, 32.738 185.493, 33.502 189.250" stroke="none" fill="" fill-rule="evenodd"/></symbol></svg>