<svg xmlns="http://www.w3.org/2000/svg"><symbol viewBox="0 0 269 250" id="xamiles_5"><path d="M 28.909 46.750 C 30.913 49.252, 33.938 56.428, 37.998 68.311 C 41.345 78.107, 45.275 88.682, 46.731 91.811 C 50.399 99.695, 61.732 110.827, 70.110 114.776 C 82.164 120.457, 87.635 121.224, 119.705 121.724 L 148.910 122.179 150.512 127.840 C 151.393 130.953, 152.343 134.287, 152.624 135.250 C 153.072 136.785, 154.540 137, 164.567 137 C 176.985 137, 176.675 137.177, 175.091 131 C 174.598 129.075, 173.917 126.263, 173.578 124.750 L 172.962 122 193.981 122 L 215 122 215 118.500 L 215 115 193.142 115 L 171.284 115 169 106.500 L 166.716 98 155.358 98 C 146.929 98, 144.004 98.322, 144.017 99.250 C 144.027 99.938, 144.882 103.763, 145.917 107.750 L 147.801 115 129.650 114.983 C 109.605 114.963, 101.377 113.745, 93.155 109.579 C 86.821 106.369, 79.973 99.318, 76.135 92.054 C 72.579 85.323, 63.698 61.534, 62 54.192 C 61.325 51.272, 59.659 47.559, 58.297 45.942 L 55.822 43 40.864 43 L 25.906 43 28.909 46.750 M 96 137.706 C 96 140.617, 100.049 141.959, 113.524 143.511 C 153.848 148.156, 180.251 158.154, 185.671 170.831 C 186.912 173.734, 186.900 174.830, 185.584 179.359 C 183.719 185.774, 180.653 188.797, 170.996 193.739 C 166.851 195.861, 163.500 198.227, 163.500 199.034 C 163.500 200.957, 169.882 202.998, 178.086 203.699 C 192.712 204.950, 207.649 199.626, 213.222 191.177 C 215.376 187.910, 215.585 179.336, 213.625 174.645 C 210.299 166.684, 198.038 157.117, 183.298 150.980 C 173.747 147.004, 157.589 142.860, 141 140.132 C 126.856 137.807, 96 136.143, 96 137.706" stroke="none" fill="" fill-rule="evenodd"/></symbol></svg>