<svg xmlns="http://www.w3.org/2000/svg"><symbol viewBox="0 0 342 195" id="xamiles_oligon_4_1"><path d="M 26.590 40.250 C 26.979 40.938, 28.074 42.400, 29.023 43.500 C 29.972 44.600, 33.531 52.508, 36.934 61.074 C 43.940 78.715, 48.508 85.519, 57.121 91.152 C 69.661 99.351, 78.428 101.063, 111.993 101.866 L 138.486 102.500 139.888 107.750 L 141.289 113 152.145 113 C 158.115 113, 162.995 112.888, 162.988 112.750 C 162.982 112.612, 162.347 110.138, 161.579 107.250 L 160.181 102 179.591 102 L 199 102 199 99 L 199 96 178.697 96 L 158.394 96 156.139 89 L 153.885 82 143.442 82 C 137.699 82, 133.003 82.338, 133.008 82.750 C 133.012 83.162, 133.871 86.313, 134.916 89.750 L 136.817 96 119.658 95.983 C 94.255 95.957, 83.398 92.909, 75.301 83.532 C 71.241 78.830, 63.380 62.958, 59.435 51.500 C 55.121 38.967, 55.174 39, 39.267 39 C 28.848 39, 26.039 39.277, 26.590 40.250 M 204.339 74.250 C 207.381 78.301, 211.838 87.278, 215.500 96.731 C 219.642 107.424, 219.673 107.441, 236.236 107.828 L 250.268 108.156 248.298 105.652 C 247.214 104.274, 244.155 98.177, 241.500 92.102 C 236.127 79.812, 232.267 74.427, 227.357 72.376 C 225.234 71.489, 220.126 71, 212.981 71 L 201.898 71 204.339 74.250 M 244.641 73.250 C 247.671 76.676, 249.353 79.764, 252.950 88.500 C 258.220 101.300, 260.641 105.516, 263.463 106.801 C 265.063 107.530, 271.033 108, 278.702 108 C 290.881 108, 291.253 107.937, 289.645 106.160 C 288.729 105.148, 285.713 99.256, 282.942 93.066 C 273.601 72.201, 272.016 71, 253.805 71 L 242.651 71 244.641 73.250 M 43.654 121.250 C 44.845 127.654, 49.199 133.217, 55.565 136.469 L 61.500 139.500 171.500 140.122 C 232 140.464, 283.188 141.076, 285.250 141.482 C 287.313 141.887, 289 141.917, 289 141.547 C 289 138.818, 283.329 129.796, 279.863 127.010 C 272.252 120.894, 275.081 121.033, 157.718 121.016 C 65.087 121.002, 50.460 120.801, 47.346 119.500 C 42.737 117.574, 42.952 117.472, 43.654 121.250" stroke="none" fill="" fill-rule="evenodd"/></symbol></svg>