<svg xmlns="http://www.w3.org/2000/svg"><symbol viewBox="0 0 332 232" id="xamiles_oligon_8_1"><path d="M 41.235 24.750 C 42.670 26.262, 46.140 33.271, 48.945 40.324 C 56.297 58.807, 59.103 63.862, 65.221 69.648 C 71.719 75.793, 78.495 79.397, 88.846 82.214 C 95.480 84.019, 100.173 84.357, 124.055 84.750 L 151.610 85.203 153.555 90.851 L 155.500 96.500 165.884 96.786 L 176.267 97.073 175.634 93.286 C 175.286 91.204, 174.723 88.487, 174.384 87.250 L 173.767 85 193.450 85 L 213.133 85 212.816 82.250 L 212.500 79.500 192.325 79.230 L 172.149 78.959 169.993 72.480 L 167.837 66 157.418 66 C 151.688 66, 147.005 66.338, 147.011 66.750 C 147.017 67.162, 147.692 69.709, 148.511 72.409 C 149.330 75.109, 150 77.742, 150 78.260 C 150 78.833, 141.863 79.038, 129.250 78.783 C 104.757 78.289, 100.671 77.208, 91.456 68.785 C 85.178 63.048, 79.654 52.798, 73.208 34.927 C 70.332 26.951, 68.886 24.249, 66.981 23.285 C 65.376 22.473, 59.930 22.024, 51.563 22.015 L 38.626 22 41.235 24.750 M 34.391 78.887 C 36.039 80.607, 39.518 87.689, 42.998 96.411 C 50.190 114.434, 52.530 118.493, 59.179 124.471 C 65.616 130.258, 71.874 133.500, 81.846 136.214 C 88.485 138.020, 93.174 138.357, 117.201 138.751 L 144.902 139.206 146.782 144.853 L 148.663 150.500 159.331 150.784 C 165.199 150.940, 169.995 150.940, 169.988 150.784 C 169.982 150.628, 169.312 148.025, 168.500 145 C 167.688 141.975, 167.018 139.387, 167.012 139.250 C 167.005 139.113, 175.775 139, 186.500 139 L 206 139 206 136 L 206 133 185.693 133 L 165.385 133 163.388 126.750 L 161.391 120.500 150.668 120.216 L 139.945 119.932 140.619 122.716 C 140.990 124.247, 141.677 126.542, 142.146 127.815 C 144.185 133.345, 144.705 133.213, 122.750 132.757 C 100.106 132.286, 95.148 131.282, 87.802 125.680 C 85.445 123.882, 81.848 120.204, 79.810 117.506 C 76.155 112.670, 65.840 89.564, 64.523 83.262 C 63.222 77.035, 60.465 76, 45.178 76 L 31.626 76 34.391 78.887 M 204.515 104.664 C 208.157 110.222, 209.985 113.730, 213.026 121 C 219.297 135.991, 219.854 136.865, 223.827 137.969 C 227.879 139.094, 250 139.398, 250 138.329 C 250 137.960, 249.320 136.907, 248.490 135.989 C 247.659 135.071, 244.690 129.186, 241.892 122.910 C 233.088 103.166, 231.556 102, 214.435 102 L 202.770 102 204.515 104.664 M 245.410 104.250 C 247.046 106.476, 250.741 113.918, 257.469 128.538 C 261.913 138.196, 263.592 139, 279.315 139 L 290.695 139 282.597 122.750 C 272.228 101.940, 272.305 102, 255.730 102 L 243.756 102 245.410 104.250 M 41.629 156.250 C 42.777 162.687, 47.129 168.257, 53.537 171.491 L 59.500 174.500 169 175.072 C 239.695 175.442, 280.006 176.014, 282.750 176.688 C 285.279 177.309, 287 177.356, 287 176.804 C 287 173.826, 281.480 164.917, 277.806 161.964 C 270.320 155.948, 272.290 156.044, 155.218 156.021 C 63.040 156.003, 48.459 155.801, 45.346 154.500 C 40.738 152.575, 40.956 152.472, 41.629 156.250" stroke="none" fill="" fill-rule="evenodd"/></symbol></svg>