<svg xmlns="http://www.w3.org/2000/svg"><symbol viewBox="0 0 299 227" id="xamiles_8"><path d="M 62 38.656 C 62 39.016, 63.148 40.816, 64.551 42.655 C 65.954 44.495, 69.732 53.762, 72.948 63.250 C 81.436 88.296, 82.832 91.058, 91.241 99.463 C 99.334 107.552, 105.527 111.124, 116.846 114.234 C 123.616 116.093, 127.930 116.385, 154.205 116.757 L 183.910 117.177 185.511 122.838 C 186.392 125.952, 187.343 129.287, 187.624 130.250 C 188.072 131.785, 189.540 132, 199.567 132 C 205.855 132, 210.989 131.662, 210.976 131.250 C 210.954 130.580, 209.917 125.607, 208.473 119.250 L 207.962 117 228.981 117 L 250 117 250 113.500 L 250 110 228.163 110 L 206.326 110 203.942 101.500 L 201.558 93 190.279 93 C 177.649 93, 178.226 92.528, 180.500 101 C 183.196 111.046, 184.966 110.261, 160.750 109.754 C 136.249 109.241, 130.630 107.925, 121.738 100.615 C 113.204 93.601, 105.088 77.181, 97.970 52.528 C 93.817 38.149, 93.592 38, 75.944 38 C 68.275 38, 62 38.295, 62 38.656 M 44 92.656 C 44 93.016, 45.148 94.816, 46.551 96.655 C 47.954 98.495, 51.732 107.762, 54.948 117.250 C 63.436 142.296, 64.832 145.058, 73.241 153.463 C 81.334 161.552, 87.527 165.124, 98.846 168.234 C 105.616 170.093, 109.930 170.385, 136.205 170.757 L 165.910 171.177 167.511 176.838 C 168.392 179.952, 169.343 183.287, 169.624 184.250 C 170.072 185.785, 171.540 186, 181.567 186 C 187.855 186, 192.989 185.662, 192.976 185.250 C 192.954 184.580, 191.917 179.607, 190.473 173.250 L 189.962 171 210.981 171 L 232 171 232 167.500 L 232 164 210.163 164 L 188.326 164 185.942 155.500 L 183.558 147 172.279 147 C 159.649 147, 160.226 146.528, 162.500 155 C 165.196 165.046, 166.966 164.261, 142.750 163.754 C 118.249 163.241, 112.630 161.925, 103.738 154.615 C 95.204 147.601, 87.088 131.181, 79.970 106.528 C 75.817 92.149, 75.592 92, 57.944 92 C 50.275 92, 44 92.295, 44 92.656" stroke="none" fill="" fill-rule="evenodd"/></symbol></svg>