<svg xmlns="http://www.w3.org/2000/svg"><symbol viewBox="0 0 303 296" id="xamiles_9"><path d="M 53.627 41.250 C 54.037 41.938, 55.175 43.625, 56.156 45 C 57.137 46.375, 60.467 54.925, 63.554 64 C 71.235 86.573, 74.869 93.869, 81.971 100.971 C 96.295 115.295, 110.460 118.984, 151.172 118.994 L 174.845 119 175.866 122.250 C 176.428 124.038, 177.380 127.412, 177.982 129.750 L 179.077 134 190.539 134 C 199.054 134, 201.994 133.679, 201.976 132.750 C 201.950 131.425, 200.287 123.693, 199.395 120.750 C 198.902 119.122, 200.333 119, 219.933 119 L 241 119 241 115.520 L 241 112.039 219.294 111.770 L 197.588 111.500 195.001 103 L 192.414 94.500 181.207 94.217 C 168.419 93.895, 168.932 93.431, 171.500 103 C 174.222 113.140, 175.800 112.390, 153.250 111.678 C 142.387 111.335, 131.527 110.576, 129.115 109.992 C 116.966 107.048, 107.258 98.977, 101.360 86.920 C 97.183 78.381, 91.276 62.494, 88.376 52 C 85.067 40.023, 85.026 40, 67.330 40 C 56.041 40, 53.045 40.273, 53.627 41.250 M 35 87.567 C 35 87.878, 36.110 89.589, 37.467 91.368 C 38.824 93.147, 42.692 102.664, 46.062 112.518 C 53.805 135.154, 56.740 140.925, 64.407 148.593 C 71.443 155.628, 79.638 160.161, 90.856 163.221 C 97.557 165.049, 102.102 165.362, 127.708 165.753 L 156.916 166.199 158.515 171.850 C 159.394 174.957, 160.343 178.287, 160.624 179.250 C 161.072 180.785, 162.540 181, 172.567 181 C 184.985 181, 184.675 181.177, 183.091 175 C 182.598 173.075, 181.917 170.262, 181.578 168.750 L 180.962 166 201.981 166 L 223 166 223 162.500 L 223 159 201.247 159 L 179.495 159 176.962 150.250 L 174.429 141.500 163.215 141.217 C 150.249 140.890, 150.904 140.148, 153.917 151.750 L 155.801 159 139.150 158.992 C 111.403 158.980, 102.236 156.537, 92.338 146.519 C 88.949 143.088, 85.071 138.081, 83.719 135.391 C 80.808 129.595, 71.747 104.946, 69.500 96.711 C 66.916 87.237, 66.428 87, 49.500 87 C 41.525 87, 35 87.255, 35 87.567 M 102.032 183.655 C 102.049 184.120, 102.652 185.275, 103.371 186.222 C 104.369 187.536, 107.854 188.313, 118.090 189.503 C 146.781 192.840, 170.319 199.117, 181.023 206.286 C 188.712 211.436, 192 215.851, 192 221.026 C 192 229.409, 187.725 234.643, 176.502 239.999 C 172.969 241.685, 169.782 243.544, 169.421 244.128 C 167.628 247.029, 176.722 250, 187.394 250 C 200.150 250, 210.444 246.361, 217 239.534 C 220.297 236.101, 220.500 235.496, 220.500 229.116 C 220.500 223.320, 220.063 221.636, 217.468 217.440 C 206.300 199.376, 165.848 185.674, 117.250 183.494 C 108.862 183.117, 102.014 183.190, 102.032 183.655" stroke="none" fill="" fill-rule="evenodd"/></symbol></svg>