<svg xmlns="http://www.w3.org/2000/svg"><symbol viewBox="0 0 344 231" id="xamiles_oligon_4"><path d="M 62.018 54.676 C 62.028 55.129, 63.324 57.399, 64.898 59.721 C 66.471 62.043, 70.124 71.043, 73.014 79.721 C 81.516 105.253, 84.741 110.985, 95.737 120.112 C 108.055 130.337, 119.567 132.900, 156.750 133.701 L 184.001 134.288 186.043 141.144 L 188.085 148 199.542 148 C 205.844 148, 210.984 147.662, 210.965 147.250 C 210.946 146.838, 210.326 143.688, 209.589 140.250 L 208.248 134 229.124 134 L 250 134 250 130 L 250 126 228.163 126 L 206.326 126 203.942 117.500 L 201.558 109 189.879 109 L 178.199 109 180.083 116.250 C 181.118 120.237, 181.973 124.107, 181.983 124.848 C 181.997 125.950, 178.035 126.121, 160.250 125.785 C 135.377 125.314, 131.079 124.293, 121.772 116.643 C 113.220 109.613, 105.136 93.291, 97.981 68.604 C 93.873 54.432, 94.079 54.570, 76.475 54.176 C 68.514 53.998, 62.008 54.223, 62.018 54.676 M 61.010 153.737 C 61.025 156.557, 65.518 165.310, 68.118 167.585 C 69.428 168.732, 72.833 170.644, 75.685 171.835 L 80.871 174 172.685 174.053 C 243.355 174.093, 266.170 174.404, 271.750 175.403 C 280.217 176.919, 280.394 176.685, 276.543 169.085 C 273.313 162.711, 267.305 158.045, 260.166 156.365 C 255.659 155.304, 235.441 155.028, 161.372 155.016 C 80.511 155.002, 67.767 154.801, 64.622 153.487 C 61.256 152.080, 61.001 152.098, 61.010 153.737" stroke="none" fill="" fill-rule="evenodd"/></symbol></svg>