<svg xmlns="http://www.w3.org/2000/svg"><symbol viewBox="0 0 332 282" id="xamiles_12"><path d="M 86.590 52.250 C 86.979 52.938, 88.102 54.400, 89.086 55.500 C 90.070 56.600, 93.553 65.150, 96.825 74.500 C 105.198 98.418, 106.491 101.411, 111.073 107.480 C 118.323 117.082, 128.388 123.543, 141.831 127.222 C 148.504 129.049, 153.323 129.398, 178.934 129.911 L 208.368 130.500 210.466 137.500 L 212.563 144.500 223.918 144.784 L 235.272 145.068 234.690 141.284 C 234.369 139.203, 233.799 135.813, 233.423 133.750 L 232.738 130 253.869 130 L 275 130 275 126.500 L 275 123 253.032 123 L 231.064 123 228.472 114.500 L 225.879 106 214.439 106 C 208.148 106, 203.008 106.112, 203.017 106.250 C 203.027 106.388, 203.919 109.875, 205 114 C 206.081 118.125, 206.973 121.838, 206.983 122.250 C 207.015 123.654, 170.908 123.052, 163.720 121.529 C 151.257 118.888, 142.082 111.921, 135.758 100.299 C 132.289 93.923, 123.704 71.249, 122.014 64 C 120.411 57.126, 118.535 53.357, 116.055 52.030 C 113.114 50.456, 85.690 50.661, 86.590 52.250 M 59.590 88.250 C 59.979 88.938, 61.102 90.400, 62.086 91.500 C 63.070 92.600, 66.553 101.150, 69.825 110.500 C 78.198 134.418, 79.491 137.411, 84.073 143.480 C 91.323 153.082, 101.388 159.543, 114.831 163.222 C 121.504 165.049, 126.323 165.398, 151.934 165.911 L 181.368 166.500 183.466 173.500 L 185.563 180.500 196.918 180.784 L 208.272 181.068 207.690 177.284 C 207.369 175.203, 206.799 171.813, 206.423 169.750 L 205.738 166 226.869 166 L 248 166 248 162.500 L 248 159 226.032 159 L 204.064 159 201.472 150.500 L 198.879 142 187.439 142 C 181.148 142, 176.008 142.113, 176.017 142.250 C 176.027 142.387, 176.919 145.875, 178 150 C 179.081 154.125, 179.973 157.838, 179.983 158.250 C 180.015 159.654, 143.908 159.052, 136.720 157.529 C 124.257 154.888, 115.082 147.921, 108.758 136.299 C 105.289 129.923, 96.704 107.249, 95.014 100 C 93.411 93.126, 91.535 89.357, 89.055 88.030 C 86.114 86.456, 58.690 86.661, 59.590 88.250 M 37 123.567 C 37 123.878, 38.110 125.589, 39.467 127.368 C 40.824 129.147, 44.693 138.679, 48.065 148.551 C 51.437 158.423, 55.354 168.975, 56.769 172 C 60.422 179.812, 71.692 190.838, 80 194.729 C 92.776 200.712, 96.686 201.269, 129.205 201.744 L 158.910 202.177 160.511 207.838 C 161.392 210.952, 162.343 214.287, 162.624 215.250 C 163.072 216.785, 164.540 217, 174.567 217 C 180.855 217, 185.989 216.662, 185.976 216.250 C 185.954 215.580, 184.917 210.607, 183.473 204.250 L 182.962 202 203.981 202 L 225 202 225 198.500 L 225 195 203.163 195 L 181.326 195 178.942 186.500 L 176.558 178 165.279 178 C 156.913 178, 154.004 178.323, 154.017 179.250 C 154.027 179.938, 154.882 183.762, 155.917 187.750 L 157.801 195 139.060 195 C 123.698 195, 118.934 194.645, 112.629 193.033 C 100.158 189.844, 91.256 182.521, 85.235 170.500 C 82.216 164.473, 73.401 140.251, 71.958 134.018 C 71.158 130.559, 69.667 127.514, 67.921 125.768 C 65.160 123.006, 65.122 123, 51.077 123 C 43.335 123, 37 123.255, 37 123.567" stroke="none" fill="" fill-rule="evenodd"/></symbol></svg>