<svg xmlns="http://www.w3.org/2000/svg"><symbol viewBox="0 0 338 238" id="xamiles_oligon_6_1"><path d="M 25 27.768 C 25 28.275, 25.867 29.475, 26.928 30.434 C 27.988 31.394, 31.211 38.101, 34.090 45.339 C 36.969 52.578, 40.551 60.975, 42.051 64 C 45.465 70.888, 53.805 78.863, 61.829 82.914 C 72.889 88.497, 77.727 89.200, 108.701 89.725 L 136.901 90.204 138.782 95.852 L 140.663 101.500 151.331 101.784 C 157.199 101.940, 161.995 101.940, 161.988 101.784 C 161.982 101.628, 161.312 99.025, 160.500 96 C 159.688 92.975, 159.018 90.388, 159.012 90.250 C 159.005 90.112, 167.775 90, 178.500 90 L 198 90 198 87 L 198 84 177.693 84 L 157.385 84 155.388 77.750 L 153.391 71.500 142.668 71.216 L 131.945 70.932 132.619 73.716 C 132.990 75.247, 133.677 77.542, 134.146 78.815 C 136.186 84.347, 136.744 84.207, 114.250 83.788 C 95.669 83.442, 92.910 83.168, 87.853 81.168 C 81.105 78.498, 74.372 72.812, 70.132 66.206 C 66.621 60.734, 58.501 41.877, 56.874 35.414 C 55.043 28.142, 53.708 27.547, 38.398 27.173 C 30.647 26.983, 25 27.234, 25 27.768 M 72.269 100.425 C 62.326 102.319, 57.213 105.047, 50.589 111.992 C 41.872 121.131, 40.201 127.686, 44.479 135.959 C 46.954 140.745, 56.572 148.697, 62.112 150.537 C 67.773 152.417, 80.939 152.253, 84.505 150.257 C 86.334 149.234, 86.263 149.108, 83.486 148.460 C 73.135 146.045, 66.197 137.050, 68.379 128.875 C 70.456 121.094, 80.066 113.790, 91.896 111.002 C 99.038 109.319, 116.195 110.235, 126.034 112.825 C 134.951 115.172, 150.937 121.853, 159.147 126.665 C 168.587 132.198, 170.283 138.293, 164.991 147.669 L 161.983 153 182.432 153 C 196.011 153, 203.106 152.637, 203.550 151.919 C 204.714 150.035, 198.925 145.064, 184.500 135.559 C 154.595 115.855, 139.314 108.327, 118 102.798 C 104.048 99.179, 84.214 98.150, 72.269 100.425 M 201.339 117.250 C 204.464 121.412, 208.952 130.514, 212.456 139.796 C 216.274 149.911, 217.148 150.361, 233.920 150.844 C 247.481 151.234, 247.497 151.232, 245.687 149.219 C 244.689 148.110, 241.409 141.689, 238.398 134.951 C 229.218 114.412, 228.679 114, 210.999 114 L 198.898 114 201.339 117.250 M 241.733 116.250 C 244.174 118.889, 246.287 122.997, 251.955 136.127 C 258.061 150.273, 258.198 150.362, 274.802 150.840 C 288.345 151.231, 288.480 151.213, 286.740 149.278 C 285.772 148.201, 282.711 142.253, 279.939 136.059 C 270.284 114.492, 269.658 114, 251.875 114 L 239.651 114 241.733 116.250 M 42.623 163.750 C 44.579 171.887, 48.910 176.833, 56.787 179.925 C 62.017 181.978, 63.193 182, 165.787 182.003 C 254.985 182.006, 270.740 182.223, 278.363 183.557 C 283.238 184.409, 287.438 184.895, 287.697 184.637 C 288.561 183.772, 283.927 174.536, 281.196 171.680 C 279.713 170.129, 276.925 167.879, 275 166.680 L 271.500 164.500 160 164 C 73.384 163.612, 48.013 163.221, 46.316 162.250 C 42.879 160.283, 41.887 160.687, 42.623 163.750" stroke="none" fill="" fill-rule="evenodd"/></symbol></svg>