<svg xmlns="http://www.w3.org/2000/svg"><symbol viewBox="0 0 297 205" id="xamiles_1"><path d="M 43.909 67.750 C 45.922 70.263, 48.937 77.438, 53.049 89.500 C 56.424 99.400, 60.786 110.559, 62.742 114.298 C 67.102 122.633, 76.772 131.851, 85.435 135.931 C 97.142 141.445, 102.810 142.226, 134.705 142.724 L 163.910 143.179 165.512 148.840 C 166.393 151.953, 167.343 155.287, 167.624 156.250 C 168.072 157.785, 169.540 158, 179.567 158 C 185.855 158, 190.989 157.662, 190.976 157.250 C 190.954 156.580, 189.917 151.607, 188.473 145.250 L 187.962 143 208.981 143 L 230 143 230 139.500 L 230 136 208.142 136 L 186.284 136 184 127.500 L 181.716 119 170.358 119 C 161.929 119, 159.004 119.322, 159.017 120.250 C 159.027 120.938, 159.882 124.763, 160.917 128.750 L 162.801 136 144.650 135.983 C 124.544 135.963, 116.380 134.747, 108.055 130.528 C 101.596 127.255, 95.113 120.581, 91.199 113.175 C 87.591 106.346, 78.712 82.595, 77 75.192 C 76.325 72.272, 74.659 68.559, 73.297 66.942 L 70.822 64 55.864 64 L 40.906 64 43.909 67.750" stroke="none" fill="" fill-rule="evenodd"/></symbol></svg>