<svg xmlns="http://www.w3.org/2000/svg"><symbol viewBox="0 0 324 342" id="xamiles_13"><path d="M 82 47.567 C 82 47.878, 83.123 49.606, 84.497 51.407 C 85.870 53.207, 89.692 62.648, 92.990 72.387 C 96.288 82.127, 100.191 92.661, 101.664 95.798 C 105.427 103.813, 116.578 114.771, 125.088 118.816 C 137.339 124.639, 141.601 125.239, 174.205 125.730 L 203.910 126.177 205.511 131.838 C 206.392 134.952, 207.343 138.287, 207.624 139.250 C 208.072 140.785, 209.540 141, 219.567 141 C 231.985 141, 231.675 141.177, 230.091 135 C 229.598 133.075, 228.917 130.262, 228.578 128.750 L 227.962 126 248.981 126 L 270 126 270 122.500 L 270 119 248.142 119 L 226.284 119 224 110.500 L 221.716 102 210.358 102 C 201.929 102, 199.004 102.322, 199.017 103.250 C 199.027 103.938, 199.882 107.762, 200.917 111.750 L 202.801 119 184.060 119 C 168.698 119, 163.934 118.645, 157.629 117.033 C 145.158 113.844, 136.256 106.521, 130.235 94.500 C 127.216 88.473, 118.401 64.251, 116.958 58.018 C 116.158 54.559, 114.667 51.514, 112.921 49.768 C 110.160 47.006, 110.122 47, 96.077 47 C 88.335 47, 82 47.255, 82 47.567 M 62 88.567 C 62 88.878, 63.123 90.606, 64.497 92.407 C 65.870 94.207, 69.692 103.648, 72.990 113.387 C 80.299 134.971, 82.652 140.040, 88.394 146.578 C 102.287 162.395, 118.405 166.984, 160.106 166.994 L 183.713 167 185.641 173.750 L 187.570 180.500 199.312 180.782 L 211.054 181.064 210.430 178.282 C 210.087 176.752, 209.402 173.925, 208.909 172 C 208.415 170.075, 208.009 168.162, 208.006 167.750 C 208.003 167.338, 217.450 167, 229 167 L 250 167 250 163 L 250 159 228.042 159 L 206.085 159 203.988 151.750 C 202.835 147.762, 201.705 143.938, 201.477 143.250 C 201.177 142.346, 197.869 142, 189.531 142 C 183.189 142, 178.008 142.113, 178.017 142.250 C 178.027 142.387, 178.919 145.875, 180 150 C 181.081 154.125, 181.973 157.875, 181.983 158.333 C 181.992 158.791, 171.988 158.997, 159.750 158.790 C 139.196 158.442, 137.043 158.233, 131.500 156.044 C 124.246 153.180, 114.561 144.014, 110.666 136.327 C 106.425 127.959, 98.825 107.158, 96.002 96.197 C 93.995 88.403, 93.037 88, 76.500 88 C 68.525 88, 62 88.255, 62 88.567 M 37 126.606 C 37 126.939, 38.050 128.459, 39.334 129.985 C 40.628 131.523, 44.447 140.906, 47.912 151.063 C 55.790 174.154, 58.707 179.909, 66.373 187.489 C 73.570 194.602, 81.853 199.227, 92.686 202.178 C 99.590 204.059, 103.901 204.359, 129.708 204.753 L 158.916 205.199 160.515 210.850 C 161.394 213.957, 162.343 217.287, 162.624 218.250 C 163.072 219.785, 164.540 220, 174.567 220 C 186.985 220, 186.675 220.177, 185.091 214 C 184.598 212.075, 183.917 209.262, 183.578 207.750 L 182.962 205 203.981 205 L 225 205 225 201.520 L 225 198.039 203.280 197.770 L 181.560 197.500 178.944 189 L 176.329 180.500 165.164 180.217 C 152.425 179.895, 152.932 179.434, 155.500 189 C 158.095 198.667, 159.149 198.003, 141.250 197.980 C 123.204 197.957, 114.587 196.940, 106.353 193.859 C 99.476 191.286, 91.945 184.562, 87.285 176.832 C 83.558 170.651, 73.819 145.180, 71.946 136.716 C 71.242 133.532, 69.639 129.824, 68.381 128.466 C 66.153 126.062, 65.728 126, 51.548 126 C 43.546 126, 37 126.273, 37 126.606 M 111.086 226.604 C 113.125 229.060, 115.717 229.728, 127.973 230.953 C 152.562 233.411, 178.397 240.191, 188.587 246.859 C 200.108 254.398, 202.865 259.829, 199.560 268.481 C 197.519 273.826, 194.063 276.913, 185.596 280.954 C 182.114 282.616, 178.700 284.656, 178.010 285.488 C 176.948 286.768, 177.350 287.268, 180.628 288.750 C 183.652 290.117, 187.237 290.500, 197 290.500 C 208.605 290.500, 209.929 290.299, 215.500 287.693 C 224.684 283.398, 230 277.458, 230 271.492 C 230 261.426, 223.448 252.592, 210.111 244.677 C 190.378 232.967, 155.803 225.063, 124.128 225.020 C 111.049 225.002, 109.875 225.144, 111.086 226.604" stroke="none" fill="" fill-rule="evenodd"/></symbol></svg>