<svg xmlns="http://www.w3.org/2000/svg"><symbol viewBox="0 0 463 279" id="xroniki_agogi_eptagorgo"><path d="M 364.682 87.651 C 364.307 88.026, 364 90.733, 364 93.667 L 364 99 341.500 99 L 319 99 319 106 L 319 113 291.500 113 L 264 113 264 121.500 L 264 130 237.500 130 L 211 130 211 139 L 211 148 184 148 L 157 148 157 157 L 157 166 127 166 L 97 166 97 178.500 L 97 191 67.500 191 L 38 191 38 206.042 L 38 221.084 45.750 220.792 L 53.500 220.500 53.781 208.250 L 54.062 196 83.531 196 L 113 196 113 184.500 L 113 173 143.465 173 L 173.930 173 174.215 162.750 L 174.500 152.500 199.750 152.233 L 225 151.966 225 142.983 L 225 134 252 134 L 279 134 279 125.500 L 279 117 307 117 L 335 117 335 109.500 L 335 102 356.500 102 L 378 102 378 96 L 378 90 400.083 90 C 417.305 90, 422.075 89.725, 421.750 88.750 C 421.433 87.798, 414.656 87.437, 393.349 87.235 C 377.957 87.089, 365.057 87.276, 364.682 87.651" stroke="none" fill="" fill-rule="evenodd"/></symbol></svg>