<svg xmlns="http://www.w3.org/2000/svg"><symbol viewBox="0 0 260 238" id="xroniki_agogi_pausi_7"><path d="M 45.679 40.419 C 53.389 47.089, 54.773 50.928, 59.050 77.500 C 64.191 109.435, 78.446 138.170, 98.263 156.548 C 116.747 173.689, 138.390 182.917, 160.250 182.978 C 167.341 182.998, 168 182.830, 168 181 C 168 179.372, 167.333 179, 164.417 179 C 158.542 179, 144.986 175.088, 137.500 171.232 C 128.397 166.543, 116.216 154.291, 109.859 143.429 C 97.890 122.978, 90.457 97.220, 84.026 53.901 C 83.134 47.896, 80.206 41.246, 77.445 38.955 C 76.170 37.896, 71.460 37.450, 58.622 37.173 L 41.500 36.803 45.679 40.419 M 94.881 62.503 C 91.306 64.446, 88.646 70.300, 89.433 74.496 C 91.409 85.027, 103.582 88.040, 110.575 79.729 C 112.861 77.012, 113.151 75.922, 112.736 71.605 C 112.352 67.605, 111.635 66.063, 109.113 63.809 C 105.525 60.604, 99.410 60.042, 94.881 62.503 M 123.400 64.400 C 120.526 67.274, 120 68.507, 120 72.365 C 120 76.014, 120.604 77.618, 123.007 80.355 C 130.554 88.950, 143 83.746, 143 71.996 C 143 68.557, 142.386 67.186, 139.600 64.400 C 136.698 61.498, 135.512 61, 131.500 61 C 127.488 61, 126.302 61.498, 123.400 64.400 M 155.217 62.561 C 144.266 70.231, 152.856 88.173, 165.484 84.005 C 174.911 80.894, 176.629 66.962, 168.128 62.566 C 164.250 60.561, 158.076 60.558, 155.217 62.561 M 185.881 62.503 C 177.446 67.087, 179.140 80.911, 188.516 84.005 C 201.144 88.173, 209.734 70.231, 198.783 62.561 C 196.028 60.631, 189.381 60.601, 185.881 62.503 M 109.898 92.287 C 103.272 96.746, 102.881 106.198, 109.106 111.436 C 116.399 117.572, 128 112.076, 128 102.486 C 128 92.316, 118.124 86.751, 109.898 92.287 M 141.449 91.551 C 133.218 95.613, 132.926 108.325, 140.967 112.483 C 147.934 116.086, 155.811 112.700, 158.080 105.128 C 159.554 100.209, 157.384 94.814, 152.810 92.026 C 148.886 89.633, 145.612 89.497, 141.449 91.551 M 172.030 91.225 C 168.815 92.922, 165 98.632, 165 101.747 C 165 105.541, 167.734 110.411, 170.920 112.294 C 182.804 119.314, 194.957 103.496, 185.187 93.725 C 181.833 90.372, 175.814 89.228, 172.030 91.225" stroke="none" fill="" fill-rule="evenodd"/></symbol></svg>