<svg xmlns="http://www.w3.org/2000/svg"><symbol viewBox="0 0 213 211" id="xronikes_agoges_2_60"><path d="M 39 31.332 L 39 35.665 44.250 35.276 C 68.029 33.514, 86.002 32.519, 86.010 32.965 C 86.015 33.259, 85.255 38.327, 84.320 44.227 C 83.385 50.126, 82.854 55.187, 83.140 55.474 C 83.427 55.760, 96.225 55.606, 111.580 55.132 C 126.936 54.657, 139.644 54.391, 139.821 54.539 C 139.997 54.687, 138.760 60.092, 137.071 66.551 C 135.382 73.010, 134 78.678, 134 79.147 C 134 79.616, 136.475 80, 139.500 80 L 145 80 145 64.500 L 145 49 118.500 49 L 92 49 92 38 L 92 27 65.500 27 L 39 27 39 31.332 M 120.029 101.316 C 117.916 105.890, 114.791 112.711, 113.084 116.474 C 111.378 120.237, 109.738 123.072, 109.440 122.773 C 109.142 122.475, 107.550 117.391, 105.901 111.474 C 102.410 98.939, 100.794 95.441, 98.182 94.758 C 95.402 94.031, 90.976 96.265, 87.068 100.367 C 83.372 104.248, 83.426 106.216, 87.158 103.602 C 90.377 101.347, 93.705 101.609, 95.387 104.250 C 97.044 106.854, 101.193 119.860, 103.061 128.312 L 104.346 134.125 95.482 152.093 L 86.617 170.062 88.798 172.242 C 90.139 173.584, 91.304 174.053, 91.825 173.461 C 92.291 172.932, 95.530 164.746, 99.023 155.270 C 102.515 145.793, 105.526 138.193, 105.714 138.381 C 105.902 138.569, 107.585 144.297, 109.454 151.111 C 113.656 166.428, 114.403 168.403, 116.960 170.960 C 120.514 174.514, 124.459 173.636, 130.048 168.048 C 132.771 165.324, 135 162.399, 135 161.548 C 135 159.427, 134.273 159.593, 130.818 162.500 C 126.163 166.416, 122.883 165.690, 120.101 160.127 C 118.248 156.421, 110.954 131.479, 110.786 128.273 C 110.695 126.540, 116.218 116.646, 124.125 104.375 C 127.676 98.864, 127.952 97.988, 126.875 95.625 C 126.217 94.181, 125.272 93, 124.775 93 C 124.278 93, 122.142 96.742, 120.029 101.316" stroke="none" fill="" fill-rule="evenodd"/></symbol></svg>