<svg xmlns="http://www.w3.org/2000/svg"><symbol viewBox="0 0 253 298" id="xronikes_agoges_7_240"><path d="M 133 95 L 133 107 106.500 107 L 80 107 80 123 L 80 139 85.500 139 C 91.956 139, 91.732 139.843, 89.003 125.785 C 87.905 120.128, 87.005 114.735, 87.003 113.800 C 87 112.006, 90.571 111.979, 130.390 113.470 L 142.279 113.915 141.614 106.708 C 141.248 102.743, 140.666 97.072, 140.320 94.104 L 139.690 88.707 162.845 89.220 L 186 89.732 186 86.366 L 186 83 159.500 83 L 133 83 133 95 M 130 154.972 C 130 156.020, 117.588 182.745, 116.680 183.654 C 116.378 183.955, 115.637 182.244, 115.032 179.851 C 112.356 169.260, 108.683 158.359, 107.249 156.750 C 104.556 153.728, 101.226 154.642, 95.686 159.927 C 90.281 165.083, 89.702 167.759, 94.807 163.984 C 98.536 161.228, 101.132 161.956, 103.226 166.347 C 105.157 170.397, 111 191.176, 111 193.995 C 111 195.110, 107.151 203.710, 102.447 213.106 C 94.220 229.538, 93.954 230.281, 95.470 232.595 C 97.196 235.229, 98.828 235.699, 99.483 233.750 C 102.400 225.061, 112.337 199.003, 112.623 199.290 C 112.832 199.499, 114.564 205.366, 116.472 212.328 C 120.225 226.022, 121.677 229.493, 124.857 232.371 C 128.437 235.611, 134.760 232.840, 139.545 225.934 C 142.633 221.479, 142.171 219.598, 138.746 222.680 C 135.340 225.746, 133.004 226.233, 130.276 224.445 C 127.191 222.424, 125.968 219.456, 121.050 202.054 L 117.071 187.974 124.152 176.237 C 128.047 169.782, 132.138 163.226, 133.243 161.669 C 134.984 159.215, 135.079 158.516, 133.957 156.419 C 132.686 154.044, 130 153.062, 130 154.972" stroke="none" fill="" fill-rule="evenodd"/></symbol></svg>