<svg xmlns="http://www.w3.org/2000/svg"><symbol viewBox="0 0 236 240" id="xroniki_agogi_pausi_5"><path d="M 38.788 54.557 C 45.948 60.688, 48.182 66.847, 51.926 90.773 C 56.575 120.485, 68.855 147.314, 86.129 165.499 C 105.368 185.753, 125.419 195.520, 150.250 196.732 C 160.714 197.243, 161 197.200, 161 195.128 C 161 193.353, 160.405 193, 157.417 193 C 151.902 193, 138.223 189.206, 131.009 185.676 C 107.135 173.994, 88.150 137.661, 80.492 89 C 76.148 61.393, 74.357 55.365, 69.747 52.833 C 68.309 52.043, 61.561 51.470, 51 51.241 L 34.500 50.884 38.788 54.557 M 86.459 78.341 C 82.270 82.530, 81.350 86.005, 83.166 90.777 C 86.482 99.490, 96.471 101.428, 102.749 94.576 C 110.023 86.640, 104.493 75, 93.450 75 C 90.645 75, 89.026 75.774, 86.459 78.341 M 116.400 78.400 C 113.626 81.174, 113 82.564, 113 85.950 C 113 91.555, 115.418 95.859, 119.534 97.579 C 123.891 99.399, 125.425 99.367, 129.643 97.365 C 133.832 95.377, 136 91.484, 136 85.950 C 136 82.564, 135.374 81.174, 132.600 78.400 C 129.698 75.498, 128.512 75, 124.500 75 C 120.488 75, 119.302 75.498, 116.400 78.400 M 148.763 76.565 C 142.459 79.985, 141.134 88.805, 146.076 94.434 C 151.661 100.795, 160.586 100.007, 165.003 92.763 C 167.388 88.851, 167.516 85.889, 165.484 81.607 C 162.641 75.617, 154.843 73.266, 148.763 76.565 M 104.299 105.624 C 96.399 109.519, 95.274 119.687, 102.106 125.436 C 104.401 127.367, 106.278 128, 109.709 128 C 113.636 128, 114.728 127.508, 117.632 124.429 C 120.307 121.593, 121 120.029, 121 116.833 C 121 111.748, 118.500 107.465, 114.393 105.516 C 110.382 103.613, 108.333 103.635, 104.299 105.624 M 135.418 104.922 C 131.305 106.679, 128 111.838, 128 116.506 C 128 120.073, 128.607 121.501, 131.368 124.429 C 134.272 127.508, 135.364 128, 139.291 128 C 154.256 128, 155.801 106.440, 140.977 104.491 C 139.064 104.239, 136.563 104.434, 135.418 104.922" stroke="none" fill="" fill-rule="evenodd"/></symbol></svg>