<svg xmlns="http://www.w3.org/2000/svg"><symbol viewBox="0 0 149 187" id="xronikes_agoges_6_180"><path d="M 57 42.500 L 57 57 63.500 57 C 67.075 57, 70 56.629, 70 56.176 C 70 55.507, 66.700 44.018, 64.460 36.888 C 64.011 35.460, 66.141 35.201, 83.227 34.611 C 93.827 34.244, 104.792 33.689, 107.593 33.377 C 112.319 32.850, 112.653 32.635, 112.226 30.404 L 111.767 28 84.383 28 L 57 28 57 42.500 M 77.091 76.250 C 75.500 80.417, 64.729 103.492, 63.986 104.325 C 63.582 104.778, 62.963 103.614, 62.611 101.738 C 61.360 95.070, 55.938 79.081, 54.410 77.553 C 51.650 74.793, 48.212 75.722, 42.942 80.651 C 37.435 85.802, 37.214 87.277, 42.363 84.504 C 48.580 81.156, 50.267 83.477, 55.501 102.575 L 58.944 115.135 50.472 132.056 C 45.812 141.363, 42 149.813, 42 150.834 C 42 151.855, 42.889 153.494, 43.975 154.477 C 46.252 156.538, 45.381 158.073, 51.334 141.500 C 56.696 126.570, 59.658 119.634, 60.249 120.619 C 60.541 121.104, 62.201 126.850, 63.940 133.389 C 67.086 145.223, 69.923 152.216, 72.130 153.580 C 74.058 154.772, 78.710 154.236, 81.327 152.521 C 84.174 150.656, 89 144.044, 89 142.009 C 89 141.141, 87.955 141.627, 86.195 143.313 C 82.466 146.885, 77.680 146.968, 75.407 143.499 C 73.669 140.846, 69.567 128.329, 66.453 116.177 L 64.576 108.853 67.449 103.677 C 69.029 100.830, 72.970 94.257, 76.208 89.071 C 81.646 80.360, 82.005 79.427, 80.926 76.821 C 79.516 73.416, 78.246 73.227, 77.091 76.250" stroke="none" fill="" fill-rule="evenodd"/></symbol></svg>