<svg xmlns="http://www.w3.org/2000/svg"><symbol viewBox="0 0 155 229" id="xronikes_agoges_3_90"><path d="M 42 54 C 42 61.700, 42.112 68.029, 42.250 68.065 C 42.388 68.101, 53.678 68.517, 67.340 68.989 C 81.002 69.461, 92.446 70.112, 92.770 70.437 C 93.094 70.761, 92.561 74.508, 91.586 78.763 C 90.610 83.018, 89.580 87.513, 89.297 88.750 C 88.816 90.857, 89.108 91, 93.892 91 L 99 91 99 76.500 L 99 62 73.856 62 L 48.713 62 49.386 54.750 C 49.756 50.763, 50.328 45.813, 50.657 43.750 L 51.256 40 46.628 40 L 42 40 42 54 M 80.584 110.961 C 76.798 119.196, 73.369 125.728, 72.964 125.478 C 72.558 125.227, 71.944 123.516, 71.599 121.674 C 71.253 119.833, 69.614 113.987, 67.956 108.683 C 63.995 96.010, 61.104 94.429, 53.500 100.779 C 47.490 105.797, 46.096 110.207, 51.869 105.939 C 54.741 103.815, 55.024 103.786, 57.416 105.353 C 59.977 107.031, 62.606 114.173, 66.565 130.204 L 68.220 136.908 59.445 154.943 C 50.875 172.557, 50.713 173.025, 52.490 174.989 C 53.491 176.095, 54.636 177, 55.035 177 C 55.434 177, 57.899 171.037, 60.512 163.750 C 63.125 156.463, 66.237 148.274, 67.428 145.554 L 69.593 140.608 71.932 149.554 C 77.542 171.015, 80.084 176, 85.417 176 C 88.116 176, 93.717 171.610, 97.124 166.826 C 99.685 163.229, 98.819 161.902, 95.746 164.714 C 92.391 167.785, 89.283 168.415, 86.497 166.590 C 84.016 164.964, 82.264 160.272, 76.489 139.795 L 73.753 130.090 82.810 115.295 C 90.819 102.214, 91.721 100.275, 90.599 98.555 C 89.900 97.485, 88.910 96.470, 88.398 96.299 C 87.887 96.129, 84.370 102.727, 80.584 110.961" stroke="none" fill="" fill-rule="evenodd"/></symbol></svg>