<svg xmlns="http://www.w3.org/2000/svg"><symbol viewBox="0 0 328 202" id="xroniki_agogi_tetragorgo"><path d="M 220 74.483 L 220 82.966 194.750 83.233 L 169.500 83.500 169.214 93.250 L 168.928 103 137.995 103 L 107.062 103 106.781 115.250 L 106.500 127.500 76.250 127.765 L 46 128.029 46 143.515 L 46 159 54 159 L 62 159 62 146 L 62 133 93 133 L 124 133 124 121 L 124 109 155.500 109 L 187 109 187 98.518 L 187 88.036 211.250 87.768 L 235.500 87.500 235.789 78.750 L 236.078 70 262.539 70 C 288.333 70, 289 69.950, 289 68 C 289 66.039, 288.333 66, 254.500 66 L 220 66 220 74.483" stroke="none" fill="" fill-rule="evenodd"/></symbol></svg>