<svg xmlns="http://www.w3.org/2000/svg"><symbol viewBox="0 0 241 218" id="xroniki_agogi_pausi_6"><path d="M 48.120 50.897 C 55.396 57.254, 56.468 60.186, 60.523 84.840 C 64.527 109.181, 71.876 129.069, 83.556 147.174 C 92.660 161.287, 111.540 178.115, 125.500 184.559 C 135.801 189.314, 151.585 193, 161.648 193 C 169.333 193, 170 192.840, 170 191 C 170 189.372, 169.333 189, 166.417 189 C 160.923 189, 147.238 185.195, 140.042 181.666 C 126.756 175.151, 112.555 158.172, 104.902 139.650 L 101.121 130.500 104.311 129.935 C 109.001 129.104, 111.790 127.308, 113.490 124.020 C 116.710 117.793, 114.532 110.429, 108.643 107.635 C 104.328 105.587, 101.727 105.573, 97.857 107.574 C 96.184 108.439, 94.685 109.002, 94.527 108.824 C 93.591 107.769, 88.708 81.967, 86.026 63.901 C 85.134 57.896, 82.206 51.246, 79.445 48.955 C 78.167 47.893, 73.495 47.458, 60.622 47.201 L 43.500 46.859 48.120 50.897 M 96.206 73.480 C 89.996 78.706, 89.754 87.301, 95.687 91.968 C 101.174 96.285, 106.380 95.820, 111.659 90.541 C 114.226 87.974, 115 86.355, 115 83.550 C 115 79.214, 112.867 74.721, 109.783 72.561 C 106.282 70.108, 99.682 70.555, 96.206 73.480 M 125.400 74.400 C 122.626 77.174, 122 78.564, 122 81.950 C 122 87.484, 124.168 91.377, 128.357 93.365 C 132.673 95.413, 134.327 95.413, 138.643 93.365 C 142.832 91.377, 145 87.484, 145 81.950 C 145 78.564, 144.374 77.174, 141.600 74.400 C 138.698 71.498, 137.512 71, 133.500 71 C 129.488 71, 128.302 71.498, 125.400 74.400 M 157.420 72.885 C 146.199 79.728, 154.393 97.895, 166.998 94.119 C 174.229 91.952, 177.668 84.316, 174.458 77.553 C 171.464 71.243, 163.632 69.098, 157.420 72.885 M 127.763 107.565 C 122.463 110.441, 120.151 119.915, 123.561 124.783 C 125.528 127.592, 130.116 130, 133.500 130 C 136.884 130, 141.472 127.592, 143.439 124.783 C 144.299 123.556, 145 120.509, 145 118 C 145 112.832, 143.189 109.666, 138.989 107.494 C 135.364 105.620, 131.301 105.646, 127.763 107.565 M 159.500 106.954 C 155.995 108.404, 152.853 112.679, 152.308 116.739 C 150.504 130.194, 168.214 135.155, 174.520 122.961 C 176.512 119.110, 176.378 116.132, 174.040 112.299 C 170.851 107.067, 164.696 104.805, 159.500 106.954" stroke="none" fill="" fill-rule="evenodd"/></symbol></svg>