<svg xmlns="http://www.w3.org/2000/svg"><symbol viewBox="0 0 206 239" id="xronikes_agoges_8_320"><path d="M 127 55 L 127 64 106 64 L 85 64 85 75.500 L 85 87 59 87 L 33 87 33 103 L 33 119 38.500 119 C 41.792 119, 44 118.564, 44 117.913 C 44 117.316, 43.020 111.470, 41.823 104.924 C 40.625 98.377, 39.838 92.890, 40.073 92.730 C 40.308 92.571, 52.425 92.753, 67 93.136 C 81.575 93.520, 93.669 93.664, 93.875 93.458 C 94.081 93.252, 93.605 87.890, 92.817 81.542 L 91.385 70 114.324 70 L 137.263 70 136.624 65.750 C 136.272 63.413, 135.709 59.435, 135.372 56.910 L 134.759 52.320 147.037 51.660 C 153.789 51.297, 162.331 51, 166.017 51 C 177.057 51, 182 50.030, 182 47.864 C 182 46.090, 180.665 46, 154.500 46 L 127 46 127 55 M 97.040 124.767 C 91.851 136.861, 85.863 149.197, 85.404 148.737 C 85.141 148.474, 83.809 144.038, 82.446 138.879 C 76.936 118.031, 74.431 116.044, 64.820 124.904 C 59.307 129.985, 58.600 132.834, 63.807 128.984 C 67.536 126.228, 70.132 126.956, 72.226 131.347 C 74.157 135.397, 80 156.176, 80 158.995 C 80 160.110, 76.151 168.710, 71.447 178.106 C 63.143 194.692, 62.941 195.261, 64.511 197.657 C 65.400 199.014, 66.599 199.967, 67.176 199.775 C 67.752 199.583, 70.367 193.592, 72.986 186.463 C 75.605 179.333, 78.660 171.250, 79.775 168.500 L 81.802 163.500 82.535 166.500 C 88.280 190.037, 92.395 199, 97.455 199 C 100.447 199, 106.448 194.629, 108.898 190.665 C 111.881 185.838, 111.561 184.108, 108.250 187.166 C 104.380 190.742, 102.127 191.314, 99.276 189.445 C 96.189 187.423, 94.969 184.458, 90.035 167.003 L 86.042 152.871 94.974 138.379 C 103 125.357, 103.793 123.639, 102.792 121.443 C 101.092 117.711, 99.730 118.498, 97.040 124.767" stroke="none" fill="" fill-rule="evenodd"/></symbol></svg>