<svg xmlns="http://www.w3.org/2000/svg"><symbol viewBox="0 0 270 256" id="xroniki_agogi_pausi_4"><path d="M 44.120 68.897 C 51.396 75.254, 52.468 78.186, 56.523 102.840 C 60.527 127.181, 67.876 147.069, 79.556 165.174 C 88.660 179.287, 107.540 196.115, 121.500 202.559 C 131.801 207.314, 147.585 211, 157.648 211 C 165.333 211, 166 210.840, 166 209 C 166 207.372, 165.333 207, 162.417 207 C 156.923 207, 143.238 203.195, 136.042 199.666 C 122.396 192.975, 108.569 176.192, 100.383 156.383 C 91.738 135.463, 87.312 117.507, 82.026 81.901 C 81.134 75.896, 78.206 69.246, 75.445 66.955 C 74.167 65.893, 69.495 65.458, 56.622 65.201 L 39.500 64.859 44.120 68.897 M 92.206 91.480 C 85.996 96.706, 85.754 105.301, 91.687 109.968 C 97.174 114.285, 102.380 113.820, 107.659 108.541 C 110.226 105.974, 111 104.355, 111 101.550 C 111 97.214, 108.867 92.721, 105.783 90.561 C 102.282 88.108, 95.682 88.555, 92.206 91.480 M 121.400 92.400 C 118.626 95.174, 118 96.564, 118 99.950 C 118 105.484, 120.168 109.377, 124.357 111.365 C 128.673 113.413, 130.327 113.413, 134.643 111.365 C 138.832 109.377, 141 105.484, 141 99.950 C 141 96.564, 140.374 95.174, 137.600 92.400 C 134.698 89.498, 133.512 89, 129.500 89 C 125.488 89, 124.302 89.498, 121.400 92.400 M 153.420 90.885 C 142.199 97.728, 150.393 115.895, 162.998 112.119 C 170.229 109.952, 173.668 102.316, 170.458 95.553 C 167.464 89.243, 159.632 87.098, 153.420 90.885 M 183.206 91.480 C 176.996 96.706, 176.754 105.301, 182.687 109.968 C 188.174 114.285, 193.380 113.820, 198.659 108.541 C 201.226 105.974, 202 104.355, 202 101.550 C 202 97.214, 199.867 92.721, 196.783 90.561 C 193.282 88.108, 186.682 88.555, 183.206 91.480" stroke="none" fill="" fill-rule="evenodd"/></symbol></svg>