<svg xmlns="http://www.w3.org/2000/svg"><symbol viewBox="0 0 153 183" id="xronikes_agoges_4_120"><path d="M 31 34.064 L 31 38.160 40.750 37.598 C 46.112 37.289, 57.201 36.762, 65.392 36.427 C 79.246 35.861, 80.237 35.939, 79.619 37.551 C 79.253 38.504, 77.778 43.382, 76.341 48.392 C 74.905 53.401, 73.517 58.063, 73.257 58.750 C 72.908 59.677, 74.628 60, 79.920 60 L 87.053 60 86.777 45.250 L 86.500 30.500 58.750 30.234 L 31 29.968 31 34.064 M 87.632 90 C 83.864 98.250, 80.451 105, 80.048 105 C 79.645 105, 78.111 100.405, 76.639 94.788 C 72.925 80.617, 71.311 77.578, 67.293 77.190 C 64.692 76.938, 63.227 77.671, 59.543 81.067 C 54.369 85.837, 53.135 89.438, 57.877 85.933 C 63.976 81.424, 66.648 84.734, 71.576 102.908 L 75.212 116.315 66.606 133.713 C 61.873 143.282, 58 151.691, 58 152.400 C 58 154.316, 61.664 157.352, 62.447 156.086 C 62.802 155.511, 65.764 147.750, 69.029 138.838 C 72.294 129.926, 75.350 122.250, 75.819 121.781 C 76.291 121.309, 78.088 126.394, 79.834 133.142 C 85.116 153.554, 88.302 157.849, 95.594 154.388 C 99.483 152.543, 105 146.109, 105 143.419 C 105 141.907, 104.560 142.048, 102.195 144.313 C 98.836 147.531, 94.814 147.790, 92.175 144.957 C 91.128 143.834, 88.657 137.422, 86.682 130.707 C 80.115 108.376, 80.216 111.063, 85.589 101.692 C 88.172 97.186, 92.187 90.540, 94.511 86.922 C 98.486 80.735, 98.654 80.186, 97.336 77.672 C 96.566 76.203, 95.609 75, 95.210 75 C 94.811 75, 91.401 81.750, 87.632 90" stroke="none" fill="" fill-rule="evenodd"/></symbol></svg>