<svg xmlns="http://www.w3.org/2000/svg"><symbol viewBox="0 0 370 244" id="xroniki_agogi_pentagorgo"><path d="M 281 76 L 281 84 250 84 L 219 84 219 91.984 L 219 99.968 191.250 100.234 L 163.500 100.500 163.214 110.250 L 162.928 120 131.995 120 L 101.062 120 100.781 132.250 L 100.500 144.500 70.250 144.765 L 40 145.029 40 160.515 L 40 176 48 176 L 56 176 56 163 L 56 150 87 150 L 118 150 118 138 L 118 126 149.500 126 L 181 126 181 115.516 L 181 105.032 208.250 104.766 L 235.500 104.500 235.790 96.250 L 236.081 88 264.998 88 L 293.916 88 294.208 80.250 L 294.500 72.500 319.250 72.233 C 343.171 71.974, 344 71.899, 344 69.983 C 344 68.048, 343.241 68, 312.500 68 L 281 68 281 76" stroke="none" fill="" fill-rule="evenodd"/></symbol></svg>