<svg xmlns="http://www.w3.org/2000/svg"><symbol viewBox="0 0 158 189" id="xronikes_agoges_5_150"><path d="M 33 35.855 C 33 39.617, 34.903 40, 53.625 40 C 64.891 40, 68 40.286, 68 41.325 C 68 42.054, 66.875 45.957, 65.500 50 C 64.125 54.043, 63 57.721, 63 58.175 C 63 58.629, 65.713 59, 69.030 59 L 75.060 59 74.780 46.250 L 74.500 33.500 53.750 33.230 L 33 32.959 33 35.855 M 80.667 33.667 C 80.300 34.033, 80 39.883, 80 46.667 L 80 59 86.500 59 C 90.075 59, 93 58.861, 93 58.691 C 93 58.522, 91.633 54.638, 89.963 50.062 C 88.293 45.485, 87.171 41.496, 87.469 41.197 C 87.768 40.899, 94.197 40.490, 101.756 40.288 C 121.125 39.772, 122 39.585, 122 35.955 L 122 33 101.667 33 C 90.483 33, 81.033 33.300, 80.667 33.667 M 93.678 78.049 C 92.755 79.367, 92 80.747, 92 81.116 C 92 81.484, 89.256 87.572, 85.903 94.643 L 79.806 107.500 76.610 96 C 71.060 76.027, 68.550 74.104, 59.107 82.594 C 53.825 87.342, 52.938 90.584, 57.930 86.894 C 59.483 85.745, 61.597 84.962, 62.627 85.153 C 65.259 85.641, 68.406 92.600, 71.977 105.831 L 75.035 117.161 66.517 134.724 C 61.833 144.384, 58 152.828, 58 153.488 C 58 155.224, 61.686 158.317, 62.392 157.175 C 62.717 156.649, 65.182 150.207, 67.871 142.860 C 70.559 135.512, 73.531 127.700, 74.475 125.500 L 76.191 121.500 79.898 135 C 85.405 155.055, 88.132 158.845, 95.004 155.998 C 98.609 154.505, 105 147.128, 105 144.460 C 105 142.884, 104.605 143.004, 102.195 145.313 C 98.431 148.920, 93.681 148.969, 91.359 145.426 C 89.722 142.927, 81 114.349, 81 111.483 C 81 110.042, 86.032 101.180, 93.957 88.667 C 98.149 82.048, 98.238 81.737, 96.820 78.743 L 95.357 75.653 93.678 78.049" stroke="none" fill="" fill-rule="evenodd"/></symbol></svg>