<svg xmlns="http://www.w3.org/2000/svg"><symbol viewBox="0 0 262 175" id="xroniki_agogi_trigorgon"><path d="M 157.667 56.667 C 157.300 57.033, 157 61.533, 157 66.667 L 157 76 126.031 76 L 95.062 76 94.781 88.250 L 94.500 100.500 64.250 100.765 L 34 101.029 34 116.515 L 34 132 42 132 L 50 132 50 119 L 50 106 81 106 L 112 106 112 94 L 112 82 143.500 82 L 175 82 175 71.500 L 175 61 198.500 61 L 222 61 222 58.500 L 222 56 190.167 56 C 172.658 56, 158.033 56.300, 157.667 56.667" stroke="none" fill="" fill-rule="evenodd"/></symbol></svg>