<svg xmlns="http://www.w3.org/2000/svg"><symbol viewBox="0 0 402 224" id="xroniki_agogi_exagorgo"><path d="M 314.667 51.667 C 314.300 52.033, 314 55.408, 314 59.167 L 314 66 285 66 L 256 66 256 75.500 L 256 85 227.500 85 L 199 85 199 93.985 L 199 102.970 169.750 103.235 L 140.500 103.500 140.214 113.250 L 139.928 123 108.995 123 L 78.062 123 77.781 135.250 L 77.500 147.500 47.250 147.765 L 17 148.029 17 163.515 L 17 179 25 179 L 33 179 33 166 L 33 153 64 153 L 95 153 95 141 L 95 129 126.500 129 L 158 129 158 118.500 L 158 108 186 108 L 214 108 214 98.500 L 214 89 242.500 89 L 271 89 271 80 L 271 71 301 71 L 331 71 331 63 L 331 55 353 55 C 374.333 55, 375 54.939, 375 53 C 375 51.045, 374.333 51, 345.167 51 C 328.758 51, 315.033 51.300, 314.667 51.667" stroke="none" fill="" fill-rule="evenodd"/></symbol></svg>