<svg xmlns="http://www.w3.org/2000/svg"><symbol viewBox="0 0 224 239" id="xroniki_agogi_pausi_2"><path d="M 36.679 49.419 C 44.389 56.089, 45.773 59.928, 50.050 86.500 C 55.191 118.435, 69.446 147.170, 89.263 165.548 C 107.747 182.689, 129.390 191.917, 151.250 191.978 C 158.341 191.998, 159 191.830, 159 190 C 159 188.372, 158.333 188, 155.417 188 C 149.542 188, 135.986 184.088, 128.500 180.232 C 119.397 175.543, 107.216 163.291, 100.859 152.429 C 88.890 131.978, 81.457 106.220, 75.026 62.901 C 74.134 56.896, 71.206 50.246, 68.445 47.955 C 67.170 46.896, 62.460 46.450, 49.622 46.173 L 32.500 45.803 36.679 49.419 M 91.844 72.255 C 86.471 76.797, 85.543 82.536, 89.283 88.102 C 92.532 92.939, 98.193 94.800, 103.228 92.686 C 112.161 88.935, 113.516 76.844, 105.586 71.648 C 101.878 69.219, 95.081 69.519, 91.844 72.255 M 123.400 73.400 C 120.526 76.274, 120 77.507, 120 81.365 C 120 85.014, 120.604 86.618, 123.007 89.355 C 130.554 97.950, 143 92.746, 143 80.996 C 143 77.557, 142.386 76.186, 139.600 73.400 C 136.698 70.498, 135.512 70, 131.500 70 C 127.488 70, 126.302 70.498, 123.400 73.400" stroke="none" fill="" fill-rule="evenodd"/></symbol></svg>