<svg xmlns="http://www.w3.org/2000/svg"><symbol viewBox="0 0 213 221" id="xroniki_agogi_pausi_1"><path d="M 38.120 43.897 C 45.396 50.254, 46.468 53.186, 50.523 77.840 C 54.527 102.181, 61.876 122.069, 73.556 140.174 C 82.660 154.287, 101.540 171.115, 115.500 177.559 C 125.801 182.314, 141.585 186, 151.648 186 C 159.333 186, 160 185.840, 160 184 C 160 182.372, 159.333 182, 156.417 182 C 150.923 182, 137.238 178.195, 130.042 174.666 C 116.396 167.975, 102.569 151.192, 94.383 131.383 C 85.738 110.463, 81.312 92.507, 76.026 56.901 C 75.134 50.896, 72.206 44.246, 69.445 41.955 C 68.167 40.893, 63.495 40.458, 50.622 40.201 L 33.500 39.859 38.120 43.897 M 96.400 67.400 C 93.441 70.359, 93 71.448, 93 75.794 C 93 79.896, 93.506 81.330, 95.829 83.817 C 103.475 92.002, 116 86.524, 116 74.996 C 116 71.557, 115.386 70.186, 112.600 67.400 C 109.698 64.498, 108.512 64, 104.500 64 C 100.488 64, 99.302 64.498, 96.400 67.400" stroke="none" fill="" fill-rule="evenodd"/></symbol></svg>