<svg xmlns="http://www.w3.org/2000/svg"><symbol viewBox="0 0 240 261" id="xroniki_agogi_pausi_3"><path d="M 38.788 63.557 C 45.948 69.688, 48.182 75.847, 51.926 99.773 C 56.575 129.485, 68.855 156.314, 86.129 174.499 C 105.368 194.753, 125.419 204.520, 150.250 205.732 C 160.714 206.243, 161 206.200, 161 204.128 C 161 202.353, 160.405 202, 157.417 202 C 151.902 202, 138.223 198.206, 131.009 194.676 C 107.135 182.994, 88.150 146.661, 80.492 98 C 76.148 70.393, 74.357 64.365, 69.747 61.833 C 68.309 61.043, 61.561 60.470, 51 60.241 L 34.500 59.884 38.788 63.557 M 95.459 87.341 C 91.270 91.530, 90.350 95.005, 92.166 99.777 C 95.482 108.490, 105.471 110.428, 111.749 103.576 C 119.023 95.640, 113.493 84, 102.450 84 C 99.645 84, 98.026 84.774, 95.459 87.341 M 125.400 87.400 C 122.626 90.174, 122 91.564, 122 94.950 C 122 100.555, 124.418 104.859, 128.534 106.579 C 132.891 108.399, 134.425 108.367, 138.643 106.365 C 142.832 104.377, 145 100.484, 145 94.950 C 145 91.564, 144.374 90.174, 141.600 87.400 C 138.698 84.498, 137.512 84, 133.500 84 C 129.488 84, 128.302 84.498, 125.400 87.400 M 157.763 85.565 C 151.459 88.985, 150.134 97.805, 155.076 103.434 C 160.661 109.795, 169.586 109.007, 174.003 101.763 C 176.388 97.851, 176.516 94.889, 174.484 90.607 C 171.641 84.617, 163.843 82.266, 157.763 85.565" stroke="none" fill="" fill-rule="evenodd"/></symbol></svg>