<svg xmlns="http://www.w3.org/2000/svg"><symbol viewBox="0 0 232 218" id="xronikes_agoges_1_40"><path d="M 28 40.850 L 28 43.700 35.250 43.367 C 52.242 42.588, 74.999 42.310, 74.984 42.881 C 74.976 43.222, 74.317 46.200, 73.520 49.500 C 70.806 60.740, 68.684 59.759, 94.500 59.207 C 106.875 58.942, 116.999 58.900, 116.999 59.113 C 116.998 59.326, 116.323 63.325, 115.500 68 C 114.677 72.675, 114.002 77.582, 114.001 78.903 L 114 81.307 141.342 80.603 L 168.684 79.899 165.849 90.700 C 164.291 96.640, 163.012 102.063, 163.008 102.750 C 163.003 103.584, 164.663 104, 168 104 L 173 104 173 89.500 L 173 75 148 75 L 123 75 123 64.500 L 123 54 102 54 L 81 54 81 46 L 81 38 54.500 38 L 28 38 28 40.850 M 138.480 115.972 C 134.710 124.237, 131.360 131, 131.034 131 C 130.708 131, 129.154 126.162, 127.581 120.250 C 123.343 104.324, 121.017 100.891, 115.815 102.890 C 113.185 103.901, 106 110.605, 106 112.048 C 106 113.483, 107.596 113.191, 109 111.500 C 109.685 110.675, 111.565 110, 113.179 110 C 115.674 110, 116.397 110.643, 118.015 114.302 C 119.062 116.668, 121.321 123.804, 123.035 130.161 L 126.153 141.718 117.576 158.848 C 112.859 168.269, 109 176.626, 109 177.417 C 109 178.932, 111.610 182, 112.897 182 C 113.313 182, 116.052 175.363, 118.985 167.250 C 121.918 159.137, 124.980 150.925, 125.790 149 L 127.262 145.500 131.010 159 C 135.531 175.282, 135.761 175.904, 138.323 178.750 C 141.873 182.693, 145.637 181.775, 151.737 175.476 C 157.323 169.709, 158.143 166.019, 152.848 170.474 C 144.877 177.181, 141.615 172.563, 134.028 143.828 L 131.738 135.155 140.454 120.828 C 147.745 108.843, 149.034 106.105, 148.335 104.082 C 147.876 102.752, 147.012 101.502, 146.416 101.304 C 145.820 101.106, 142.249 107.707, 138.480 115.972" stroke="none" fill="" fill-rule="evenodd"/></symbol></svg>